<ttFont>
    <TTGlyph name=".notdef" xMin="55" yMin="-5" xMax="530" yMax="464">
      <contour>
        <pt x="530" y="464" on="1"/>
        <pt x="530" y="-5" on="1"/>
        <pt x="55" y="-5" on="1"/>
        <pt x="55" y="464" on="1"/>
      </contour>
      <contour>
        <pt x="107" y="412" on="1"/>
        <pt x="107" y="48" on="1"/>
        <pt x="480" y="48" on="1"/>
        <pt x="480" y="412" on="1"/>
      </contour>
    </TTGlyph>
    <TTGlyph name="A" xMin="10" yMin="0" xMax="634" yMax="643">
      <contour>
        <pt x="516" y="0" on="1"/>
        <pt x="458" y="149" on="1"/>
        <pt x="183" y="149" on="1"/>
        <pt x="127" y="0" on="1"/>
        <pt x="10" y="0" on="1"/>
        <pt x="261" y="643" on="1"/>
        <pt x="382" y="643" on="1"/>
        <pt x="634" y="0" on="1"/>
      </contour>
      <contour>
        <pt x="321" y="514" on="1"/>
        <pt x="220" y="241" on="1"/>
        <pt x="420" y="241" on="1"/>
      </contour>
    </TTGlyph>
    <TTGlyph name="B" xMin="66" yMin="0" xMax="550" yMax="643">
      <contour>
        <pt x="550" y="170" on="1"/>
        <pt x="550" y="130" on="0"/>
        <pt x="511" y="67" on="0"/>
        <pt x="451" y="23" on="0"/>
        <pt x="377" y="0" on="0"/>
        <pt x="341" y="0" on="1"/>
        <pt x="66" y="0" on="1"/>
        <pt x="66" y="643" on="1"/>
        <pt x="328" y="643" on="1"/>
        <pt x="366" y="643" on="0"/>
        <pt x="436" y="624" on="0"/>
        <pt x="489" y="585" on="0"/>
        <pt x="521" y="525" on="0"/>
        <pt x="521" y="485" on="1"/>
        <pt x="521" y="455" on="0"/>
        <pt x="501" y="408" on="0"/>
        <pt x="467" y="372" on="0"/>
        <pt x="423" y="345" on="0"/>
        <pt x="399" y="336" on="1"/>
        <pt x="431" y="327" on="0"/>
        <pt x="486" y="299" on="0"/>
        <pt x="527" y="259" on="0"/>
        <pt x="550" y="206" on="0"/>
      </contour>
      <contour>
        <pt x="405" y="464" on="1"/>
        <pt x="405" y="505" on="0"/>
        <pt x="345" y="549" on="0"/>
        <pt x="294" y="549" on="1"/>
        <pt x="183" y="549" on="1"/>
        <pt x="183" y="379" on="1"/>
        <pt x="287" y="379" on="1"/>
        <pt x="341" y="379" on="0"/>
        <pt x="405" y="425" on="0"/>
      </contour>
      <contour>
        <pt x="430" y="191" on="1"/>
        <pt x="430" y="217" on="0"/>
        <pt x="408" y="254" on="0"/>
        <pt x="370" y="277" on="0"/>
        <pt x="320" y="288" on="0"/>
        <pt x="292" y="288" on="1"/>
        <pt x="183" y="288" on="1"/>
        <pt x="183" y="94" on="1"/>
        <pt x="293" y="94" on="1"/>
        <pt x="322" y="94" on="0"/>
        <pt x="372" y="106" on="0"/>
        <pt x="409" y="130" on="0"/>
        <pt x="430" y="166" on="0"/>
      </contour>
    </TTGlyph>
    <TTGlyph name="C" xMin="49" yMin="-13" xMax="584" yMax="655">
      <contour>
        <pt x="584" y="201" on="1"/>
        <pt x="580" y="153" on="0"/>
        <pt x="536" y="74" on="0"/>
        <pt x="467" y="18" on="0"/>
        <pt x="376" y="-13" on="0"/>
        <pt x="326" y="-13" on="1"/>
        <pt x="251" y="-13" on="0"/>
        <pt x="146" y="42" on="0"/>
        <pt x="79" y="135" on="0"/>
        <pt x="49" y="255" on="0"/>
        <pt x="49" y="320" on="1"/>
        <pt x="49" y="387" on="0"/>
        <pt x="82" y="509" on="0"/>
        <pt x="149" y="601" on="0"/>
        <pt x="254" y="655" on="0"/>
        <pt x="326" y="655" on="1"/>
        <pt x="448" y="655" on="0"/>
        <pt x="571" y="547" on="0"/>
        <pt x="577" y="450" on="1"/>
        <pt x="462" y="450" on="1"/>
        <pt x="456" y="507" on="0"/>
        <pt x="392" y="564" on="0"/>
        <pt x="326" y="564" on="1"/>
        <pt x="243" y="564" on="0"/>
        <pt x="170" y="436" on="0"/>
        <pt x="170" y="320" on="1"/>
        <pt x="170" y="199" on="0"/>
        <pt x="243" y="78" on="0"/>
        <pt x="325" y="78" on="1"/>
        <pt x="386" y="78" on="0"/>
        <pt x="451" y="146" on="0"/>
        <pt x="458" y="201" on="1"/>
        <pt x="584" y="201" on="1"/>
      </contour>
    </TTGlyph>
    <TTGlyph name="D" xMin="66" yMin="0" xMax="596" yMax="643">
      <contour>
        <pt x="596" y="322" on="1"/>
        <pt x="596" y="249" on="0"/>
        <pt x="551" y="130" on="0"/>
        <pt x="466" y="46" on="0"/>
        <pt x="341" y="0" on="0"/>
        <pt x="262" y="0" on="1"/>
        <pt x="66" y="0" on="1"/>
        <pt x="66" y="643" on="1"/>
        <pt x="262" y="643" on="1"/>
        <pt x="344" y="643" on="0"/>
        <pt x="469" y="596" on="0"/>
        <pt x="553" y="511" on="0"/>
        <pt x="596" y="393" on="0"/>
      </contour>
      <contour>
        <pt x="479" y="322" on="1"/>
        <pt x="479" y="435" on="0"/>
        <pt x="369" y="549" on="0"/>
        <pt x="263" y="549" on="1"/>
        <pt x="183" y="549" on="1"/>
        <pt x="183" y="94" on="1"/>
        <pt x="263" y="94" on="1"/>
        <pt x="369" y="94" on="0"/>
        <pt x="479" y="209" on="0"/>
      </contour>
    </TTGlyph>
    <TTGlyph name="E" xMin="66" yMin="0" xMax="490" yMax="643">
      <contour>
        <pt x="66" y="0" on="1"/>
        <pt x="66" y="643" on="1"/>
        <pt x="481" y="643" on="1"/>
        <pt x="481" y="549" on="1"/>
        <pt x="180" y="549" on="1"/>
        <pt x="180" y="377" on="1"/>
        <pt x="466" y="377" on="1"/>
        <pt x="466" y="287" on="1"/>
        <pt x="180" y="287" on="1"/>
        <pt x="180" y="94" on="1"/>
        <pt x="490" y="94" on="1"/>
        <pt x="490" y="0" on="1"/>
      </contour>
    </TTGlyph>
    <TTGlyph name="F" xMin="66" yMin="0" xMax="462" yMax="643">
      <contour>
        <pt x="183" y="284" on="1"/>
        <pt x="183" y="0" on="1"/>
        <pt x="66" y="0" on="1"/>
        <pt x="66" y="643" on="1"/>
        <pt x="462" y="643" on="1"/>
        <pt x="462" y="549" on="1"/>
        <pt x="183" y="549" on="1"/>
        <pt x="183" y="377" on="1"/>
        <pt x="444" y="377" on="1"/>
        <pt x="444" y="284" on="1"/>
      </contour>
    </TTGlyph>
    <TTGlyph name="G" xMin="49" yMin="-13" xMax="627" yMax="655">
      <contour>
        <pt x="621" y="29" on="1"/>
        <pt x="552" y="9" on="0"/>
        <pt x="431" y="-13" on="0"/>
        <pt x="389" y="-13" on="1"/>
        <pt x="302" y="-13" on="0"/>
        <pt x="174" y="39" on="0"/>
        <pt x="90" y="131" on="0"/>
        <pt x="49" y="255" on="0"/>
        <pt x="49" y="326" on="1"/>
        <pt x="49" y="396" on="0"/>
        <pt x="96" y="516" on="0"/>
        <pt x="182" y="605" on="0"/>
        <pt x="300" y="655" on="0"/>
        <pt x="371" y="655" on="1"/>
        <pt x="433" y="655" on="0"/>
        <pt x="529" y="625" on="0"/>
        <pt x="594" y="572" on="0"/>
        <pt x="627" y="498" on="0"/>
        <pt x="627" y="455" on="1"/>
        <pt x="508" y="455" on="1"/>
        <pt x="507" y="479" on="0"/>
        <pt x="486" y="519" on="0"/>
        <pt x="449" y="546" on="0"/>
        <pt x="399" y="561" on="0"/>
        <pt x="371" y="561" on="1"/>
        <pt x="316" y="561" on="0"/>
        <pt x="239" y="521" on="0"/>
        <pt x="191" y="454" on="0"/>
        <pt x="170" y="368" on="0"/>
        <pt x="170" y="323" on="1"/>
        <pt x="170" y="272" on="0"/>
        <pt x="197" y="183" on="0"/>
        <pt x="250" y="119" on="0"/>
        <pt x="330" y="82" on="0"/>
        <pt x="383" y="82" on="1"/>
        <pt x="406" y="82" on="0"/>
        <pt x="466" y="90" on="0"/>
        <pt x="501" y="98" on="1"/>
        <pt x="501" y="245" on="1"/>
        <pt x="375" y="245" on="1"/>
        <pt x="375" y="342" on="1"/>
        <pt x="621" y="342" on="1"/>
        <pt x="621" y="29" on="1"/>
      </contour>
    </TTGlyph>
    <TTGlyph name="H" xMin="66" yMin="0" xMax="570" yMax="643">
      <contour>
        <pt x="453" y="0" on="1"/>
        <pt x="453" y="287" on="1"/>
        <pt x="181" y="287" on="1"/>
        <pt x="181" y="0" on="1"/>
        <pt x="66" y="0" on="1"/>
        <pt x="66" y="643" on="1"/>
        <pt x="181" y="643" on="1"/>
        <pt x="181" y="380" on="1"/>
        <pt x="453" y="380" on="1"/>
        <pt x="453" y="643" on="1"/>
        <pt x="570" y="643" on="1"/>
        <pt x="570" y="0" on="1"/>
      </contour>
    </TTGlyph>
    <TTGlyph name="I" xMin="66" yMin="0" xMax="183" yMax="643">
      <contour>
        <pt x="66" y="0" on="1"/>
        <pt x="66" y="643" on="1"/>
        <pt x="183" y="643" on="1"/>
        <pt x="183" y="0" on="1"/>
      </contour>
    </TTGlyph>
    <TTGlyph name="J" xMin="49" yMin="-13" xMax="475" yMax="644">
      <contour>
        <pt x="475" y="191" on="1"/>
        <pt x="475" y="144" on="0"/>
        <pt x="439" y="68" on="0"/>
        <pt x="379" y="15" on="0"/>
        <pt x="301" y="-13" on="0"/>
        <pt x="258" y="-13" on="1"/>
        <pt x="149" y="-13" on="0"/>
        <pt x="49" y="95" on="0"/>
        <pt x="49" y="192" on="1"/>
        <pt x="169" y="192" on="1"/>
        <pt x="169" y="133" on="0"/>
        <pt x="216" y="82" on="0"/>
        <pt x="257" y="82" on="1"/>
        <pt x="307" y="82" on="0"/>
        <pt x="357" y="136" on="0"/>
        <pt x="357" y="196" on="1"/>
        <pt x="357" y="644" on="1"/>
        <pt x="475" y="644" on="1"/>
        <pt x="475" y="191" on="1"/>
      </contour>
    </TTGlyph>
    <TTGlyph name="K" xMin="66" yMin="0" xMax="582" yMax="643">
      <contour>
        <pt x="435" y="0" on="1"/>
        <pt x="183" y="328" on="1"/>
        <pt x="183" y="0" on="1"/>
        <pt x="66" y="0" on="1"/>
        <pt x="66" y="643" on="1"/>
        <pt x="183" y="643" on="1"/>
        <pt x="183" y="368" on="1"/>
        <pt x="415" y="643" on="1"/>
        <pt x="553" y="643" on="1"/>
        <pt x="310" y="359" on="1"/>
        <pt x="582" y="0" on="1"/>
      </contour>
    </TTGlyph>
    <TTGlyph name="L" xMin="66" yMin="0" xMax="472" yMax="643">
      <contour>
        <pt x="66" y="0" on="1"/>
        <pt x="66" y="643" on="1"/>
        <pt x="183" y="643" on="1"/>
        <pt x="183" y="94" on="1"/>
        <pt x="472" y="94" on="1"/>
        <pt x="472" y="0" on="1"/>
      </contour>
    </TTGlyph>
    <TTGlyph name="M" xMin="66" yMin="0" xMax="753" yMax="645">
      <contour>
        <pt x="640" y="0" on="1"/>
        <pt x="640" y="542" on="1"/>
        <pt x="463" y="0" on="1"/>
        <pt x="354" y="0" on="1"/>
        <pt x="178" y="540" on="1"/>
        <pt x="178" y="0" on="1"/>
        <pt x="66" y="0" on="1"/>
        <pt x="66" y="643" on="1"/>
        <pt x="255" y="643" on="1"/>
        <pt x="409" y="160" on="1"/>
        <pt x="564" y="645" on="1"/>
        <pt x="753" y="645" on="1"/>
        <pt x="753" y="0" on="1"/>
      </contour>
    </TTGlyph>
    <TTGlyph name="N" xMin="66" yMin="0" xMax="605" yMax="643">
      <contour>
        <pt x="438" y="0" on="1"/>
        <pt x="178" y="518" on="1"/>
        <pt x="178" y="0" on="1"/>
        <pt x="66" y="0" on="1"/>
        <pt x="66" y="643" on="1"/>
        <pt x="232" y="643" on="1"/>
        <pt x="492" y="124" on="1"/>
        <pt x="492" y="643" on="1"/>
        <pt x="605" y="643" on="1"/>
        <pt x="605" y="0" on="1"/>
      </contour>
    </TTGlyph>
    <TTGlyph name="O" xMin="49" yMin="-13" xMax="651" yMax="655">
      <contour>
        <pt x="651" y="326" on="1"/>
        <pt x="651" y="254" on="0"/>
        <pt x="612" y="131" on="0"/>
        <pt x="537" y="39" on="0"/>
        <pt x="424" y="-13" on="0"/>
        <pt x="351" y="-13" on="1"/>
        <pt x="275" y="-13" on="0"/>
        <pt x="161" y="41" on="0"/>
        <pt x="86" y="134" on="0"/>
        <pt x="49" y="257" on="0"/>
        <pt x="49" y="326" on="1"/>
        <pt x="49" y="397" on="0"/>
        <pt x="88" y="518" on="0"/>
        <pt x="165" y="606" on="0"/>
        <pt x="277" y="655" on="0"/>
        <pt x="351" y="655" on="1"/>
        <pt x="427" y="655" on="0"/>
        <pt x="539" y="603" on="0"/>
        <pt x="614" y="514" on="0"/>
        <pt x="651" y="394" on="0"/>
      </contour>
      <contour>
        <pt x="530" y="326" on="1"/>
        <pt x="530" y="437" on="0"/>
        <pt x="447" y="561" on="0"/>
        <pt x="351" y="561" on="1"/>
        <pt x="255" y="561" on="0"/>
        <pt x="171" y="437" on="0"/>
        <pt x="171" y="326" on="1"/>
        <pt x="171" y="270" on="0"/>
        <pt x="191" y="180" on="0"/>
        <pt x="235" y="117" on="0"/>
        <pt x="303" y="82" on="0"/>
        <pt x="351" y="82" on="1"/>
        <pt x="399" y="82" on="0"/>
        <pt x="467" y="117" on="0"/>
        <pt x="510" y="180" on="0"/>
        <pt x="530" y="270" on="0"/>
      </contour>
    </TTGlyph>
    <TTGlyph name="P" xMin="66" yMin="0" xMax="523" yMax="643">
      <contour>
        <pt x="523" y="447" on="1"/>
        <pt x="523" y="391" on="0"/>
        <pt x="481" y="317" on="0"/>
        <pt x="412" y="272" on="0"/>
        <pt x="324" y="254" on="0"/>
        <pt x="278" y="254" on="1"/>
        <pt x="183" y="254" on="1"/>
        <pt x="183" y="0" on="1"/>
        <pt x="66" y="0" on="1"/>
        <pt x="66" y="643" on="1"/>
        <pt x="278" y="643" on="1"/>
        <pt x="326" y="643" on="0"/>
        <pt x="415" y="623" on="0"/>
        <pt x="483" y="577" on="0"/>
        <pt x="523" y="502" on="0"/>
      </contour>
      <contour>
        <pt x="406" y="447" on="1"/>
        <pt x="406" y="504" on="0"/>
        <pt x="329" y="549" on="0"/>
        <pt x="257" y="549" on="1"/>
        <pt x="183" y="549" on="1"/>
        <pt x="183" y="348" on="1"/>
        <pt x="257" y="348" on="1"/>
        <pt x="326" y="348" on="0"/>
        <pt x="406" y="390" on="0"/>
      </contour>
    </TTGlyph>
    <TTGlyph name="Q" xMin="49" yMin="-13" xMax="698" yMax="655">
      <contour>
        <pt x="464" y="0" on="1"/>
        <pt x="421" y="-6" on="0"/>
        <pt x="366" y="-13" on="0"/>
        <pt x="351" y="-13" on="1"/>
        <pt x="275" y="-13" on="0"/>
        <pt x="161" y="41" on="0"/>
        <pt x="86" y="134" on="0"/>
        <pt x="49" y="257" on="0"/>
        <pt x="49" y="326" on="1"/>
        <pt x="49" y="397" on="0"/>
        <pt x="88" y="518" on="0"/>
        <pt x="165" y="606" on="0"/>
        <pt x="277" y="655" on="0"/>
        <pt x="351" y="655" on="1"/>
        <pt x="427" y="655" on="0"/>
        <pt x="539" y="603" on="0"/>
        <pt x="614" y="514" on="0"/>
        <pt x="651" y="394" on="0"/>
        <pt x="651" y="326" on="1"/>
        <pt x="651" y="254" on="0"/>
        <pt x="610" y="134" on="0"/>
        <pt x="568" y="90" on="1"/>
        <pt x="698" y="90" on="1"/>
        <pt x="698" y="0" on="1"/>
      </contour>
      <contour>
        <pt x="530" y="326" on="1"/>
        <pt x="530" y="437" on="0"/>
        <pt x="447" y="561" on="0"/>
        <pt x="351" y="561" on="1"/>
        <pt x="255" y="561" on="0"/>
        <pt x="171" y="437" on="0"/>
        <pt x="171" y="326" on="1"/>
        <pt x="171" y="270" on="0"/>
        <pt x="191" y="180" on="0"/>
        <pt x="235" y="117" on="0"/>
        <pt x="303" y="82" on="0"/>
        <pt x="351" y="82" on="1"/>
        <pt x="399" y="82" on="0"/>
        <pt x="467" y="117" on="0"/>
        <pt x="510" y="180" on="0"/>
        <pt x="530" y="270" on="0"/>
      </contour>
    </TTGlyph>
    <TTGlyph name="R" xMin="66" yMin="0" xMax="557" yMax="643">
      <contour>
        <pt x="436" y="0" on="1"/>
        <pt x="429" y="24" on="0"/>
        <pt x="422" y="64" on="0"/>
        <pt x="417" y="99" on="0"/>
        <pt x="412" y="134" on="0"/>
        <pt x="409" y="154" on="1"/>
        <pt x="403" y="187" on="0"/>
        <pt x="386" y="233" on="0"/>
        <pt x="359" y="260" on="0"/>
        <pt x="318" y="272" on="0"/>
        <pt x="287" y="272" on="1"/>
        <pt x="183" y="272" on="1"/>
        <pt x="183" y="0" on="1"/>
        <pt x="66" y="0" on="1"/>
        <pt x="66" y="643" on="1"/>
        <pt x="299" y="643" on="1"/>
        <pt x="420" y="643" on="0"/>
        <pt x="541" y="560" on="0"/>
        <pt x="541" y="469" on="1"/>
        <pt x="541" y="440" on="0"/>
        <pt x="518" y="395" on="0"/>
        <pt x="481" y="359" on="0"/>
        <pt x="435" y="332" on="0"/>
        <pt x="411" y="322" on="1"/>
        <pt x="442" y="315" on="0"/>
        <pt x="490" y="288" on="0"/>
        <pt x="503" y="258" on="1"/>
        <pt x="512" y="237" on="0"/>
        <pt x="522" y="169" on="0"/>
        <pt x="533" y="95" on="0"/>
        <pt x="546" y="24" on="0"/>
        <pt x="557" y="0" on="1"/>
      </contour>
      <contour>
        <pt x="423" y="455" on="1"/>
        <pt x="423" y="480" on="0"/>
        <pt x="402" y="515" on="0"/>
        <pt x="367" y="538" on="0"/>
        <pt x="323" y="549" on="0"/>
        <pt x="299" y="549" on="1"/>
        <pt x="183" y="549" on="1"/>
        <pt x="183" y="366" on="1"/>
        <pt x="293" y="366" on="1"/>
        <pt x="316" y="366" on="0"/>
        <pt x="363" y="377" on="0"/>
        <pt x="400" y="399" on="0"/>
        <pt x="423" y="432" on="0"/>
      </contour>
    </TTGlyph>
    <TTGlyph name="S" xMin="49" yMin="-13" xMax="551" yMax="655">
      <contour>
        <pt x="551" y="184" on="1"/>
        <pt x="551" y="132" on="0"/>
        <pt x="503" y="57" on="0"/>
        <pt x="427" y="9" on="0"/>
        <pt x="335" y="-13" on="0"/>
        <pt x="292" y="-13" on="1"/>
        <pt x="243" y="-13" on="0"/>
        <pt x="155" y="14" on="0"/>
        <pt x="88" y="68" on="0"/>
        <pt x="49" y="147" on="0"/>
        <pt x="49" y="199" on="1"/>
        <pt x="170" y="199" on="1"/>
        <pt x="172" y="140" on="0"/>
        <pt x="238" y="82" on="0"/>
        <pt x="294" y="82" on="1"/>
        <pt x="316" y="82" on="0"/>
        <pt x="366" y="90" on="0"/>
        <pt x="408" y="111" on="0"/>
        <pt x="436" y="147" on="0"/>
        <pt x="436" y="174" on="1"/>
        <pt x="436" y="213" on="0"/>
        <pt x="381" y="254" on="0"/>
        <pt x="299" y="279" on="0"/>
        <pt x="202" y="299" on="0"/>
        <pt x="120" y="337" on="0"/>
        <pt x="65" y="404" on="0"/>
        <pt x="65" y="464" on="1"/>
        <pt x="65" y="510" on="0"/>
        <pt x="108" y="581" on="0"/>
        <pt x="176" y="630" on="0"/>
        <pt x="259" y="655" on="0"/>
        <pt x="299" y="655" on="1"/>
        <pt x="345" y="655" on="0"/>
        <pt x="428" y="634" on="0"/>
        <pt x="492" y="589" on="0"/>
        <pt x="530" y="518" on="0"/>
        <pt x="530" y="469" on="1"/>
        <pt x="411" y="469" on="1"/>
        <pt x="411" y="494" on="0"/>
        <pt x="392" y="531" on="0"/>
        <pt x="361" y="553" on="0"/>
        <pt x="320" y="564" on="0"/>
        <pt x="298" y="564" on="1"/>
        <pt x="277" y="564" on="0"/>
        <pt x="234" y="553" on="0"/>
        <pt x="201" y="530" on="0"/>
        <pt x="180" y="496" on="0"/>
        <pt x="180" y="473" on="1"/>
        <pt x="180" y="438" on="0"/>
        <pt x="235" y="400" on="0"/>
        <pt x="317" y="375" on="0"/>
        <pt x="414" y="352" on="0"/>
        <pt x="496" y="312" on="0"/>
        <pt x="551" y="243" on="0"/>
      </contour>
    </TTGlyph>
    <TTGlyph name="T" xMin="24" yMin="0" xMax="536" yMax="643">
      <contour>
        <pt x="338" y="549" on="1"/>
        <pt x="338" y="0" on="1"/>
        <pt x="220" y="0" on="1"/>
        <pt x="220" y="549" on="1"/>
        <pt x="24" y="549" on="1"/>
        <pt x="24" y="643" on="1"/>
        <pt x="536" y="643" on="1"/>
        <pt x="536" y="549" on="1"/>
      </contour>
    </TTGlyph>
    <TTGlyph name="U" xMin="66" yMin="-13" xMax="603" yMax="643">
      <contour>
        <pt x="603" y="272" on="1"/>
        <pt x="603" y="202" on="0"/>
        <pt x="565" y="95" on="0"/>
        <pt x="494" y="23" on="0"/>
        <pt x="392" y="-13" on="0"/>
        <pt x="329" y="-13" on="1"/>
        <pt x="197" y="-13" on="0"/>
        <pt x="66" y="137" on="0"/>
        <pt x="66" y="272" on="1"/>
        <pt x="66" y="643" on="1"/>
        <pt x="183" y="643" on="1"/>
        <pt x="183" y="272" on="1"/>
        <pt x="183" y="218" on="0"/>
        <pt x="204" y="146" on="0"/>
        <pt x="242" y="101" on="0"/>
        <pt x="297" y="82" on="0"/>
        <pt x="332" y="82" on="1"/>
        <pt x="367" y="82" on="0"/>
        <pt x="423" y="101" on="0"/>
        <pt x="463" y="146" on="0"/>
        <pt x="484" y="218" on="0"/>
        <pt x="484" y="272" on="1"/>
        <pt x="484" y="643" on="1"/>
        <pt x="603" y="643" on="1"/>
        <pt x="603" y="272" on="1"/>
      </contour>
    </TTGlyph>
    <TTGlyph name="V" xMin="10" yMin="0" xMax="621" yMax="643">
      <contour>
        <pt x="382" y="0" on="1"/>
        <pt x="244" y="0" on="1"/>
        <pt x="10" y="643" on="1"/>
        <pt x="138" y="643" on="1"/>
        <pt x="315" y="137" on="1"/>
        <pt x="494" y="643" on="1"/>
        <pt x="621" y="643" on="1"/>
      </contour>
    </TTGlyph>
    <TTGlyph name="W" xMin="10" yMin="0" xMax="872" yMax="643">
      <contour>
        <pt x="701" y="0" on="1"/>
        <pt x="573" y="0" on="1"/>
        <pt x="441" y="499" on="1"/>
        <pt x="308" y="0" on="1"/>
        <pt x="181" y="0" on="1"/>
        <pt x="10" y="643" on="1"/>
        <pt x="136" y="643" on="1"/>
        <pt x="247" y="151" on="1"/>
        <pt x="376" y="643" on="1"/>
        <pt x="506" y="643" on="1"/>
        <pt x="634" y="151" on="1"/>
        <pt x="745" y="643" on="1"/>
        <pt x="872" y="643" on="1"/>
      </contour>
    </TTGlyph>
    <TTGlyph name="X" xMin="13" yMin="0" xMax="606" yMax="643">
      <contour>
        <pt x="468" y="0" on="1"/>
        <pt x="300" y="256" on="1"/>
        <pt x="137" y="0" on="1"/>
        <pt x="13" y="0" on="1"/>
        <pt x="241" y="337" on="1"/>
        <pt x="36" y="643" on="1"/>
        <pt x="174" y="643" on="1"/>
        <pt x="317" y="419" on="1"/>
        <pt x="458" y="643" on="1"/>
        <pt x="585" y="643" on="1"/>
        <pt x="376" y="337" on="1"/>
        <pt x="606" y="0" on="1"/>
      </contour>
    </TTGlyph>
    <TTGlyph name="Y" xMin="10" yMin="0" xMax="575" yMax="643">
      <contour>
        <pt x="352" y="247" on="1"/>
        <pt x="352" y="0" on="1"/>
        <pt x="234" y="0" on="1"/>
        <pt x="234" y="247" on="1"/>
        <pt x="10" y="643" on="1"/>
        <pt x="145" y="643" on="1"/>
        <pt x="294" y="360" on="1"/>
        <pt x="444" y="643" on="1"/>
        <pt x="575" y="643" on="1"/>
      </contour>
    </TTGlyph>
    <TTGlyph name="Z" xMin="40" yMin="0" xMax="518" yMax="643">
      <contour>
        <pt x="40" y="0" on="1"/>
        <pt x="40" y="106" on="1"/>
        <pt x="376" y="549" on="1"/>
        <pt x="59" y="549" on="1"/>
        <pt x="59" y="643" on="1"/>
        <pt x="511" y="643" on="1"/>
        <pt x="511" y="535" on="1"/>
        <pt x="174" y="94" on="1"/>
        <pt x="518" y="94" on="1"/>
        <pt x="518" y="0" on="1"/>
      </contour>
    </TTGlyph>
    <TTGlyph name="a" xMin="41" yMin="-12" xMax="446" yMax="457">
      <contour>
        <pt x="347" y="0" on="1"/>
        <pt x="344" y="11" on="0"/>
        <pt x="337" y="44" on="0"/>
        <pt x="335" y="56" on="1"/>
        <pt x="316" y="37" on="0"/>
        <pt x="285" y="11" on="0"/>
        <pt x="254" y="-5" on="0"/>
        <pt x="221" y="-12" on="0"/>
        <pt x="200" y="-12" on="1"/>
        <pt x="169" y="-12" on="0"/>
        <pt x="112" y="6" on="0"/>
        <pt x="68" y="40" on="0"/>
        <pt x="41" y="90" on="0"/>
        <pt x="41" y="122" on="1"/>
        <pt x="41" y="170" on="0"/>
        <pt x="82" y="234" on="0"/>
        <pt x="146" y="272" on="0"/>
        <pt x="225" y="287" on="0"/>
        <pt x="263" y="287" on="1"/>
        <pt x="328" y="287" on="1"/>
        <pt x="329" y="310" on="0"/>
        <pt x="324" y="348" on="0"/>
        <pt x="306" y="375" on="0"/>
        <pt x="274" y="390" on="0"/>
        <pt x="247" y="390" on="1"/>
        <pt x="209" y="390" on="0"/>
        <pt x="172" y="358" on="0"/>
        <pt x="168" y="323" on="1"/>
        <pt x="61" y="323" on="1"/>
        <pt x="61" y="356" on="0"/>
        <pt x="89" y="406" on="0"/>
        <pt x="139" y="440" on="0"/>
        <pt x="207" y="457" on="0"/>
        <pt x="248" y="457" on="1"/>
        <pt x="272" y="457" on="0"/>
        <pt x="327" y="450" on="0"/>
        <pt x="376" y="430" on="0"/>
        <pt x="415" y="397" on="0"/>
        <pt x="423" y="372" on="1"/>
        <pt x="429" y="355" on="0"/>
        <pt x="433" y="298" on="0"/>
        <pt x="433" y="263" on="1"/>
        <pt x="433" y="148" on="1"/>
        <pt x="433" y="106" on="0"/>
        <pt x="439" y="24" on="0"/>
        <pt x="446" y="0" on="1"/>
      </contour>
      <contour>
        <pt x="327" y="221" on="1"/>
        <pt x="319" y="222" on="0"/>
        <pt x="295" y="223" on="0"/>
        <pt x="284" y="223" on="1"/>
        <pt x="258" y="223" on="0"/>
        <pt x="209" y="213" on="0"/>
        <pt x="172" y="190" on="0"/>
        <pt x="150" y="155" on="0"/>
        <pt x="150" y="130" on="1"/>
        <pt x="150" y="101" on="0"/>
        <pt x="193" y="61" on="0"/>
        <pt x="225" y="61" on="1"/>
        <pt x="258" y="61" on="0"/>
        <pt x="299" y="87" on="0"/>
        <pt x="320" y="131" on="0"/>
        <pt x="327" y="189" on="0"/>
      </contour>
    </TTGlyph>
    <TTGlyph name="ampersand" xMin="49" yMin="-12" xMax="688" yMax="655">
      <contour>
        <pt x="543" y="0" on="1"/>
        <pt x="488" y="51" on="1"/>
        <pt x="454" y="22" on="0"/>
        <pt x="354" y="-12" on="0"/>
        <pt x="289" y="-12" on="1"/>
        <pt x="244" y="-12" on="0"/>
        <pt x="157" y="11" on="0"/>
        <pt x="90" y="57" on="0"/>
        <pt x="49" y="129" on="0"/>
        <pt x="49" y="177" on="1"/>
        <pt x="49" y="248" on="0"/>
        <pt x="122" y="339" on="0"/>
        <pt x="185" y="369" on="1"/>
        <pt x="148" y="401" on="0"/>
        <pt x="108" y="477" on="0"/>
        <pt x="108" y="520" on="1"/>
        <pt x="108" y="555" on="0"/>
        <pt x="140" y="606" on="0"/>
        <pt x="191" y="639" on="0"/>
        <pt x="254" y="655" on="0"/>
        <pt x="285" y="655" on="1"/>
        <pt x="317" y="655" on="0"/>
        <pt x="379" y="640" on="0"/>
        <pt x="429" y="610" on="0"/>
        <pt x="459" y="563" on="0"/>
        <pt x="459" y="531" on="1"/>
        <pt x="459" y="497" on="0"/>
        <pt x="434" y="444" on="0"/>
        <pt x="395" y="402" on="0"/>
        <pt x="347" y="368" on="0"/>
        <pt x="324" y="353" on="1"/>
        <pt x="355" y="314" on="0"/>
        <pt x="430" y="236" on="0"/>
        <pt x="475" y="193" on="1"/>
        <pt x="489" y="229" on="0"/>
        <pt x="496" y="305" on="0"/>
        <pt x="493" y="348" on="1"/>
        <pt x="605" y="348" on="1"/>
        <pt x="602" y="286" on="0"/>
        <pt x="577" y="173" on="0"/>
        <pt x="551" y="121" on="1"/>
        <pt x="571" y="96" on="0"/>
        <pt x="647" y="29" on="0"/>
        <pt x="688" y="0" on="1"/>
      </contour>
      <contour>
        <pt x="361" y="517" on="1"/>
        <pt x="361" y="527" on="0"/>
        <pt x="349" y="548" on="0"/>
        <pt x="330" y="564" on="0"/>
        <pt x="305" y="574" on="0"/>
        <pt x="292" y="574" on="1"/>
        <pt x="255" y="574" on="0"/>
        <pt x="214" y="539" on="0"/>
        <pt x="214" y="513" on="1"/>
        <pt x="214" y="473" on="0"/>
        <pt x="272" y="409" on="1"/>
        <pt x="289" y="419" on="0"/>
        <pt x="321" y="444" on="0"/>
        <pt x="346" y="472" on="0"/>
        <pt x="361" y="502" on="0"/>
      </contour>
      <contour>
        <pt x="421" y="115" on="1"/>
        <pt x="365" y="165" on="0"/>
        <pt x="272" y="260" on="0"/>
        <pt x="236" y="305" on="1"/>
        <pt x="203" y="281" on="0"/>
        <pt x="163" y="217" on="0"/>
        <pt x="163" y="186" on="1"/>
        <pt x="163" y="162" on="0"/>
        <pt x="184" y="121" on="0"/>
        <pt x="220" y="90" on="0"/>
        <pt x="266" y="72" on="0"/>
        <pt x="292" y="72" on="1"/>
        <pt x="331" y="72" on="0"/>
        <pt x="396" y="92" on="0"/>
      </contour>
    </TTGlyph>
    <TTGlyph name="asciicircum" xMin="36" yMin="569" xMax="499" yMax="851">
      <contour>
        <pt x="448" y="569" on="1"/>
        <pt x="268" y="750" on="1"/>
        <pt x="86" y="569" on="1"/>
        <pt x="36" y="620" on="1"/>
        <pt x="268" y="851" on="1"/>
        <pt x="499" y="620" on="1"/>
      </contour>
    </TTGlyph>
    <TTGlyph name="asciitilde" xMin="55" yMin="166" xMax="516" yMax="308">
      <contour>
        <pt x="516" y="233" on="1"/>
        <pt x="481" y="200" on="0"/>
        <pt x="405" y="168" on="0"/>
        <pt x="370" y="168" on="1"/>
        <pt x="338" y="168" on="0"/>
        <pt x="290" y="186" on="0"/>
        <pt x="250" y="208" on="0"/>
        <pt x="216" y="226" on="0"/>
        <pt x="200" y="226" on="1"/>
        <pt x="179" y="226" on="0"/>
        <pt x="124" y="203" on="0"/>
        <pt x="84" y="166" on="1"/>
        <pt x="55" y="242" on="1"/>
        <pt x="92" y="280" on="0"/>
        <pt x="167" y="308" on="0"/>
        <pt x="200" y="308" on="1"/>
        <pt x="233" y="308" on="0"/>
        <pt x="277" y="290" on="0"/>
        <pt x="313" y="269" on="0"/>
        <pt x="347" y="251" on="0"/>
        <pt x="370" y="251" on="1"/>
        <pt x="391" y="251" on="0"/>
        <pt x="439" y="275" on="0"/>
        <pt x="463" y="296" on="1"/>
        <pt x="516" y="233" on="1"/>
      </contour>
    </TTGlyph>
    <TTGlyph name="asterisk" xMin="55" yMin="225" xMax="512" yMax="696">
      <contour>
        <pt x="464" y="301" on="1"/>
        <pt x="332" y="380" on="1"/>
        <pt x="332" y="225" on="1"/>
        <pt x="239" y="225" on="1"/>
        <pt x="239" y="380" on="1"/>
        <pt x="106" y="301" on="1"/>
        <pt x="55" y="382" on="1"/>
        <pt x="192" y="461" on="1"/>
        <pt x="55" y="539" on="1"/>
        <pt x="106" y="619" on="1"/>
        <pt x="237" y="543" on="1"/>
        <pt x="237" y="696" on="1"/>
        <pt x="332" y="696" on="1"/>
        <pt x="332" y="543" on="1"/>
        <pt x="464" y="619" on="1"/>
        <pt x="512" y="538" on="1"/>
        <pt x="378" y="461" on="1"/>
        <pt x="512" y="383" on="1"/>
      </contour>
    </TTGlyph>
    <TTGlyph name="at" xMin="41" yMin="-179" xMax="873" yMax="649">
      <contour>
        <pt x="873" y="270" on="1"/>
        <pt x="873" y="224" on="0"/>
        <pt x="849" y="131" on="0"/>
        <pt x="801" y="56" on="0"/>
        <pt x="731" y="8" on="0"/>
        <pt x="685" y="8" on="1"/>
        <pt x="596" y="8" on="0"/>
        <pt x="560" y="85" on="1"/>
        <pt x="534" y="49" on="0"/>
        <pt x="471" y="12" on="0"/>
        <pt x="429" y="12" on="1"/>
        <pt x="388" y="12" on="0"/>
        <pt x="321" y="48" on="0"/>
        <pt x="273" y="107" on="0"/>
        <pt x="247" y="184" on="0"/>
        <pt x="247" y="226" on="1"/>
        <pt x="247" y="271" on="0"/>
        <pt x="271" y="351" on="0"/>
        <pt x="317" y="411" on="0"/>
        <pt x="382" y="446" on="0"/>
        <pt x="424" y="446" on="1"/>
        <pt x="460" y="446" on="0"/>
        <pt x="518" y="419" on="0"/>
        <pt x="544" y="387" on="1"/>
        <pt x="544" y="435" on="1"/>
        <pt x="652" y="435" on="1"/>
        <pt x="652" y="139" on="1"/>
        <pt x="652" y="115" on="0"/>
        <pt x="680" y="96" on="0"/>
        <pt x="694" y="96" on="1"/>
        <pt x="720" y="96" on="0"/>
        <pt x="763" y="174" on="0"/>
        <pt x="763" y="247" on="1"/>
        <pt x="763" y="321" on="0"/>
        <pt x="722" y="436" on="0"/>
        <pt x="645" y="514" on="0"/>
        <pt x="535" y="555" on="0"/>
        <pt x="466" y="555" on="1"/>
        <pt x="401" y="555" on="0"/>
        <pt x="287" y="508" on="0"/>
        <pt x="201" y="422" on="0"/>
        <pt x="152" y="302" on="0"/>
        <pt x="152" y="229" on="1"/>
        <pt x="152" y="161" on="0"/>
        <pt x="199" y="47" on="0"/>
        <pt x="281" y="-35" on="0"/>
        <pt x="392" y="-82" on="0"/>
        <pt x="455" y="-82" on="1"/>
        <pt x="522" y="-82" on="0"/>
        <pt x="614" y="-72" on="0"/>
        <pt x="654" y="-58" on="1"/>
        <pt x="654" y="-161" on="1"/>
        <pt x="595" y="-172" on="0"/>
        <pt x="517" y="-179" on="0"/>
        <pt x="484" y="-179" on="1"/>
        <pt x="395" y="-179" on="0"/>
        <pt x="234" y="-128" on="0"/>
        <pt x="113" y="-24" on="0"/>
        <pt x="41" y="132" on="0"/>
        <pt x="41" y="237" on="1"/>
        <pt x="41" y="331" on="0"/>
        <pt x="111" y="483" on="0"/>
        <pt x="230" y="591" on="0"/>
        <pt x="384" y="649" on="0"/>
        <pt x="468" y="649" on="1"/>
        <pt x="555" y="649" on="0"/>
        <pt x="703" y="596" on="0"/>
        <pt x="812" y="497" on="0"/>
        <pt x="873" y="357" on="0"/>
      </contour>
      <contour>
        <pt x="543" y="236" on="1"/>
        <pt x="543" y="296" on="0"/>
        <pt x="498" y="363" on="0"/>
        <pt x="451" y="363" on="1"/>
        <pt x="426" y="363" on="0"/>
        <pt x="391" y="338" on="0"/>
        <pt x="369" y="299" on="0"/>
        <pt x="359" y="252" on="0"/>
        <pt x="359" y="230" on="1"/>
        <pt x="359" y="207" on="0"/>
        <pt x="368" y="159" on="0"/>
        <pt x="389" y="120" on="0"/>
        <pt x="423" y="95" on="0"/>
        <pt x="449" y="95" on="1"/>
        <pt x="475" y="95" on="0"/>
        <pt x="511" y="122" on="0"/>
        <pt x="533" y="163" on="0"/>
        <pt x="543" y="213" on="0"/>
      </contour>
    </TTGlyph>
    <TTGlyph name="b" xMin="59" yMin="-12" xMax="498" yMax="643">
      <contour>
        <pt x="498" y="225" on="1"/>
        <pt x="498" y="170" on="0"/>
        <pt x="467" y="82" on="0"/>
        <pt x="413" y="21" on="0"/>
        <pt x="340" y="-12" on="0"/>
        <pt x="298" y="-12" on="1"/>
        <pt x="253" y="-12" on="0"/>
        <pt x="185" y="23" on="0"/>
        <pt x="166" y="51" on="1"/>
        <pt x="166" y="0" on="1"/>
        <pt x="59" y="0" on="1"/>
        <pt x="59" y="643" on="1"/>
        <pt x="165" y="643" on="1"/>
        <pt x="165" y="398" on="1"/>
        <pt x="185" y="421" on="0"/>
        <pt x="249" y="457" on="0"/>
        <pt x="303" y="457" on="1"/>
        <pt x="360" y="457" on="0"/>
        <pt x="436" y="411" on="0"/>
        <pt x="480" y="342" on="0"/>
        <pt x="498" y="260" on="0"/>
      </contour>
      <contour>
        <pt x="389" y="221" on="1"/>
        <pt x="389" y="249" on="0"/>
        <pt x="378" y="308" on="0"/>
        <pt x="351" y="358" on="0"/>
        <pt x="307" y="390" on="0"/>
        <pt x="274" y="390" on="1"/>
        <pt x="218" y="390" on="0"/>
        <pt x="165" y="300" on="0"/>
        <pt x="165" y="224" on="1"/>
        <pt x="165" y="194" on="0"/>
        <pt x="177" y="136" on="0"/>
        <pt x="204" y="89" on="0"/>
        <pt x="246" y="61" on="0"/>
        <pt x="276" y="61" on="1"/>
        <pt x="304" y="61" on="0"/>
        <pt x="347" y="87" on="0"/>
        <pt x="375" y="132" on="0"/>
        <pt x="389" y="189" on="0"/>
      </contour>
    </TTGlyph>
    <TTGlyph name="backslash" xMin="55" yMin="-254" xMax="481" yMax="825">
      <contour>
        <pt x="410" y="-254" on="1"/>
        <pt x="55" y="757" on="1"/>
        <pt x="127" y="825" on="1"/>
        <pt x="481" y="-182" on="1"/>
      </contour>
    </TTGlyph>
    <TTGlyph name="bar" xMin="124" yMin="-230" xMax="211" yMax="709">
      <contour>
        <pt x="124" y="-230" on="1"/>
        <pt x="124" y="709" on="1"/>
        <pt x="211" y="709" on="1"/>
        <pt x="211" y="-230" on="1"/>
      </contour>
    </TTGlyph>
    <TTGlyph name="braceleft" xMin="70" yMin="-413" xMax="375" yMax="864">
      <contour>
        <pt x="375" y="-413" on="1"/>
        <pt x="303" y="-413" on="0"/>
        <pt x="222" y="-339" on="0"/>
        <pt x="181" y="-211" on="0"/>
        <pt x="171" y="-38" on="0"/>
        <pt x="171" y="61" on="1"/>
        <pt x="171" y="92" on="0"/>
        <pt x="139" y="134" on="0"/>
        <pt x="102" y="169" on="0"/>
        <pt x="70" y="203" on="0"/>
        <pt x="70" y="226" on="1"/>
        <pt x="70" y="248" on="0"/>
        <pt x="102" y="282" on="0"/>
        <pt x="139" y="317" on="0"/>
        <pt x="171" y="359" on="0"/>
        <pt x="171" y="390" on="1"/>
        <pt x="171" y="489" on="0"/>
        <pt x="181" y="662" on="0"/>
        <pt x="222" y="790" on="0"/>
        <pt x="303" y="864" on="0"/>
        <pt x="375" y="864" on="1"/>
        <pt x="375" y="774" on="1"/>
        <pt x="339" y="774" on="0"/>
        <pt x="295" y="721" on="0"/>
        <pt x="271" y="620" on="0"/>
        <pt x="263" y="472" on="0"/>
        <pt x="263" y="376" on="1"/>
        <pt x="263" y="336" on="0"/>
        <pt x="236" y="283" on="0"/>
        <pt x="203" y="249" on="0"/>
        <pt x="176" y="230" on="0"/>
        <pt x="176" y="226" on="1"/>
        <pt x="176" y="221" on="0"/>
        <pt x="203" y="204" on="0"/>
        <pt x="236" y="169" on="0"/>
        <pt x="263" y="115" on="0"/>
        <pt x="263" y="74" on="1"/>
        <pt x="263" y="-21" on="0"/>
        <pt x="271" y="-169" on="0"/>
        <pt x="295" y="-270" on="0"/>
        <pt x="339" y="-323" on="0"/>
        <pt x="375" y="-323" on="1"/>
        <pt x="375" y="-413" on="1"/>
      </contour>
    </TTGlyph>
    <TTGlyph name="braceright" xMin="55" yMin="-413" xMax="358" yMax="864">
      <contour>
        <pt x="358" y="226" on="1"/>
        <pt x="358" y="203" on="0"/>
        <pt x="327" y="169" on="0"/>
        <pt x="290" y="134" on="0"/>
        <pt x="259" y="92" on="0"/>
        <pt x="259" y="61" on="1"/>
        <pt x="259" y="-38" on="0"/>
        <pt x="249" y="-211" on="0"/>
        <pt x="208" y="-339" on="0"/>
        <pt x="127" y="-413" on="0"/>
        <pt x="55" y="-413" on="1"/>
        <pt x="55" y="-322" on="1"/>
        <pt x="91" y="-322" on="0"/>
        <pt x="135" y="-269" on="0"/>
        <pt x="158" y="-168" on="0"/>
        <pt x="166" y="-20" on="0"/>
        <pt x="166" y="75" on="1"/>
        <pt x="166" y="115" on="0"/>
        <pt x="193" y="169" on="0"/>
        <pt x="226" y="203" on="0"/>
        <pt x="254" y="221" on="0"/>
        <pt x="254" y="226" on="1"/>
        <pt x="254" y="230" on="0"/>
        <pt x="226" y="248" on="0"/>
        <pt x="193" y="282" on="0"/>
        <pt x="166" y="336" on="0"/>
        <pt x="166" y="376" on="1"/>
        <pt x="166" y="472" on="0"/>
        <pt x="158" y="620" on="0"/>
        <pt x="135" y="721" on="0"/>
        <pt x="91" y="774" on="0"/>
        <pt x="55" y="774" on="1"/>
        <pt x="55" y="864" on="1"/>
        <pt x="127" y="864" on="0"/>
        <pt x="208" y="791" on="0"/>
        <pt x="249" y="663" on="0"/>
        <pt x="259" y="490" on="0"/>
        <pt x="259" y="391" on="1"/>
        <pt x="259" y="360" on="0"/>
        <pt x="290" y="317" on="0"/>
        <pt x="327" y="282" on="0"/>
        <pt x="358" y="248" on="0"/>
      </contour>
    </TTGlyph>
    <TTGlyph name="bracketleft" xMin="80" yMin="-177" xMax="269" yMax="643">
      <contour>
        <pt x="80" y="-177" on="1"/>
        <pt x="80" y="643" on="1"/>
        <pt x="269" y="643" on="1"/>
        <pt x="269" y="574" on="1"/>
        <pt x="178" y="574" on="1"/>
        <pt x="178" y="-108" on="1"/>
        <pt x="269" y="-108" on="1"/>
        <pt x="269" y="-177" on="1"/>
      </contour>
    </TTGlyph>
    <TTGlyph name="bracketright" xMin="80" yMin="-177" xMax="269" yMax="643">
      <contour>
        <pt x="80" y="-177" on="1"/>
        <pt x="80" y="-108" on="1"/>
        <pt x="173" y="-108" on="1"/>
        <pt x="173" y="574" on="1"/>
        <pt x="80" y="574" on="1"/>
        <pt x="80" y="643" on="1"/>
        <pt x="269" y="643" on="1"/>
        <pt x="269" y="-177" on="1"/>
      </contour>
    </TTGlyph>
    <TTGlyph name="c" xMin="42" yMin="-12" xMax="421" yMax="457">
      <contour>
        <pt x="421" y="159" on="1"/>
        <pt x="421" y="80" on="0"/>
        <pt x="334" y="-12" on="0"/>
        <pt x="238" y="-12" on="1"/>
        <pt x="42" y="-12" on="0"/>
        <pt x="42" y="219" on="1"/>
        <pt x="42" y="337" on="0"/>
        <pt x="139" y="457" on="0"/>
        <pt x="235" y="457" on="1"/>
        <pt x="331" y="457" on="0"/>
        <pt x="421" y="373" on="0"/>
        <pt x="419" y="295" on="1"/>
        <pt x="314" y="295" on="1"/>
        <pt x="315" y="344" on="0"/>
        <pt x="269" y="387" on="0"/>
        <pt x="237" y="387" on="1"/>
        <pt x="214" y="387" on="0"/>
        <pt x="179" y="371" on="0"/>
        <pt x="156" y="332" on="0"/>
        <pt x="144" y="269" on="0"/>
        <pt x="144" y="221" on="1"/>
        <pt x="144" y="131" on="0"/>
        <pt x="185" y="58" on="0"/>
        <pt x="235" y="58" on="1"/>
        <pt x="259" y="58" on="0"/>
        <pt x="290" y="76" on="0"/>
        <pt x="307" y="105" on="0"/>
        <pt x="314" y="141" on="0"/>
        <pt x="314" y="159" on="1"/>
        <pt x="421" y="159" on="1"/>
      </contour>
    </TTGlyph>
    <TTGlyph name="circledash" xMin="55" yMin="-35" xMax="592" yMax="498">
      <component glyphName="u1700" x="0" y="0" flags="0x0"/>
    </TTGlyph>
    <TTGlyph name="colon" xMin="40" yMin="-20" xMax="203" yMax="464">
      <contour>
        <pt x="203" y="384" on="1"/>
        <pt x="203" y="368" on="0"/>
        <pt x="189" y="339" on="0"/>
        <pt x="167" y="318" on="0"/>
        <pt x="137" y="305" on="0"/>
        <pt x="122" y="305" on="1"/>
        <pt x="106" y="305" on="0"/>
        <pt x="76" y="318" on="0"/>
        <pt x="54" y="339" on="0"/>
        <pt x="40" y="368" on="0"/>
        <pt x="40" y="384" on="1"/>
        <pt x="40" y="400" on="0"/>
        <pt x="54" y="430" on="0"/>
        <pt x="76" y="451" on="0"/>
        <pt x="106" y="464" on="0"/>
        <pt x="122" y="464" on="1"/>
        <pt x="137" y="464" on="0"/>
        <pt x="167" y="451" on="0"/>
        <pt x="189" y="430" on="0"/>
        <pt x="203" y="400" on="0"/>
      </contour>
      <contour>
        <pt x="203" y="59" on="1"/>
        <pt x="203" y="43" on="0"/>
        <pt x="189" y="14" on="0"/>
        <pt x="167" y="-7" on="0"/>
        <pt x="137" y="-20" on="0"/>
        <pt x="122" y="-20" on="1"/>
        <pt x="106" y="-20" on="0"/>
        <pt x="76" y="-7" on="0"/>
        <pt x="54" y="14" on="0"/>
        <pt x="40" y="43" on="0"/>
        <pt x="40" y="59" on="1"/>
        <pt x="40" y="75" on="0"/>
        <pt x="54" y="104" on="0"/>
        <pt x="76" y="126" on="0"/>
        <pt x="106" y="138" on="0"/>
        <pt x="122" y="138" on="1"/>
        <pt x="137" y="138" on="0"/>
        <pt x="167" y="126" on="0"/>
        <pt x="189" y="104" on="0"/>
        <pt x="203" y="75" on="0"/>
      </contour>
    </TTGlyph>
    <TTGlyph name="comma" xMin="40" yMin="-148" xMax="208" yMax="151">
      <contour>
        <pt x="208" y="62" on="1"/>
        <pt x="208" y="27" on="0"/>
        <pt x="188" y="-38" on="0"/>
        <pt x="157" y="-93" on="0"/>
        <pt x="116" y="-136" on="0"/>
        <pt x="95" y="-148" on="1"/>
        <pt x="83" y="-133" on="1"/>
        <pt x="106" y="-115" on="0"/>
        <pt x="141" y="-45" on="0"/>
        <pt x="141" y="-5" on="1"/>
        <pt x="141" y="4" on="0"/>
        <pt x="141" y="13" on="0"/>
        <pt x="140" y="18" on="1"/>
        <pt x="135" y="15" on="0"/>
        <pt x="117" y="7" on="0"/>
        <pt x="96" y="0" on="0"/>
        <pt x="76" y="-5" on="0"/>
        <pt x="70" y="-5" on="1"/>
        <pt x="57" y="-5" on="0"/>
        <pt x="40" y="35" on="0"/>
        <pt x="40" y="62" on="1"/>
        <pt x="40" y="80" on="0"/>
        <pt x="54" y="112" on="0"/>
        <pt x="76" y="137" on="0"/>
        <pt x="106" y="151" on="0"/>
        <pt x="123" y="151" on="1"/>
        <pt x="142" y="151" on="0"/>
        <pt x="173" y="136" on="0"/>
        <pt x="196" y="112" on="0"/>
        <pt x="208" y="80" on="0"/>
      </contour>
    </TTGlyph>
    <TTGlyph name="d" xMin="42" yMin="-12" xMax="479" yMax="643">
      <contour>
        <pt x="373" y="0" on="1"/>
        <pt x="373" y="58" on="1"/>
        <pt x="347" y="26" on="0"/>
        <pt x="284" y="-12" on="0"/>
        <pt x="248" y="-12" on="1"/>
        <pt x="201" y="-12" on="0"/>
        <pt x="125" y="24" on="0"/>
        <pt x="71" y="86" on="0"/>
        <pt x="42" y="168" on="0"/>
        <pt x="42" y="215" on="1"/>
        <pt x="42" y="266" on="0"/>
        <pt x="67" y="355" on="0"/>
        <pt x="115" y="420" on="0"/>
        <pt x="187" y="457" on="0"/>
        <pt x="234" y="457" on="1"/>
        <pt x="279" y="457" on="0"/>
        <pt x="346" y="431" on="0"/>
        <pt x="373" y="399" on="1"/>
        <pt x="373" y="643" on="1"/>
        <pt x="479" y="643" on="1"/>
        <pt x="479" y="0" on="1"/>
      </contour>
      <contour>
        <pt x="373" y="220" on="1"/>
        <pt x="373" y="298" on="0"/>
        <pt x="315" y="389" on="0"/>
        <pt x="261" y="389" on="1"/>
        <pt x="229" y="389" on="0"/>
        <pt x="185" y="356" on="0"/>
        <pt x="159" y="305" on="0"/>
        <pt x="148" y="246" on="0"/>
        <pt x="148" y="219" on="1"/>
        <pt x="148" y="190" on="0"/>
        <pt x="162" y="134" on="0"/>
        <pt x="190" y="90" on="0"/>
        <pt x="233" y="62" on="0"/>
        <pt x="262" y="62" on="1"/>
        <pt x="292" y="62" on="0"/>
        <pt x="334" y="93" on="0"/>
        <pt x="361" y="140" on="0"/>
        <pt x="373" y="196" on="0"/>
      </contour>
    </TTGlyph>
    <TTGlyph name="dollar" xMin="27" yMin="-92" xMax="479" yMax="708">
      <contour>
        <pt x="479" y="182" on="1"/>
        <pt x="479" y="136" on="0"/>
        <pt x="444" y="67" on="0"/>
        <pt x="387" y="19" on="0"/>
        <pt x="315" y="-8" on="0"/>
        <pt x="277" y="-12" on="1"/>
        <pt x="277" y="-92" on="1"/>
        <pt x="231" y="-92" on="1"/>
        <pt x="231" y="-13" on="1"/>
        <pt x="134" y="-5" on="0"/>
        <pt x="27" y="103" on="0"/>
        <pt x="27" y="197" on="1"/>
        <pt x="137" y="197" on="1"/>
        <pt x="137" y="146" on="0"/>
        <pt x="180" y="86" on="0"/>
        <pt x="231" y="82" on="1"/>
        <pt x="231" y="279" on="1"/>
        <pt x="191" y="291" on="0"/>
        <pt x="122" y="316" on="0"/>
        <pt x="71" y="354" on="0"/>
        <pt x="41" y="413" on="0"/>
        <pt x="41" y="459" on="1"/>
        <pt x="41" y="500" on="0"/>
        <pt x="72" y="569" on="0"/>
        <pt x="124" y="620" on="0"/>
        <pt x="193" y="648" on="0"/>
        <pt x="231" y="648" on="1"/>
        <pt x="231" y="708" on="1"/>
        <pt x="277" y="708" on="1"/>
        <pt x="277" y="649" on="1"/>
        <pt x="318" y="649" on="0"/>
        <pt x="385" y="621" on="0"/>
        <pt x="433" y="572" on="0"/>
        <pt x="459" y="504" on="0"/>
        <pt x="459" y="464" on="1"/>
        <pt x="349" y="464" on="1"/>
        <pt x="349" y="509" on="0"/>
        <pt x="315" y="552" on="0"/>
        <pt x="277" y="557" on="1"/>
        <pt x="277" y="372" on="1"/>
        <pt x="312" y="362" on="0"/>
        <pt x="384" y="339" on="0"/>
        <pt x="442" y="299" on="0"/>
        <pt x="479" y="234" on="0"/>
      </contour>
      <contour>
        <pt x="231" y="555" on="1"/>
        <pt x="182" y="548" on="0"/>
        <pt x="149" y="502" on="0"/>
        <pt x="149" y="468" on="1"/>
        <pt x="149" y="451" on="0"/>
        <pt x="159" y="426" on="0"/>
        <pt x="180" y="408" on="0"/>
        <pt x="211" y="393" on="0"/>
        <pt x="231" y="386" on="1"/>
      </contour>
      <contour>
        <pt x="371" y="172" on="1"/>
        <pt x="371" y="214" on="0"/>
        <pt x="322" y="254" on="0"/>
        <pt x="277" y="269" on="1"/>
        <pt x="277" y="83" on="1"/>
        <pt x="317" y="87" on="0"/>
        <pt x="371" y="128" on="0"/>
      </contour>
    </TTGlyph>
    <TTGlyph name="e" xMin="42" yMin="-12" xMax="452" yMax="457">
      <contour>
        <pt x="445" y="139" on="1"/>
        <pt x="437" y="71" on="0"/>
        <pt x="341" y="-12" on="0"/>
        <pt x="246" y="-12" on="1"/>
        <pt x="189" y="-12" on="0"/>
        <pt x="111" y="27" on="0"/>
        <pt x="63" y="92" on="0"/>
        <pt x="42" y="176" on="0"/>
        <pt x="42" y="221" on="1"/>
        <pt x="42" y="269" on="0"/>
        <pt x="67" y="355" on="0"/>
        <pt x="118" y="420" on="0"/>
        <pt x="198" y="457" on="0"/>
        <pt x="253" y="457" on="1"/>
        <pt x="311" y="457" on="0"/>
        <pt x="388" y="417" on="0"/>
        <pt x="433" y="354" on="0"/>
        <pt x="452" y="276" on="0"/>
        <pt x="452" y="239" on="1"/>
        <pt x="452" y="229" on="0"/>
        <pt x="451" y="211" on="0"/>
        <pt x="450" y="202" on="1"/>
        <pt x="152" y="202" on="1"/>
        <pt x="152" y="170" on="0"/>
        <pt x="161" y="116" on="0"/>
        <pt x="183" y="78" on="0"/>
        <pt x="220" y="57" on="0"/>
        <pt x="249" y="57" on="1"/>
        <pt x="291" y="57" on="0"/>
        <pt x="331" y="104" on="0"/>
        <pt x="336" y="139" on="1"/>
      </contour>
      <contour>
        <pt x="339" y="272" on="1"/>
        <pt x="341" y="325" on="0"/>
        <pt x="298" y="388" on="0"/>
        <pt x="247" y="388" on="1"/>
        <pt x="222" y="388" on="0"/>
        <pt x="187" y="370" on="0"/>
        <pt x="165" y="339" on="0"/>
        <pt x="153" y="296" on="0"/>
        <pt x="152" y="272" on="1"/>
      </contour>
    </TTGlyph>
    <TTGlyph name="eight" xMin="34" yMin="-12" xMax="473" yMax="655">
      <contour>
        <pt x="473" y="166" on="1"/>
        <pt x="473" y="116" on="0"/>
        <pt x="434" y="48" on="0"/>
        <pt x="372" y="6" on="0"/>
        <pt x="293" y="-12" on="0"/>
        <pt x="254" y="-12" on="1"/>
        <pt x="212" y="-12" on="0"/>
        <pt x="133" y="7" on="0"/>
        <pt x="72" y="49" on="0"/>
        <pt x="34" y="117" on="0"/>
        <pt x="34" y="166" on="1"/>
        <pt x="34" y="204" on="0"/>
        <pt x="55" y="263" on="0"/>
        <pt x="89" y="306" on="0"/>
        <pt x="132" y="334" on="0"/>
        <pt x="155" y="343" on="1"/>
        <pt x="134" y="351" on="0"/>
        <pt x="95" y="376" on="0"/>
        <pt x="65" y="412" on="0"/>
        <pt x="47" y="461" on="0"/>
        <pt x="47" y="493" on="1"/>
        <pt x="47" y="538" on="0"/>
        <pt x="84" y="600" on="0"/>
        <pt x="143" y="638" on="0"/>
        <pt x="217" y="655" on="0"/>
        <pt x="254" y="655" on="1"/>
        <pt x="291" y="655" on="0"/>
        <pt x="365" y="639" on="0"/>
        <pt x="423" y="601" on="0"/>
        <pt x="460" y="538" on="0"/>
        <pt x="460" y="490" on="1"/>
        <pt x="460" y="460" on="0"/>
        <pt x="440" y="412" on="0"/>
        <pt x="407" y="376" on="0"/>
        <pt x="366" y="351" on="0"/>
        <pt x="345" y="343" on="1"/>
        <pt x="367" y="336" on="0"/>
        <pt x="413" y="308" on="0"/>
        <pt x="450" y="265" on="0"/>
        <pt x="473" y="205" on="0"/>
      </contour>
      <contour>
        <pt x="344" y="477" on="1"/>
        <pt x="344" y="519" on="0"/>
        <pt x="295" y="568" on="0"/>
        <pt x="254" y="568" on="1"/>
        <pt x="212" y="568" on="0"/>
        <pt x="163" y="519" on="0"/>
        <pt x="163" y="477" on="1"/>
        <pt x="163" y="434" on="0"/>
        <pt x="215" y="386" on="0"/>
        <pt x="254" y="386" on="1"/>
        <pt x="292" y="386" on="0"/>
        <pt x="344" y="434" on="0"/>
      </contour>
      <contour>
        <pt x="358" y="187" on="1"/>
        <pt x="358" y="234" on="0"/>
        <pt x="305" y="297" on="0"/>
        <pt x="254" y="297" on="1"/>
        <pt x="204" y="297" on="0"/>
        <pt x="149" y="232" on="0"/>
        <pt x="149" y="187" on="1"/>
        <pt x="149" y="140" on="0"/>
        <pt x="203" y="75" on="0"/>
        <pt x="254" y="75" on="1"/>
        <pt x="306" y="75" on="0"/>
        <pt x="358" y="142" on="0"/>
      </contour>
    </TTGlyph>
    <TTGlyph name="emdash" xMin="0" yMin="174" xMax="842" yMax="267">
      <contour>
        <pt x="0" y="174" on="1"/>
        <pt x="0" y="267" on="1"/>
        <pt x="842" y="267" on="1"/>
        <pt x="842" y="174" on="1"/>
      </contour>
    </TTGlyph>
    <TTGlyph name="endash" xMin="0" yMin="174" xMax="475" yMax="267">
      <contour>
        <pt x="0" y="174" on="1"/>
        <pt x="0" y="267" on="1"/>
        <pt x="475" y="267" on="1"/>
        <pt x="475" y="174" on="1"/>
      </contour>
    </TTGlyph>
    <TTGlyph name="equal" xMin="35" yMin="78" xMax="550" yMax="367">
      <contour>
        <pt x="550" y="78" on="1"/>
        <pt x="35" y="78" on="1"/>
        <pt x="35" y="171" on="1"/>
        <pt x="550" y="171" on="1"/>
      </contour>
      <contour>
        <pt x="550" y="275" on="1"/>
        <pt x="35" y="275" on="1"/>
        <pt x="35" y="367" on="1"/>
        <pt x="550" y="367" on="1"/>
      </contour>
    </TTGlyph>
    <TTGlyph name="exclam" xMin="56" yMin="-20" xMax="218" yMax="813">
      <contour>
        <pt x="218" y="59" on="1"/>
        <pt x="218" y="42" on="0"/>
        <pt x="205" y="14" on="0"/>
        <pt x="182" y="-8" on="0"/>
        <pt x="153" y="-20" on="0"/>
        <pt x="137" y="-20" on="1"/>
        <pt x="104" y="-20" on="0"/>
        <pt x="56" y="26" on="0"/>
        <pt x="56" y="59" on="1"/>
        <pt x="56" y="91" on="0"/>
        <pt x="104" y="137" on="0"/>
        <pt x="137" y="137" on="1"/>
        <pt x="153" y="137" on="0"/>
        <pt x="182" y="125" on="0"/>
        <pt x="205" y="104" on="0"/>
        <pt x="218" y="75" on="0"/>
      </contour>
      <contour>
        <pt x="137" y="813" on="1"/>
        <pt x="160" y="813" on="0"/>
        <pt x="186" y="779" on="0"/>
        <pt x="188" y="753" on="1"/>
        <pt x="191" y="718" on="0"/>
        <pt x="191" y="670" on="1"/>
        <pt x="191" y="555" on="0"/>
        <pt x="176" y="342" on="0"/>
        <pt x="165" y="267" on="1"/>
        <pt x="160" y="228" on="0"/>
        <pt x="151" y="200" on="0"/>
        <pt x="137" y="200" on="1"/>
        <pt x="123" y="200" on="0"/>
        <pt x="113" y="228" on="0"/>
        <pt x="108" y="268" on="1"/>
        <pt x="103" y="305" on="0"/>
        <pt x="94" y="397" on="0"/>
        <pt x="87" y="501" on="0"/>
        <pt x="83" y="613" on="0"/>
        <pt x="83" y="670" on="1"/>
        <pt x="83" y="718" on="0"/>
        <pt x="86" y="753" on="1"/>
        <pt x="88" y="779" on="0"/>
        <pt x="114" y="813" on="0"/>
      </contour>
    </TTGlyph>
    <TTGlyph name="f" xMin="9" yMin="0" xMax="309" yMax="654">
      <contour>
        <pt x="309" y="567" on="1"/>
        <pt x="297" y="573" on="0"/>
        <pt x="273" y="580" on="0"/>
        <pt x="259" y="580" on="1"/>
        <pt x="224" y="580" on="0"/>
        <pt x="199" y="546" on="0"/>
        <pt x="199" y="510" on="1"/>
        <pt x="199" y="445" on="1"/>
        <pt x="297" y="445" on="1"/>
        <pt x="297" y="375" on="1"/>
        <pt x="199" y="375" on="1"/>
        <pt x="199" y="0" on="1"/>
        <pt x="91" y="0" on="1"/>
        <pt x="91" y="375" on="1"/>
        <pt x="9" y="375" on="1"/>
        <pt x="9" y="445" on="1"/>
        <pt x="91" y="445" on="1"/>
        <pt x="91" y="513" on="1"/>
        <pt x="91" y="592" on="0"/>
        <pt x="159" y="654" on="0"/>
        <pt x="227" y="654" on="1"/>
        <pt x="268" y="654" on="0"/>
        <pt x="309" y="640" on="1"/>
        <pt x="309" y="567" on="1"/>
      </contour>
    </TTGlyph>
    <TTGlyph name="five" xMin="38" yMin="-12" xMax="468" yMax="643">
      <contour>
        <pt x="468" y="221" on="1"/>
        <pt x="468" y="173" on="0"/>
        <pt x="434" y="88" on="0"/>
        <pt x="375" y="25" on="0"/>
        <pt x="294" y="-12" on="0"/>
        <pt x="247" y="-12" on="1"/>
        <pt x="155" y="-12" on="0"/>
        <pt x="42" y="76" on="0"/>
        <pt x="38" y="161" on="1"/>
        <pt x="150" y="161" on="1"/>
        <pt x="150" y="118" on="0"/>
        <pt x="198" y="76" on="0"/>
        <pt x="243" y="76" on="1"/>
        <pt x="269" y="76" on="0"/>
        <pt x="310" y="98" on="0"/>
        <pt x="339" y="135" on="0"/>
        <pt x="354" y="186" on="0"/>
        <pt x="354" y="215" on="1"/>
        <pt x="354" y="275" on="0"/>
        <pt x="308" y="339" on="0"/>
        <pt x="257" y="339" on="1"/>
        <pt x="216" y="339" on="0"/>
        <pt x="169" y="300" on="0"/>
        <pt x="150" y="262" on="1"/>
        <pt x="48" y="262" on="1"/>
        <pt x="64" y="643" on="1"/>
        <pt x="430" y="643" on="1"/>
        <pt x="430" y="550" on="1"/>
        <pt x="171" y="550" on="1"/>
        <pt x="161" y="371" on="1"/>
        <pt x="182" y="397" on="0"/>
        <pt x="243" y="422" on="0"/>
        <pt x="291" y="422" on="1"/>
        <pt x="333" y="422" on="0"/>
        <pt x="398" y="388" on="0"/>
        <pt x="444" y="333" on="0"/>
        <pt x="468" y="260" on="0"/>
      </contour>
    </TTGlyph>
    <TTGlyph name="four" xMin="21" yMin="0" xMax="485" yMax="643">
      <contour>
        <pt x="404" y="146" on="1"/>
        <pt x="404" y="0" on="1"/>
        <pt x="297" y="0" on="1"/>
        <pt x="297" y="146" on="1"/>
        <pt x="21" y="146" on="1"/>
        <pt x="21" y="254" on="1"/>
        <pt x="269" y="643" on="1"/>
        <pt x="404" y="643" on="1"/>
        <pt x="404" y="239" on="1"/>
        <pt x="485" y="239" on="1"/>
        <pt x="485" y="146" on="1"/>
      </contour>
      <contour>
        <pt x="297" y="531" on="1"/>
        <pt x="118" y="239" on="1"/>
        <pt x="297" y="239" on="1"/>
      </contour>
    </TTGlyph>
    <TTGlyph name="g" xMin="42" yMin="-177" xMax="479" yMax="457">
      <contour>
        <pt x="479" y="11" on="1"/>
        <pt x="479" y="-77" on="0"/>
        <pt x="366" y="-177" on="0"/>
        <pt x="260" y="-177" on="1"/>
        <pt x="201" y="-177" on="0"/>
        <pt x="125" y="-151" on="0"/>
        <pt x="82" y="-112" on="0"/>
        <pt x="65" y="-64" on="0"/>
        <pt x="65" y="-43" on="1"/>
        <pt x="172" y="-43" on="1"/>
        <pt x="172" y="-74" on="0"/>
        <pt x="225" y="-108" on="0"/>
        <pt x="266" y="-108" on="1"/>
        <pt x="297" y="-108" on="0"/>
        <pt x="338" y="-90" on="0"/>
        <pt x="362" y="-47" on="0"/>
        <pt x="372" y="24" on="0"/>
        <pt x="372" y="77" on="1"/>
        <pt x="346" y="42" on="0"/>
        <pt x="279" y="5" on="0"/>
        <pt x="244" y="5" on="1"/>
        <pt x="147" y="5" on="0"/>
        <pt x="42" y="122" on="0"/>
        <pt x="42" y="223" on="1"/>
        <pt x="42" y="277" on="0"/>
        <pt x="69" y="363" on="0"/>
        <pt x="120" y="424" on="0"/>
        <pt x="191" y="457" on="0"/>
        <pt x="235" y="457" on="1"/>
        <pt x="283" y="457" on="0"/>
        <pt x="347" y="430" on="0"/>
        <pt x="372" y="402" on="1"/>
        <pt x="372" y="445" on="1"/>
        <pt x="479" y="445" on="1"/>
      </contour>
      <contour>
        <pt x="373" y="225" on="1"/>
        <pt x="373" y="303" on="0"/>
        <pt x="319" y="388" on="0"/>
        <pt x="262" y="388" on="1"/>
        <pt x="229" y="388" on="0"/>
        <pt x="185" y="357" on="0"/>
        <pt x="159" y="309" on="0"/>
        <pt x="148" y="251" on="0"/>
        <pt x="148" y="223" on="1"/>
        <pt x="148" y="193" on="0"/>
        <pt x="161" y="140" on="0"/>
        <pt x="189" y="101" on="0"/>
        <pt x="232" y="78" on="0"/>
        <pt x="261" y="78" on="1"/>
        <pt x="291" y="78" on="0"/>
        <pt x="334" y="105" on="0"/>
        <pt x="361" y="147" on="0"/>
        <pt x="373" y="199" on="0"/>
      </contour>
    </TTGlyph>
    <TTGlyph name="grave" xMin="-23" yMin="534" xMax="169" yMax="692">
      <contour>
        <pt x="109" y="534" on="1"/>
        <pt x="-23" y="692" on="1"/>
        <pt x="85" y="692" on="1"/>
        <pt x="169" y="534" on="1"/>
      </contour>
    </TTGlyph>
    <TTGlyph name="greater" xMin="178" yMin="34" xMax="712" yMax="499">
      <contour>
        <pt x="712" y="238" on="1"/>
        <pt x="178" y="34" on="1"/>
        <pt x="178" y="110" on="1"/>
        <pt x="600" y="267" on="1"/>
        <pt x="178" y="424" on="1"/>
        <pt x="178" y="499" on="1"/>
        <pt x="712" y="295" on="1"/>
      </contour>
    </TTGlyph>
    <TTGlyph name="h" xMin="59" yMin="0" xMax="465" yMax="643">
      <contour>
        <pt x="357" y="0" on="1"/>
        <pt x="357" y="271" on="1"/>
        <pt x="357" y="332" on="0"/>
        <pt x="312" y="390" on="0"/>
        <pt x="273" y="390" on="1"/>
        <pt x="247" y="390" on="0"/>
        <pt x="207" y="367" on="0"/>
        <pt x="180" y="332" on="0"/>
        <pt x="166" y="291" on="0"/>
        <pt x="166" y="273" on="1"/>
        <pt x="166" y="0" on="1"/>
        <pt x="59" y="0" on="1"/>
        <pt x="59" y="643" on="1"/>
        <pt x="166" y="643" on="1"/>
        <pt x="166" y="395" on="1"/>
        <pt x="189" y="426" on="0"/>
        <pt x="258" y="457" on="0"/>
        <pt x="310" y="457" on="1"/>
        <pt x="391" y="457" on="0"/>
        <pt x="465" y="369" on="0"/>
        <pt x="465" y="294" on="1"/>
        <pt x="465" y="0" on="1"/>
      </contour>
    </TTGlyph>
    <TTGlyph name="hyphen" xMin="55" yMin="174" xMax="447" yMax="267">
      <contour>
        <pt x="447" y="174" on="1"/>
        <pt x="55" y="174" on="1"/>
        <pt x="55" y="267" on="1"/>
        <pt x="447" y="267" on="1"/>
      </contour>
    </TTGlyph>
    <TTGlyph name="i" xMin="51" yMin="0" xMax="173" yMax="643">
      <contour>
        <pt x="51" y="538" on="1"/>
        <pt x="51" y="643" on="1"/>
        <pt x="173" y="643" on="1"/>
        <pt x="173" y="538" on="1"/>
      </contour>
      <contour>
        <pt x="59" y="0" on="1"/>
        <pt x="59" y="445" on="1"/>
        <pt x="166" y="445" on="1"/>
        <pt x="166" y="0" on="1"/>
      </contour>
    </TTGlyph>
    <TTGlyph name="j" xMin="-21" yMin="-188" xMax="241" yMax="643">
      <contour>
        <pt x="212" y="538" on="1"/>
        <pt x="121" y="566" on="1"/>
        <pt x="149" y="643" on="1"/>
        <pt x="241" y="615" on="1"/>
      </contour>
      <contour>
        <pt x="235" y="-72" on="1"/>
        <pt x="235" y="-122" on="0"/>
        <pt x="168" y="-188" on="0"/>
        <pt x="105" y="-188" on="1"/>
        <pt x="74" y="-188" on="0"/>
        <pt x="4" y="-166" on="0"/>
        <pt x="-21" y="-143" on="1"/>
        <pt x="32" y="-76" on="1"/>
        <pt x="55" y="-99" on="0"/>
        <pt x="83" y="-99" on="1"/>
        <pt x="104" y="-99" on="0"/>
        <pt x="127" y="-71" on="0"/>
        <pt x="127" y="-45" on="1"/>
        <pt x="127" y="445" on="1"/>
        <pt x="235" y="445" on="1"/>
      </contour>
    </TTGlyph>
    <TTGlyph name="k" xMin="59" yMin="0" xMax="460" yMax="643">
      <contour>
        <pt x="326" y="0" on="1"/>
        <pt x="166" y="234" on="1"/>
        <pt x="166" y="0" on="1"/>
        <pt x="59" y="0" on="1"/>
        <pt x="59" y="643" on="1"/>
        <pt x="166" y="643" on="1"/>
        <pt x="166" y="265" on="1"/>
        <pt x="316" y="445" on="1"/>
        <pt x="445" y="445" on="1"/>
        <pt x="278" y="253" on="1"/>
        <pt x="460" y="0" on="1"/>
      </contour>
    </TTGlyph>
    <TTGlyph name="l" xMin="59" yMin="0" xMax="166" yMax="643">
      <contour>
        <pt x="59" y="0" on="1"/>
        <pt x="59" y="643" on="1"/>
        <pt x="166" y="643" on="1"/>
        <pt x="166" y="0" on="1"/>
      </contour>
    </TTGlyph>
    <TTGlyph name="less" xMin="178" yMin="34" xMax="712" yMax="499">
      <contour>
        <pt x="712" y="34" on="1"/>
        <pt x="178" y="238" on="1"/>
        <pt x="178" y="295" on="1"/>
        <pt x="712" y="499" on="1"/>
        <pt x="712" y="424" on="1"/>
        <pt x="290" y="267" on="1"/>
        <pt x="712" y="110" on="1"/>
      </contour>
    </TTGlyph>
    <TTGlyph name="m" xMin="59" yMin="0" xMax="748" yMax="457">
      <contour>
        <pt x="641" y="0" on="1"/>
        <pt x="641" y="286" on="1"/>
        <pt x="641" y="330" on="0"/>
        <pt x="596" y="388" on="0"/>
        <pt x="557" y="388" on="1"/>
        <pt x="536" y="388" on="0"/>
        <pt x="500" y="367" on="0"/>
        <pt x="473" y="334" on="0"/>
        <pt x="458" y="293" on="0"/>
        <pt x="458" y="272" on="1"/>
        <pt x="458" y="0" on="1"/>
        <pt x="351" y="0" on="1"/>
        <pt x="351" y="286" on="1"/>
        <pt x="351" y="306" on="0"/>
        <pt x="339" y="343" on="0"/>
        <pt x="318" y="371" on="0"/>
        <pt x="287" y="388" on="0"/>
        <pt x="268" y="388" on="1"/>
        <pt x="244" y="388" on="0"/>
        <pt x="207" y="365" on="0"/>
        <pt x="180" y="330" on="0"/>
        <pt x="166" y="287" on="0"/>
        <pt x="166" y="268" on="1"/>
        <pt x="166" y="0" on="1"/>
        <pt x="59" y="0" on="1"/>
        <pt x="59" y="445" on="1"/>
        <pt x="166" y="445" on="1"/>
        <pt x="166" y="383" on="1"/>
        <pt x="192" y="421" on="0"/>
        <pt x="257" y="457" on="0"/>
        <pt x="303" y="457" on="1"/>
        <pt x="358" y="457" on="0"/>
        <pt x="421" y="421" on="0"/>
        <pt x="444" y="376" on="1"/>
        <pt x="460" y="399" on="0"/>
        <pt x="493" y="430" on="0"/>
        <pt x="528" y="449" on="0"/>
        <pt x="568" y="457" on="0"/>
        <pt x="592" y="457" on="1"/>
        <pt x="635" y="457" on="0"/>
        <pt x="695" y="430" on="0"/>
        <pt x="732" y="384" on="0"/>
        <pt x="748" y="324" on="0"/>
        <pt x="748" y="291" on="1"/>
        <pt x="748" y="0" on="1"/>
      </contour>
    </TTGlyph>
    <TTGlyph name="multiply" xMin="94" yMin="52" xMax="438" yMax="396">
      <contour>
        <pt x="371" y="52" on="1"/>
        <pt x="266" y="158" on="1"/>
        <pt x="160" y="52" on="1"/>
        <pt x="94" y="117" on="1"/>
        <pt x="200" y="224" on="1"/>
        <pt x="95" y="329" on="1"/>
        <pt x="159" y="395" on="1"/>
        <pt x="266" y="289" on="1"/>
        <pt x="372" y="396" on="1"/>
        <pt x="438" y="330" on="1"/>
        <pt x="332" y="224" on="1"/>
        <pt x="437" y="118" on="1"/>
      </contour>
    </TTGlyph>
    <TTGlyph name="n" xMin="51" yMin="0" xMax="457" yMax="457">
      <contour>
        <pt x="350" y="0" on="1"/>
        <pt x="350" y="277" on="1"/>
        <pt x="350" y="331" on="0"/>
        <pt x="302" y="391" on="0"/>
        <pt x="260" y="391" on="1"/>
        <pt x="215" y="391" on="0"/>
        <pt x="158" y="319" on="0"/>
        <pt x="158" y="259" on="1"/>
        <pt x="158" y="0" on="1"/>
        <pt x="51" y="0" on="1"/>
        <pt x="51" y="445" on="1"/>
        <pt x="158" y="445" on="1"/>
        <pt x="158" y="389" on="1"/>
        <pt x="182" y="426" on="0"/>
        <pt x="246" y="457" on="0"/>
        <pt x="300" y="457" on="1"/>
        <pt x="380" y="457" on="0"/>
        <pt x="457" y="371" on="0"/>
        <pt x="457" y="299" on="1"/>
        <pt x="457" y="0" on="1"/>
      </contour>
    </TTGlyph>
    <TTGlyph name="nine" xMin="34" yMin="-13" xMax="473" yMax="655">
      <contour>
        <pt x="473" y="345" on="1"/>
        <pt x="473" y="283" on="0"/>
        <pt x="453" y="156" on="0"/>
        <pt x="401" y="53" on="0"/>
        <pt x="310" y="-13" on="0"/>
        <pt x="240" y="-13" on="1"/>
        <pt x="201" y="-13" on="0"/>
        <pt x="133" y="11" on="0"/>
        <pt x="81" y="56" on="0"/>
        <pt x="49" y="119" on="0"/>
        <pt x="47" y="158" on="1"/>
        <pt x="159" y="158" on="1"/>
        <pt x="161" y="116" on="0"/>
        <pt x="204" y="75" on="0"/>
        <pt x="239" y="75" on="1"/>
        <pt x="277" y="75" on="0"/>
        <pt x="325" y="129" on="0"/>
        <pt x="352" y="205" on="0"/>
        <pt x="361" y="286" on="0"/>
        <pt x="361" y="314" on="1"/>
        <pt x="339" y="277" on="0"/>
        <pt x="264" y="236" on="0"/>
        <pt x="213" y="236" on="1"/>
        <pt x="161" y="236" on="0"/>
        <pt x="92" y="275" on="0"/>
        <pt x="51" y="335" on="0"/>
        <pt x="34" y="404" on="0"/>
        <pt x="34" y="434" on="1"/>
        <pt x="34" y="473" on="0"/>
        <pt x="57" y="551" on="0"/>
        <pt x="109" y="615" on="0"/>
        <pt x="192" y="655" on="0"/>
        <pt x="251" y="655" on="1"/>
        <pt x="321" y="655" on="0"/>
        <pt x="408" y="604" on="0"/>
        <pt x="456" y="519" on="0"/>
        <pt x="473" y="406" on="0"/>
      </contour>
      <contour>
        <pt x="343" y="443" on="1"/>
        <pt x="343" y="504" on="0"/>
        <pt x="297" y="568" on="0"/>
        <pt x="246" y="568" on="1"/>
        <pt x="195" y="568" on="0"/>
        <pt x="150" y="504" on="0"/>
        <pt x="150" y="443" on="1"/>
        <pt x="150" y="381" on="0"/>
        <pt x="195" y="318" on="0"/>
        <pt x="246" y="318" on="1"/>
        <pt x="297" y="318" on="0"/>
        <pt x="343" y="381" on="0"/>
      </contour>
    </TTGlyph>
    <TTGlyph name="notequal" xMin="37" yMin="-68" xMax="562" yMax="502">
      <contour>
        <pt x="243" y="88" on="1"/>
        <pt x="105" y="-68" on="1"/>
        <pt x="37" y="-5" on="1"/>
        <pt x="119" y="88" on="1"/>
        <pt x="47" y="88" on="1"/>
        <pt x="47" y="180" on="1"/>
        <pt x="202" y="180" on="1"/>
        <pt x="277" y="265" on="1"/>
        <pt x="47" y="265" on="1"/>
        <pt x="47" y="357" on="1"/>
        <pt x="358" y="357" on="1"/>
        <pt x="486" y="502" on="1"/>
        <pt x="555" y="439" on="1"/>
        <pt x="482" y="357" on="1"/>
        <pt x="562" y="357" on="1"/>
        <pt x="562" y="265" on="1"/>
        <pt x="400" y="265" on="1"/>
        <pt x="325" y="180" on="1"/>
        <pt x="562" y="180" on="1"/>
        <pt x="562" y="88" on="1"/>
      </contour>
    </TTGlyph>
    <TTGlyph name="numbersign" xMin="55" yMin="-25" xMax="499" yMax="485">
      <contour>
        <pt x="394" y="88" on="1"/>
        <pt x="380" y="-25" on="1"/>
        <pt x="287" y="-25" on="1"/>
        <pt x="302" y="88" on="1"/>
        <pt x="217" y="88" on="1"/>
        <pt x="203" y="-25" on="1"/>
        <pt x="110" y="-25" on="1"/>
        <pt x="125" y="88" on="1"/>
        <pt x="55" y="88" on="1"/>
        <pt x="55" y="180" on="1"/>
        <pt x="137" y="180" on="1"/>
        <pt x="147" y="265" on="1"/>
        <pt x="55" y="265" on="1"/>
        <pt x="55" y="357" on="1"/>
        <pt x="159" y="357" on="1"/>
        <pt x="177" y="485" on="1"/>
        <pt x="269" y="485" on="1"/>
        <pt x="252" y="357" on="1"/>
        <pt x="336" y="357" on="1"/>
        <pt x="354" y="485" on="1"/>
        <pt x="446" y="485" on="1"/>
        <pt x="429" y="357" on="1"/>
        <pt x="499" y="357" on="1"/>
        <pt x="499" y="265" on="1"/>
        <pt x="417" y="265" on="1"/>
        <pt x="406" y="180" on="1"/>
        <pt x="499" y="180" on="1"/>
        <pt x="499" y="88" on="1"/>
      </contour>
      <contour>
        <pt x="240" y="265" on="1"/>
        <pt x="229" y="180" on="1"/>
        <pt x="314" y="180" on="1"/>
        <pt x="324" y="265" on="1"/>
      </contour>
    </TTGlyph>
    <TTGlyph name="o" xMin="42" yMin="-12" xMax="494" yMax="457">
      <contour>
        <pt x="494" y="222" on="1"/>
        <pt x="494" y="168" on="0"/>
        <pt x="460" y="81" on="0"/>
        <pt x="399" y="20" on="0"/>
        <pt x="316" y="-12" on="0"/>
        <pt x="268" y="-12" on="1"/>
        <pt x="218" y="-12" on="0"/>
        <pt x="135" y="21" on="0"/>
        <pt x="75" y="83" on="0"/>
        <pt x="42" y="169" on="0"/>
        <pt x="42" y="222" on="1"/>
        <pt x="42" y="276" on="0"/>
        <pt x="76" y="363" on="0"/>
        <pt x="136" y="424" on="0"/>
        <pt x="219" y="457" on="0"/>
        <pt x="268" y="457" on="1"/>
        <pt x="318" y="457" on="0"/>
        <pt x="401" y="423" on="0"/>
        <pt x="461" y="362" on="0"/>
        <pt x="494" y="275" on="0"/>
      </contour>
      <contour>
        <pt x="385" y="222" on="1"/>
        <pt x="385" y="297" on="0"/>
        <pt x="328" y="387" on="0"/>
        <pt x="268" y="387" on="1"/>
        <pt x="238" y="387" on="0"/>
        <pt x="193" y="362" on="0"/>
        <pt x="164" y="318" on="0"/>
        <pt x="149" y="258" on="0"/>
        <pt x="149" y="222" on="1"/>
        <pt x="149" y="186" on="0"/>
        <pt x="164" y="126" on="0"/>
        <pt x="193" y="83" on="0"/>
        <pt x="238" y="58" on="0"/>
        <pt x="268" y="58" on="1"/>
        <pt x="328" y="58" on="0"/>
        <pt x="385" y="148" on="0"/>
      </contour>
    </TTGlyph>
    <TTGlyph name="one" xMin="97" yMin="0" xMax="353" yMax="643">
      <contour>
        <pt x="246" y="0" on="1"/>
        <pt x="246" y="523" on="1"/>
        <pt x="180" y="466" on="0"/>
        <pt x="97" y="443" on="1"/>
        <pt x="97" y="540" on="1"/>
        <pt x="144" y="557" on="0"/>
        <pt x="220" y="610" on="0"/>
        <pt x="249" y="643" on="1"/>
        <pt x="353" y="643" on="1"/>
        <pt x="353" y="0" on="1"/>
      </contour>
    </TTGlyph>
    <TTGlyph name="p" xMin="59" yMin="-177" xMax="501" yMax="457">
      <contour>
        <pt x="501" y="227" on="1"/>
        <pt x="501" y="173" on="0"/>
        <pt x="475" y="84" on="0"/>
        <pt x="424" y="21" on="0"/>
        <pt x="349" y="-13" on="0"/>
        <pt x="300" y="-13" on="1"/>
        <pt x="255" y="-13" on="0"/>
        <pt x="196" y="14" on="0"/>
        <pt x="166" y="42" on="1"/>
        <pt x="166" y="-177" on="1"/>
        <pt x="59" y="-177" on="1"/>
        <pt x="59" y="445" on="1"/>
        <pt x="166" y="445" on="1"/>
        <pt x="166" y="385" on="1"/>
        <pt x="195" y="420" on="0"/>
        <pt x="257" y="457" on="0"/>
        <pt x="295" y="457" on="1"/>
        <pt x="347" y="457" on="0"/>
        <pt x="424" y="421" on="0"/>
        <pt x="475" y="359" on="0"/>
        <pt x="501" y="275" on="0"/>
      </contour>
      <contour>
        <pt x="392" y="227" on="1"/>
        <pt x="392" y="255" on="0"/>
        <pt x="379" y="312" on="0"/>
        <pt x="352" y="357" on="0"/>
        <pt x="309" y="385" on="0"/>
        <pt x="278" y="385" on="1"/>
        <pt x="246" y="385" on="0"/>
        <pt x="203" y="355" on="0"/>
        <pt x="177" y="308" on="0"/>
        <pt x="165" y="251" on="0"/>
        <pt x="165" y="224" on="1"/>
        <pt x="165" y="146" on="0"/>
        <pt x="218" y="57" on="0"/>
        <pt x="275" y="57" on="1"/>
        <pt x="308" y="57" on="0"/>
        <pt x="353" y="89" on="0"/>
        <pt x="380" y="139" on="0"/>
        <pt x="392" y="199" on="0"/>
      </contour>
    </TTGlyph>
    <TTGlyph name="parenleft" xMin="74" yMin="-464" xMax="395" yMax="917">
      <contour>
        <pt x="289" y="-464" on="1"/>
        <pt x="172" y="-318" on="0"/>
        <pt x="74" y="21" on="0"/>
        <pt x="74" y="220" on="1"/>
        <pt x="74" y="422" on="0"/>
        <pt x="182" y="762" on="0"/>
        <pt x="292" y="917" on="1"/>
        <pt x="395" y="917" on="1"/>
        <pt x="166" y="598" on="0"/>
        <pt x="166" y="220" on="1"/>
        <pt x="166" y="31" on="0"/>
        <pt x="276" y="-316" on="0"/>
        <pt x="395" y="-464" on="1"/>
      </contour>
    </TTGlyph>
    <TTGlyph name="parenright" xMin="45" yMin="-460" xMax="367" yMax="921">
      <contour>
        <pt x="367" y="224" on="1"/>
        <pt x="367" y="25" on="0"/>
        <pt x="269" y="-315" on="0"/>
        <pt x="152" y="-460" on="1"/>
        <pt x="45" y="-460" on="1"/>
        <pt x="166" y="-313" on="0"/>
        <pt x="275" y="37" on="0"/>
        <pt x="275" y="224" on="1"/>
        <pt x="275" y="414" on="0"/>
        <pt x="162" y="760" on="0"/>
        <pt x="45" y="921" on="1"/>
        <pt x="149" y="921" on="1"/>
        <pt x="258" y="766" on="0"/>
        <pt x="367" y="426" on="0"/>
      </contour>
    </TTGlyph>
    <TTGlyph name="percent" xMin="51" yMin="-69" xMax="689" yMax="497">
      <contour>
        <pt x="226" y="-69" on="1"/>
        <pt x="155" y="-9" on="1"/>
        <pt x="511" y="497" on="1"/>
        <pt x="586" y="441" on="1"/>
      </contour>
      <contour>
        <pt x="316" y="346" on="1"/>
        <pt x="316" y="320" on="0"/>
        <pt x="295" y="273" on="0"/>
        <pt x="259" y="236" on="0"/>
        <pt x="211" y="214" on="0"/>
        <pt x="185" y="214" on="1"/>
        <pt x="158" y="214" on="0"/>
        <pt x="109" y="236" on="0"/>
        <pt x="72" y="273" on="0"/>
        <pt x="51" y="320" on="0"/>
        <pt x="51" y="346" on="1"/>
        <pt x="51" y="373" on="0"/>
        <pt x="72" y="422" on="0"/>
        <pt x="109" y="459" on="0"/>
        <pt x="158" y="481" on="0"/>
        <pt x="185" y="481" on="1"/>
        <pt x="211" y="481" on="0"/>
        <pt x="259" y="459" on="0"/>
        <pt x="295" y="422" on="0"/>
        <pt x="316" y="373" on="0"/>
      </contour>
      <contour>
        <pt x="689" y="84" on="1"/>
        <pt x="689" y="58" on="0"/>
        <pt x="668" y="10" on="0"/>
        <pt x="632" y="-27" on="0"/>
        <pt x="584" y="-49" on="0"/>
        <pt x="558" y="-49" on="1"/>
        <pt x="531" y="-49" on="0"/>
        <pt x="483" y="-27" on="0"/>
        <pt x="446" y="10" on="0"/>
        <pt x="425" y="58" on="0"/>
        <pt x="425" y="84" on="1"/>
        <pt x="425" y="111" on="0"/>
        <pt x="446" y="160" on="0"/>
        <pt x="483" y="196" on="0"/>
        <pt x="531" y="218" on="0"/>
        <pt x="558" y="218" on="1"/>
        <pt x="584" y="218" on="0"/>
        <pt x="632" y="196" on="0"/>
        <pt x="668" y="160" on="0"/>
        <pt x="689" y="111" on="0"/>
      </contour>
      <contour>
        <pt x="238" y="346" on="1"/>
        <pt x="238" y="369" on="0"/>
        <pt x="205" y="403" on="0"/>
        <pt x="185" y="403" on="1"/>
        <pt x="161" y="403" on="0"/>
        <pt x="128" y="369" on="0"/>
        <pt x="128" y="346" on="1"/>
        <pt x="128" y="323" on="0"/>
        <pt x="161" y="290" on="0"/>
        <pt x="185" y="290" on="1"/>
        <pt x="205" y="290" on="0"/>
        <pt x="238" y="323" on="0"/>
      </contour>
      <contour>
        <pt x="612" y="84" on="1"/>
        <pt x="612" y="106" on="0"/>
        <pt x="579" y="141" on="0"/>
        <pt x="558" y="141" on="1"/>
        <pt x="534" y="141" on="0"/>
        <pt x="502" y="106" on="0"/>
        <pt x="502" y="84" on="1"/>
        <pt x="502" y="61" on="0"/>
        <pt x="534" y="27" on="0"/>
        <pt x="558" y="27" on="1"/>
        <pt x="579" y="27" on="0"/>
        <pt x="612" y="61" on="0"/>
      </contour>
    </TTGlyph>
    <TTGlyph name="period" xMin="40" yMin="-20" xMax="203" yMax="137">
      <contour>
        <pt x="203" y="59" on="1"/>
        <pt x="203" y="42" on="0"/>
        <pt x="189" y="14" on="0"/>
        <pt x="167" y="-8" on="0"/>
        <pt x="137" y="-20" on="0"/>
        <pt x="122" y="-20" on="1"/>
        <pt x="106" y="-20" on="0"/>
        <pt x="76" y="-8" on="0"/>
        <pt x="54" y="14" on="0"/>
        <pt x="40" y="42" on="0"/>
        <pt x="40" y="59" on="1"/>
        <pt x="40" y="75" on="0"/>
        <pt x="54" y="104" on="0"/>
        <pt x="76" y="125" on="0"/>
        <pt x="106" y="137" on="0"/>
        <pt x="122" y="137" on="1"/>
        <pt x="137" y="137" on="0"/>
        <pt x="167" y="125" on="0"/>
        <pt x="189" y="104" on="0"/>
        <pt x="203" y="75" on="0"/>
      </contour>
    </TTGlyph>
    <TTGlyph name="plus" xMin="93" yMin="28" xMax="485" yMax="422">
      <contour>
        <pt x="485" y="178" on="1"/>
        <pt x="335" y="178" on="1"/>
        <pt x="335" y="28" on="1"/>
        <pt x="243" y="28" on="1"/>
        <pt x="243" y="178" on="1"/>
        <pt x="93" y="178" on="1"/>
        <pt x="93" y="271" on="1"/>
        <pt x="243" y="271" on="1"/>
        <pt x="243" y="422" on="1"/>
        <pt x="335" y="422" on="1"/>
        <pt x="335" y="271" on="1"/>
        <pt x="485" y="271" on="1"/>
      </contour>
    </TTGlyph>
    <TTGlyph name="q" xMin="42" yMin="-177" xMax="482" yMax="457">
      <contour>
        <pt x="375" y="-177" on="1"/>
        <pt x="375" y="42" on="1"/>
        <pt x="359" y="28" on="0"/>
        <pt x="330" y="7" on="0"/>
        <pt x="299" y="-6" on="0"/>
        <pt x="263" y="-13" on="0"/>
        <pt x="241" y="-13" on="1"/>
        <pt x="192" y="-13" on="0"/>
        <pt x="118" y="21" on="0"/>
        <pt x="68" y="84" on="0"/>
        <pt x="42" y="173" on="0"/>
        <pt x="42" y="227" on="1"/>
        <pt x="42" y="276" on="0"/>
        <pt x="67" y="360" on="0"/>
        <pt x="118" y="422" on="0"/>
        <pt x="195" y="457" on="0"/>
        <pt x="247" y="457" on="1"/>
        <pt x="289" y="457" on="0"/>
        <pt x="350" y="420" on="0"/>
        <pt x="375" y="385" on="1"/>
        <pt x="375" y="445" on="1"/>
        <pt x="482" y="445" on="1"/>
        <pt x="482" y="-177" on="1"/>
      </contour>
      <contour>
        <pt x="376" y="224" on="1"/>
        <pt x="376" y="252" on="0"/>
        <pt x="364" y="309" on="0"/>
        <pt x="337" y="355" on="0"/>
        <pt x="294" y="385" on="0"/>
        <pt x="264" y="385" on="1"/>
        <pt x="232" y="385" on="0"/>
        <pt x="188" y="356" on="0"/>
        <pt x="161" y="310" on="0"/>
        <pt x="149" y="254" on="0"/>
        <pt x="149" y="227" on="1"/>
        <pt x="149" y="197" on="0"/>
        <pt x="161" y="137" on="0"/>
        <pt x="189" y="88" on="0"/>
        <pt x="234" y="57" on="0"/>
        <pt x="267" y="57" on="1"/>
        <pt x="324" y="57" on="0"/>
        <pt x="376" y="146" on="0"/>
      </contour>
    </TTGlyph>
    <TTGlyph name="question" xMin="20" yMin="-7" xMax="392" yMax="773">
      <contour>
        <pt x="269" y="57" on="1"/>
        <pt x="269" y="30" on="0"/>
        <pt x="231" y="-7" on="0"/>
        <pt x="205" y="-7" on="1"/>
        <pt x="179" y="-7" on="0"/>
        <pt x="143" y="32" on="0"/>
        <pt x="143" y="57" on="1"/>
        <pt x="143" y="83" on="0"/>
        <pt x="179" y="118" on="0"/>
        <pt x="205" y="118" on="1"/>
        <pt x="231" y="118" on="0"/>
        <pt x="269" y="83" on="0"/>
      </contour>
      <contour>
        <pt x="392" y="584" on="1"/>
        <pt x="392" y="545" on="0"/>
        <pt x="371" y="494" on="0"/>
        <pt x="340" y="459" on="0"/>
        <pt x="304" y="432" on="0"/>
        <pt x="273" y="405" on="0"/>
        <pt x="252" y="371" on="0"/>
        <pt x="252" y="346" on="1"/>
        <pt x="252" y="200" on="1"/>
        <pt x="159" y="200" on="1"/>
        <pt x="159" y="362" on="1"/>
        <pt x="159" y="393" on="0"/>
        <pt x="180" y="435" on="0"/>
        <pt x="211" y="466" on="0"/>
        <pt x="248" y="492" on="0"/>
        <pt x="279" y="521" on="0"/>
        <pt x="300" y="558" on="0"/>
        <pt x="300" y="584" on="1"/>
        <pt x="300" y="602" on="0"/>
        <pt x="284" y="636" on="0"/>
        <pt x="258" y="663" on="0"/>
        <pt x="224" y="679" on="0"/>
        <pt x="206" y="679" on="1"/>
        <pt x="185" y="679" on="0"/>
        <pt x="151" y="661" on="0"/>
        <pt x="126" y="632" on="0"/>
        <pt x="112" y="596" on="0"/>
        <pt x="112" y="578" on="1"/>
        <pt x="112" y="555" on="1"/>
        <pt x="20" y="555" on="1"/>
        <pt x="20" y="578" on="1"/>
        <pt x="20" y="607" on="0"/>
        <pt x="44" y="675" on="0"/>
        <pt x="91" y="734" on="0"/>
        <pt x="160" y="773" on="0"/>
        <pt x="206" y="773" on="1"/>
        <pt x="249" y="773" on="0"/>
        <pt x="318" y="740" on="0"/>
        <pt x="366" y="687" on="0"/>
        <pt x="392" y="619" on="0"/>
      </contour>
    </TTGlyph>
    <TTGlyph name="quotedbl" xMin="62" yMin="385" xMax="380" yMax="643">
      <contour>
        <pt x="358" y="385" on="1"/>
        <pt x="282" y="385" on="1"/>
        <pt x="260" y="643" on="1"/>
        <pt x="380" y="643" on="1"/>
      </contour>
      <contour>
        <pt x="159" y="385" on="1"/>
        <pt x="84" y="385" on="1"/>
        <pt x="62" y="643" on="1"/>
        <pt x="182" y="643" on="1"/>
      </contour>
    </TTGlyph>
    <TTGlyph name="quotedblleft" xMin="50" yMin="578" xMax="462" yMax="876">
      <contour>
        <pt x="218" y="666" on="1"/>
        <pt x="218" y="648" on="0"/>
        <pt x="205" y="616" on="0"/>
        <pt x="182" y="592" on="0"/>
        <pt x="152" y="578" on="0"/>
        <pt x="136" y="578" on="1"/>
        <pt x="98" y="578" on="0"/>
        <pt x="50" y="631" on="0"/>
        <pt x="50" y="666" on="1"/>
        <pt x="50" y="701" on="0"/>
        <pt x="70" y="766" on="0"/>
        <pt x="102" y="822" on="0"/>
        <pt x="142" y="864" on="0"/>
        <pt x="163" y="876" on="1"/>
        <pt x="183" y="861" on="1"/>
        <pt x="157" y="841" on="0"/>
        <pt x="117" y="773" on="0"/>
        <pt x="117" y="731" on="1"/>
        <pt x="117" y="723" on="0"/>
        <pt x="118" y="714" on="0"/>
        <pt x="119" y="711" on="1"/>
        <pt x="125" y="714" on="0"/>
        <pt x="145" y="722" on="0"/>
        <pt x="166" y="728" on="0"/>
        <pt x="185" y="733" on="0"/>
        <pt x="190" y="733" on="1"/>
        <pt x="205" y="729" on="0"/>
        <pt x="218" y="691" on="0"/>
      </contour>
      <contour>
        <pt x="462" y="666" on="1"/>
        <pt x="462" y="648" on="0"/>
        <pt x="448" y="616" on="0"/>
        <pt x="425" y="592" on="0"/>
        <pt x="396" y="578" on="0"/>
        <pt x="380" y="578" on="1"/>
        <pt x="360" y="578" on="0"/>
        <pt x="328" y="593" on="0"/>
        <pt x="306" y="617" on="0"/>
        <pt x="293" y="649" on="0"/>
        <pt x="293" y="666" on="1"/>
        <pt x="293" y="701" on="0"/>
        <pt x="313" y="766" on="0"/>
        <pt x="345" y="822" on="0"/>
        <pt x="386" y="864" on="0"/>
        <pt x="407" y="876" on="1"/>
        <pt x="426" y="861" on="1"/>
        <pt x="401" y="842" on="0"/>
        <pt x="360" y="773" on="0"/>
        <pt x="360" y="731" on="1"/>
        <pt x="360" y="717" on="0"/>
        <pt x="363" y="711" on="1"/>
        <pt x="369" y="714" on="0"/>
        <pt x="388" y="722" on="0"/>
        <pt x="409" y="728" on="0"/>
        <pt x="427" y="733" on="0"/>
        <pt x="433" y="733" on="1"/>
        <pt x="449" y="729" on="0"/>
        <pt x="462" y="691" on="0"/>
      </contour>
    </TTGlyph>
    <TTGlyph name="quotedblright" xMin="40" yMin="578" xMax="452" yMax="876">
      <contour>
        <pt x="452" y="788" on="1"/>
        <pt x="452" y="753" on="0"/>
        <pt x="432" y="687" on="0"/>
        <pt x="400" y="632" on="0"/>
        <pt x="360" y="590" on="0"/>
        <pt x="339" y="578" on="1"/>
        <pt x="320" y="593" on="1"/>
        <pt x="344" y="611" on="0"/>
        <pt x="385" y="681" on="0"/>
        <pt x="385" y="723" on="1"/>
        <pt x="385" y="739" on="0"/>
        <pt x="383" y="743" on="1"/>
        <pt x="377" y="740" on="0"/>
        <pt x="357" y="732" on="0"/>
        <pt x="336" y="726" on="0"/>
        <pt x="318" y="721" on="0"/>
        <pt x="312" y="721" on="1"/>
        <pt x="297" y="725" on="0"/>
        <pt x="284" y="763" on="0"/>
        <pt x="284" y="788" on="1"/>
        <pt x="284" y="806" on="0"/>
        <pt x="298" y="838" on="0"/>
        <pt x="320" y="862" on="0"/>
        <pt x="350" y="876" on="0"/>
        <pt x="367" y="876" on="1"/>
        <pt x="405" y="876" on="0"/>
        <pt x="452" y="823" on="0"/>
      </contour>
      <contour>
        <pt x="208" y="788" on="1"/>
        <pt x="208" y="753" on="0"/>
        <pt x="188" y="687" on="0"/>
        <pt x="157" y="632" on="0"/>
        <pt x="116" y="590" on="0"/>
        <pt x="95" y="578" on="1"/>
        <pt x="77" y="593" on="1"/>
        <pt x="101" y="611" on="0"/>
        <pt x="141" y="681" on="0"/>
        <pt x="141" y="723" on="1"/>
        <pt x="141" y="739" on="0"/>
        <pt x="140" y="743" on="1"/>
        <pt x="134" y="740" on="0"/>
        <pt x="114" y="732" on="0"/>
        <pt x="94" y="726" on="0"/>
        <pt x="75" y="721" on="0"/>
        <pt x="70" y="721" on="1"/>
        <pt x="53" y="725" on="0"/>
        <pt x="40" y="763" on="0"/>
        <pt x="40" y="788" on="1"/>
        <pt x="40" y="806" on="0"/>
        <pt x="54" y="838" on="0"/>
        <pt x="76" y="862" on="0"/>
        <pt x="106" y="876" on="0"/>
        <pt x="123" y="876" on="1"/>
        <pt x="142" y="876" on="0"/>
        <pt x="173" y="861" on="0"/>
        <pt x="196" y="837" on="0"/>
        <pt x="208" y="805" on="0"/>
      </contour>
    </TTGlyph>
    <TTGlyph name="quoteleft" xMin="50" yMin="578" xMax="218" yMax="876">
      <contour>
        <pt x="218" y="666" on="1"/>
        <pt x="218" y="648" on="0"/>
        <pt x="205" y="616" on="0"/>
        <pt x="182" y="592" on="0"/>
        <pt x="152" y="578" on="0"/>
        <pt x="136" y="578" on="1"/>
        <pt x="98" y="578" on="0"/>
        <pt x="50" y="631" on="0"/>
        <pt x="50" y="666" on="1"/>
        <pt x="50" y="701" on="0"/>
        <pt x="70" y="766" on="0"/>
        <pt x="102" y="822" on="0"/>
        <pt x="142" y="864" on="0"/>
        <pt x="163" y="876" on="1"/>
        <pt x="183" y="860" on="1"/>
        <pt x="157" y="842" on="0"/>
        <pt x="117" y="773" on="0"/>
        <pt x="117" y="731" on="1"/>
        <pt x="117" y="723" on="0"/>
        <pt x="118" y="714" on="0"/>
        <pt x="119" y="711" on="1"/>
        <pt x="125" y="714" on="0"/>
        <pt x="145" y="722" on="0"/>
        <pt x="166" y="728" on="0"/>
        <pt x="185" y="733" on="0"/>
        <pt x="190" y="733" on="1"/>
        <pt x="205" y="729" on="0"/>
        <pt x="218" y="690" on="0"/>
      </contour>
    </TTGlyph>
    <TTGlyph name="quoteright" xMin="40" yMin="578" xMax="208" yMax="876">
      <contour>
        <pt x="208" y="788" on="1"/>
        <pt x="208" y="753" on="0"/>
        <pt x="188" y="687" on="0"/>
        <pt x="157" y="632" on="0"/>
        <pt x="116" y="590" on="0"/>
        <pt x="95" y="578" on="1"/>
        <pt x="77" y="593" on="1"/>
        <pt x="101" y="611" on="0"/>
        <pt x="141" y="681" on="0"/>
        <pt x="141" y="723" on="1"/>
        <pt x="141" y="739" on="0"/>
        <pt x="140" y="743" on="1"/>
        <pt x="134" y="740" on="0"/>
        <pt x="114" y="732" on="0"/>
        <pt x="94" y="726" on="0"/>
        <pt x="75" y="721" on="0"/>
        <pt x="70" y="721" on="1"/>
        <pt x="53" y="725" on="0"/>
        <pt x="40" y="763" on="0"/>
        <pt x="40" y="788" on="1"/>
        <pt x="40" y="806" on="0"/>
        <pt x="54" y="838" on="0"/>
        <pt x="76" y="862" on="0"/>
        <pt x="106" y="876" on="0"/>
        <pt x="123" y="876" on="1"/>
        <pt x="142" y="876" on="0"/>
        <pt x="173" y="861" on="0"/>
        <pt x="196" y="837" on="0"/>
        <pt x="208" y="805" on="0"/>
      </contour>
    </TTGlyph>
    <TTGlyph name="quotesingle" xMin="116" yMin="385" xMax="236" yMax="643">
      <contour>
        <pt x="214" y="385" on="1"/>
        <pt x="138" y="385" on="1"/>
        <pt x="116" y="643" on="1"/>
        <pt x="236" y="643" on="1"/>
      </contour>
    </TTGlyph>
    <TTGlyph name="r" xMin="59" yMin="0" xMax="322" yMax="453">
      <contour>
        <pt x="322" y="361" on="1"/>
        <pt x="242" y="361" on="0"/>
        <pt x="166" y="297" on="0"/>
        <pt x="166" y="235" on="1"/>
        <pt x="166" y="0" on="1"/>
        <pt x="59" y="0" on="1"/>
        <pt x="59" y="445" on="1"/>
        <pt x="166" y="445" on="1"/>
        <pt x="166" y="379" on="1"/>
        <pt x="176" y="399" on="0"/>
        <pt x="201" y="427" on="0"/>
        <pt x="236" y="445" on="0"/>
        <pt x="286" y="453" on="0"/>
        <pt x="322" y="453" on="1"/>
        <pt x="322" y="361" on="1"/>
      </contour>
    </TTGlyph>
    <TTGlyph name="s" xMin="42" yMin="-12" xMax="416" yMax="457">
      <contour>
        <pt x="416" y="136" on="1"/>
        <pt x="416" y="95" on="0"/>
        <pt x="382" y="39" on="0"/>
        <pt x="327" y="4" on="0"/>
        <pt x="256" y="-12" on="0"/>
        <pt x="220" y="-12" on="1"/>
        <pt x="182" y="-12" on="0"/>
        <pt x="117" y="4" on="0"/>
        <pt x="69" y="39" on="0"/>
        <pt x="42" y="95" on="0"/>
        <pt x="42" y="135" on="1"/>
        <pt x="148" y="135" on="1"/>
        <pt x="150" y="91" on="0"/>
        <pt x="191" y="57" on="0"/>
        <pt x="231" y="57" on="1"/>
        <pt x="262" y="57" on="0"/>
        <pt x="312" y="92" on="0"/>
        <pt x="312" y="123" on="1"/>
        <pt x="312" y="148" on="0"/>
        <pt x="273" y="174" on="0"/>
        <pt x="216" y="191" on="0"/>
        <pt x="148" y="205" on="0"/>
        <pt x="91" y="234" on="0"/>
        <pt x="52" y="284" on="0"/>
        <pt x="52" y="327" on="1"/>
        <pt x="52" y="354" on="0"/>
        <pt x="75" y="401" on="0"/>
        <pt x="120" y="436" on="0"/>
        <pt x="186" y="457" on="0"/>
        <pt x="229" y="457" on="1"/>
        <pt x="313" y="457" on="0"/>
        <pt x="405" y="393" on="0"/>
        <pt x="405" y="318" on="1"/>
        <pt x="298" y="318" on="1"/>
        <pt x="297" y="350" on="0"/>
        <pt x="269" y="388" on="0"/>
        <pt x="224" y="388" on="1"/>
        <pt x="195" y="388" on="0"/>
        <pt x="157" y="354" on="0"/>
        <pt x="157" y="331" on="1"/>
        <pt x="157" y="309" on="0"/>
        <pt x="195" y="287" on="0"/>
        <pt x="253" y="272" on="0"/>
        <pt x="320" y="257" on="0"/>
        <pt x="378" y="228" on="0"/>
        <pt x="416" y="178" on="0"/>
      </contour>
    </TTGlyph>
    <TTGlyph name="semicolon" xMin="40" yMin="-131" xMax="203" yMax="464">
      <contour>
        <pt x="203" y="385" on="1"/>
        <pt x="203" y="369" on="0"/>
        <pt x="189" y="340" on="0"/>
        <pt x="167" y="318" on="0"/>
        <pt x="137" y="305" on="0"/>
        <pt x="122" y="305" on="1"/>
        <pt x="106" y="305" on="0"/>
        <pt x="76" y="318" on="0"/>
        <pt x="54" y="340" on="0"/>
        <pt x="40" y="369" on="0"/>
        <pt x="40" y="385" on="1"/>
        <pt x="40" y="401" on="0"/>
        <pt x="54" y="430" on="0"/>
        <pt x="76" y="451" on="0"/>
        <pt x="106" y="464" on="0"/>
        <pt x="122" y="464" on="1"/>
        <pt x="137" y="464" on="0"/>
        <pt x="167" y="451" on="0"/>
        <pt x="189" y="430" on="0"/>
        <pt x="203" y="401" on="0"/>
      </contour>
      <contour>
        <pt x="198" y="55" on="1"/>
        <pt x="198" y="25" on="0"/>
        <pt x="180" y="-31" on="0"/>
        <pt x="151" y="-80" on="0"/>
        <pt x="114" y="-119" on="0"/>
        <pt x="96" y="-131" on="1"/>
        <pt x="79" y="-117" on="1"/>
        <pt x="100" y="-100" on="0"/>
        <pt x="136" y="-37" on="0"/>
        <pt x="136" y="1" on="1"/>
        <pt x="136" y="4" on="0"/>
        <pt x="136" y="12" on="0"/>
        <pt x="135" y="15" on="1"/>
        <pt x="127" y="12" on="0"/>
        <pt x="108" y="4" on="0"/>
        <pt x="88" y="-2" on="0"/>
        <pt x="72" y="-6" on="0"/>
        <pt x="68" y="-6" on="1"/>
        <pt x="61" y="-6" on="0"/>
        <pt x="40" y="25" on="0"/>
        <pt x="40" y="58" on="1"/>
        <pt x="40" y="74" on="0"/>
        <pt x="53" y="103" on="0"/>
        <pt x="74" y="125" on="0"/>
        <pt x="102" y="139" on="0"/>
        <pt x="117" y="139" on="1"/>
        <pt x="135" y="139" on="0"/>
        <pt x="165" y="125" on="0"/>
        <pt x="186" y="101" on="0"/>
        <pt x="198" y="71" on="0"/>
      </contour>
    </TTGlyph>
    <TTGlyph name="seven" xMin="44" yMin="0" xMax="463" yMax="643">
      <contour>
        <pt x="248" y="0" on="1"/>
        <pt x="117" y="0" on="1"/>
        <pt x="356" y="551" on="1"/>
        <pt x="44" y="551" on="1"/>
        <pt x="44" y="643" on="1"/>
        <pt x="463" y="643" on="1"/>
        <pt x="463" y="531" on="1"/>
      </contour>
    </TTGlyph>
    <TTGlyph name="six" xMin="34" yMin="-13" xMax="473" yMax="655">
      <contour>
        <pt x="473" y="209" on="1"/>
        <pt x="473" y="172" on="0"/>
        <pt x="450" y="93" on="0"/>
        <pt x="399" y="29" on="0"/>
        <pt x="316" y="-13" on="0"/>
        <pt x="255" y="-13" on="1"/>
        <pt x="187" y="-13" on="0"/>
        <pt x="101" y="35" on="0"/>
        <pt x="52" y="119" on="0"/>
        <pt x="34" y="232" on="0"/>
        <pt x="34" y="297" on="1"/>
        <pt x="34" y="359" on="0"/>
        <pt x="52" y="486" on="0"/>
        <pt x="103" y="590" on="0"/>
        <pt x="194" y="655" on="0"/>
        <pt x="266" y="655" on="1"/>
        <pt x="348" y="655" on="0"/>
        <pt x="450" y="565" on="0"/>
        <pt x="458" y="485" on="1"/>
        <pt x="347" y="485" on="1"/>
        <pt x="345" y="525" on="0"/>
        <pt x="302" y="568" on="0"/>
        <pt x="268" y="568" on="1"/>
        <pt x="229" y="568" on="0"/>
        <pt x="181" y="513" on="0"/>
        <pt x="155" y="436" on="0"/>
        <pt x="146" y="354" on="0"/>
        <pt x="146" y="328" on="1"/>
        <pt x="158" y="345" on="0"/>
        <pt x="183" y="374" on="0"/>
        <pt x="217" y="395" on="0"/>
        <pt x="262" y="407" on="0"/>
        <pt x="293" y="407" on="1"/>
        <pt x="342" y="407" on="0"/>
        <pt x="410" y="370" on="0"/>
        <pt x="453" y="312" on="0"/>
        <pt x="473" y="242" on="0"/>
      </contour>
      <contour>
        <pt x="356" y="200" on="1"/>
        <pt x="356" y="262" on="0"/>
        <pt x="310" y="324" on="0"/>
        <pt x="260" y="324" on="1"/>
        <pt x="209" y="324" on="0"/>
        <pt x="163" y="262" on="0"/>
        <pt x="163" y="200" on="1"/>
        <pt x="163" y="138" on="0"/>
        <pt x="209" y="75" on="0"/>
        <pt x="260" y="75" on="1"/>
        <pt x="310" y="75" on="0"/>
        <pt x="356" y="138" on="0"/>
      </contour>
    </TTGlyph>
    <TTGlyph name="slash" xMin="55" yMin="-254" xMax="481" yMax="825">
      <contour>
        <pt x="127" y="-254" on="1"/>
        <pt x="55" y="-182" on="1"/>
        <pt x="409" y="825" on="1"/>
        <pt x="481" y="757" on="1"/>
      </contour>
    </TTGlyph>
    <TTGlyph name="t" xMin="26" yMin="-11" xMax="329" yMax="574">
      <contour>
        <pt x="329" y="3" on="1"/>
        <pt x="291" y="-11" on="0"/>
        <pt x="245" y="-11" on="1"/>
        <pt x="217" y="-11" on="0"/>
        <pt x="169" y="4" on="0"/>
        <pt x="133" y="34" on="0"/>
        <pt x="112" y="80" on="0"/>
        <pt x="112" y="111" on="1"/>
        <pt x="112" y="375" on="1"/>
        <pt x="26" y="375" on="1"/>
        <pt x="26" y="445" on="1"/>
        <pt x="112" y="445" on="1"/>
        <pt x="112" y="521" on="1"/>
        <pt x="219" y="574" on="1"/>
        <pt x="219" y="445" on="1"/>
        <pt x="323" y="445" on="1"/>
        <pt x="323" y="375" on="1"/>
        <pt x="219" y="375" on="1"/>
        <pt x="219" y="134" on="1"/>
        <pt x="219" y="96" on="0"/>
        <pt x="251" y="64" on="0"/>
        <pt x="282" y="64" on="1"/>
        <pt x="305" y="64" on="0"/>
        <pt x="329" y="72" on="1"/>
        <pt x="329" y="3" on="1"/>
      </contour>
    </TTGlyph>
    <TTGlyph name="three" xMin="41" yMin="-13" xMax="465" yMax="655">
      <contour>
        <pt x="465" y="178" on="1"/>
        <pt x="465" y="136" on="0"/>
        <pt x="430" y="66" on="0"/>
        <pt x="371" y="15" on="0"/>
        <pt x="294" y="-13" on="0"/>
        <pt x="253" y="-13" on="1"/>
        <pt x="145" y="-13" on="0"/>
        <pt x="41" y="91" on="0"/>
        <pt x="41" y="177" on="1"/>
        <pt x="157" y="177" on="1"/>
        <pt x="159" y="135" on="0"/>
        <pt x="203" y="75" on="0"/>
        <pt x="248" y="75" on="1"/>
        <pt x="292" y="75" on="0"/>
        <pt x="351" y="133" on="0"/>
        <pt x="351" y="182" on="1"/>
        <pt x="351" y="217" on="0"/>
        <pt x="332" y="260" on="0"/>
        <pt x="294" y="283" on="0"/>
        <pt x="238" y="291" on="0"/>
        <pt x="201" y="291" on="1"/>
        <pt x="201" y="379" on="1"/>
        <pt x="234" y="379" on="0"/>
        <pt x="285" y="388" on="0"/>
        <pt x="320" y="410" on="0"/>
        <pt x="338" y="447" on="0"/>
        <pt x="338" y="475" on="1"/>
        <pt x="338" y="523" on="0"/>
        <pt x="285" y="568" on="0"/>
        <pt x="250" y="568" on="1"/>
        <pt x="210" y="568" on="0"/>
        <pt x="162" y="519" on="0"/>
        <pt x="159" y="474" on="1"/>
        <pt x="46" y="474" on="1"/>
        <pt x="50" y="560" on="0"/>
        <pt x="159" y="655" on="0"/>
        <pt x="252" y="655" on="1"/>
        <pt x="297" y="655" on="0"/>
        <pt x="370" y="628" on="0"/>
        <pt x="423" y="581" on="0"/>
        <pt x="451" y="515" on="0"/>
        <pt x="451" y="476" on="1"/>
        <pt x="451" y="446" on="0"/>
        <pt x="434" y="401" on="0"/>
        <pt x="406" y="368" on="0"/>
        <pt x="369" y="345" on="0"/>
        <pt x="349" y="336" on="1"/>
        <pt x="373" y="328" on="0"/>
        <pt x="415" y="304" on="0"/>
        <pt x="446" y="267" on="0"/>
        <pt x="465" y="215" on="0"/>
      </contour>
    </TTGlyph>
    <TTGlyph name="two" xMin="37" yMin="0" xMax="469" yMax="655">
      <contour>
        <pt x="37" y="0" on="1"/>
        <pt x="37" y="104" on="1"/>
        <pt x="143" y="184" on="0"/>
        <pt x="269" y="303" on="0"/>
        <pt x="335" y="390" on="0"/>
        <pt x="355" y="449" on="0"/>
        <pt x="355" y="469" on="1"/>
        <pt x="355" y="511" on="0"/>
        <pt x="311" y="565" on="0"/>
        <pt x="269" y="565" on="1"/>
        <pt x="226" y="565" on="0"/>
        <pt x="174" y="513" on="0"/>
        <pt x="172" y="467" on="1"/>
        <pt x="56" y="467" on="1"/>
        <pt x="57" y="510" on="0"/>
        <pt x="90" y="580" on="0"/>
        <pt x="147" y="629" on="0"/>
        <pt x="223" y="655" on="0"/>
        <pt x="267" y="655" on="1"/>
        <pt x="312" y="655" on="0"/>
        <pt x="387" y="628" on="0"/>
        <pt x="440" y="580" on="0"/>
        <pt x="469" y="515" on="0"/>
        <pt x="469" y="476" on="1"/>
        <pt x="469" y="441" on="0"/>
        <pt x="447" y="366" on="0"/>
        <pt x="382" y="274" on="0"/>
        <pt x="261" y="162" on="0"/>
        <pt x="162" y="91" on="1"/>
        <pt x="469" y="91" on="1"/>
        <pt x="469" y="0" on="1"/>
      </contour>
    </TTGlyph>
    <TTGlyph name="u" xMin="59" yMin="-12" xMax="465" yMax="445">
      <contour>
        <pt x="357" y="0" on="1"/>
        <pt x="357" y="59" on="1"/>
        <pt x="333" y="21" on="0"/>
        <pt x="270" y="-12" on="0"/>
        <pt x="216" y="-12" on="1"/>
        <pt x="138" y="-12" on="0"/>
        <pt x="59" y="70" on="0"/>
        <pt x="59" y="145" on="1"/>
        <pt x="59" y="445" on="1"/>
        <pt x="166" y="445" on="1"/>
        <pt x="166" y="168" on="1"/>
        <pt x="166" y="113" on="0"/>
        <pt x="214" y="54" on="0"/>
        <pt x="255" y="54" on="1"/>
        <pt x="303" y="54" on="0"/>
        <pt x="357" y="120" on="0"/>
        <pt x="357" y="183" on="1"/>
        <pt x="357" y="445" on="1"/>
        <pt x="465" y="445" on="1"/>
        <pt x="465" y="0" on="1"/>
      </contour>
    </TTGlyph>
    <TTGlyph name="u1000" xMin="55" yMin="-20" xMax="930" yMax="464">
      <contour>
        <pt x="930" y="222" on="1"/>
        <pt x="930" y="172" on="0"/>
        <pt x="892" y="84" on="0"/>
        <pt x="826" y="18" on="0"/>
        <pt x="739" y="-20" on="0"/>
        <pt x="690" y="-20" on="1"/>
        <pt x="680" y="-20" on="0"/>
        <pt x="636" y="-16" on="0"/>
        <pt x="619" y="-7" on="1"/>
        <pt x="656" y="78" on="1"/>
        <pt x="664" y="76" on="0"/>
        <pt x="680" y="72" on="0"/>
        <pt x="690" y="72" on="1"/>
        <pt x="721" y="72" on="0"/>
        <pt x="775" y="96" on="0"/>
        <pt x="815" y="137" on="0"/>
        <pt x="838" y="191" on="0"/>
        <pt x="838" y="222" on="1"/>
        <pt x="838" y="252" on="0"/>
        <pt x="815" y="307" on="0"/>
        <pt x="775" y="347" on="0"/>
        <pt x="721" y="371" on="0"/>
        <pt x="690" y="371" on="1"/>
        <pt x="660" y="371" on="0"/>
        <pt x="605" y="339" on="0"/>
        <pt x="563" y="289" on="0"/>
        <pt x="539" y="229" on="0"/>
        <pt x="539" y="202" on="1"/>
        <pt x="539" y="127" on="0"/>
        <pt x="497" y="22" on="0"/>
        <pt x="447" y="-20" on="1"/>
        <pt x="393" y="56" on="1"/>
        <pt x="407" y="72" on="0"/>
        <pt x="427" y="101" on="0"/>
        <pt x="440" y="136" on="0"/>
        <pt x="446" y="177" on="0"/>
        <pt x="446" y="205" on="1"/>
        <pt x="446" y="238" on="0"/>
        <pt x="425" y="297" on="0"/>
        <pt x="386" y="343" on="0"/>
        <pt x="331" y="370" on="0"/>
        <pt x="297" y="370" on="1"/>
        <pt x="263" y="370" on="0"/>
        <pt x="208" y="343" on="0"/>
        <pt x="169" y="297" on="0"/>
        <pt x="148" y="238" on="0"/>
        <pt x="148" y="205" on="1"/>
        <pt x="148" y="177" on="0"/>
        <pt x="154" y="136" on="0"/>
        <pt x="168" y="101" on="0"/>
        <pt x="187" y="72" on="0"/>
        <pt x="201" y="56" on="1"/>
        <pt x="148" y="-20" on="1"/>
        <pt x="97" y="22" on="0"/>
        <pt x="55" y="130" on="0"/>
        <pt x="55" y="205" on="1"/>
        <pt x="55" y="259" on="0"/>
        <pt x="92" y="353" on="0"/>
        <pt x="158" y="423" on="0"/>
        <pt x="246" y="463" on="0"/>
        <pt x="297" y="463" on="1"/>
        <pt x="361" y="463" on="0"/>
        <pt x="465" y="401" on="0"/>
        <pt x="496" y="349" on="1"/>
        <pt x="526" y="397" on="0"/>
        <pt x="626" y="464" on="0"/>
        <pt x="690" y="464" on="1"/>
        <pt x="739" y="464" on="0"/>
        <pt x="826" y="425" on="0"/>
        <pt x="892" y="359" on="0"/>
        <pt x="930" y="271" on="0"/>
      </contour>
    </TTGlyph>
    <TTGlyph name="u1000.kham" xMin="55" yMin="-20" xMax="930" yMax="464">
      <contour>
        <pt x="930" y="222" on="1"/>
        <pt x="930" y="172" on="0"/>
        <pt x="892" y="84" on="0"/>
        <pt x="826" y="18" on="0"/>
        <pt x="739" y="-20" on="0"/>
        <pt x="690" y="-20" on="1"/>
        <pt x="672" y="-20" on="0"/>
        <pt x="634" y="-14" on="0"/>
        <pt x="619" y="-7" on="1"/>
        <pt x="656" y="78" on="1"/>
        <pt x="671" y="72" on="0"/>
        <pt x="690" y="72" on="1"/>
        <pt x="721" y="72" on="0"/>
        <pt x="775" y="96" on="0"/>
        <pt x="815" y="137" on="0"/>
        <pt x="838" y="191" on="0"/>
        <pt x="838" y="222" on="1"/>
        <pt x="838" y="252" on="0"/>
        <pt x="815" y="307" on="0"/>
        <pt x="775" y="347" on="0"/>
        <pt x="721" y="371" on="0"/>
        <pt x="690" y="371" on="1"/>
        <pt x="660" y="371" on="0"/>
        <pt x="605" y="339" on="0"/>
        <pt x="563" y="289" on="0"/>
        <pt x="539" y="229" on="0"/>
        <pt x="539" y="202" on="1"/>
        <pt x="539" y="127" on="0"/>
        <pt x="497" y="22" on="0"/>
        <pt x="447" y="-20" on="1"/>
        <pt x="393" y="56" on="1"/>
        <pt x="407" y="72" on="0"/>
        <pt x="427" y="101" on="0"/>
        <pt x="440" y="136" on="0"/>
        <pt x="446" y="177" on="0"/>
        <pt x="446" y="205" on="1"/>
        <pt x="446" y="238" on="0"/>
        <pt x="423" y="297" on="0"/>
        <pt x="383" y="343" on="0"/>
        <pt x="329" y="370" on="0"/>
        <pt x="297" y="370" on="1"/>
        <pt x="267" y="370" on="0"/>
        <pt x="213" y="346" on="0"/>
        <pt x="172" y="302" on="0"/>
        <pt x="148" y="241" on="0"/>
        <pt x="148" y="205" on="1"/>
        <pt x="148" y="166" on="0"/>
        <pt x="155" y="139" on="1"/>
        <pt x="166" y="147" on="0"/>
        <pt x="181" y="147" on="1"/>
        <pt x="215" y="147" on="0"/>
        <pt x="265" y="98" on="0"/>
        <pt x="265" y="63" on="1"/>
        <pt x="265" y="29" on="0"/>
        <pt x="216" y="-20" on="0"/>
        <pt x="181" y="-20" on="1"/>
        <pt x="148" y="-20" on="0"/>
        <pt x="101" y="20" on="0"/>
        <pt x="70" y="84" on="0"/>
        <pt x="55" y="164" on="0"/>
        <pt x="55" y="205" on="1"/>
        <pt x="55" y="258" on="0"/>
        <pt x="92" y="352" on="0"/>
        <pt x="157" y="422" on="0"/>
        <pt x="246" y="463" on="0"/>
        <pt x="297" y="463" on="1"/>
        <pt x="361" y="463" on="0"/>
        <pt x="465" y="402" on="0"/>
        <pt x="496" y="349" on="1"/>
        <pt x="526" y="397" on="0"/>
        <pt x="626" y="464" on="0"/>
        <pt x="690" y="464" on="1"/>
        <pt x="739" y="464" on="0"/>
        <pt x="826" y="425" on="0"/>
        <pt x="892" y="359" on="0"/>
        <pt x="930" y="271" on="0"/>
      </contour>
    </TTGlyph>
    <TTGlyph name="u1000.med" xMin="-730" yMin="-464" xMax="-56" yMax="-91">
      <contour>
        <pt x="-56" y="-277" on="1"/>
        <pt x="-56" y="-316" on="0"/>
        <pt x="-85" y="-384" on="0"/>
        <pt x="-135" y="-435" on="0"/>
        <pt x="-202" y="-464" on="0"/>
        <pt x="-239" y="-464" on="1"/>
        <pt x="-274" y="-464" on="0"/>
        <pt x="-295" y="-453" on="1"/>
        <pt x="-266" y="-388" on="1"/>
        <pt x="-257" y="-393" on="0"/>
        <pt x="-239" y="-393" on="1"/>
        <pt x="-216" y="-393" on="0"/>
        <pt x="-175" y="-374" on="0"/>
        <pt x="-144" y="-342" on="0"/>
        <pt x="-126" y="-300" on="0"/>
        <pt x="-126" y="-277" on="1"/>
        <pt x="-126" y="-254" on="0"/>
        <pt x="-144" y="-212" on="0"/>
        <pt x="-175" y="-180" on="0"/>
        <pt x="-216" y="-161" on="0"/>
        <pt x="-239" y="-161" on="1"/>
        <pt x="-262" y="-161" on="0"/>
        <pt x="-304" y="-186" on="0"/>
        <pt x="-337" y="-224" on="0"/>
        <pt x="-356" y="-272" on="0"/>
        <pt x="-356" y="-294" on="1"/>
        <pt x="-356" y="-350" on="0"/>
        <pt x="-390" y="-432" on="0"/>
        <pt x="-428" y="-464" on="1"/>
        <pt x="-470" y="-404" on="1"/>
        <pt x="-459" y="-392" on="0"/>
        <pt x="-443" y="-369" on="0"/>
        <pt x="-433" y="-344" on="0"/>
        <pt x="-428" y="-312" on="0"/>
        <pt x="-428" y="-290" on="1"/>
        <pt x="-428" y="-264" on="0"/>
        <pt x="-445" y="-217" on="0"/>
        <pt x="-475" y="-182" on="0"/>
        <pt x="-517" y="-161" on="0"/>
        <pt x="-543" y="-161" on="1"/>
        <pt x="-569" y="-161" on="0"/>
        <pt x="-611" y="-182" on="0"/>
        <pt x="-641" y="-217" on="0"/>
        <pt x="-658" y="-264" on="0"/>
        <pt x="-658" y="-290" on="1"/>
        <pt x="-658" y="-333" on="0"/>
        <pt x="-638" y="-380" on="0"/>
        <pt x="-616" y="-404" on="1"/>
        <pt x="-658" y="-464" on="1"/>
        <pt x="-696" y="-431" on="0"/>
        <pt x="-730" y="-348" on="0"/>
        <pt x="-730" y="-290" on="1"/>
        <pt x="-730" y="-249" on="0"/>
        <pt x="-701" y="-176" on="0"/>
        <pt x="-651" y="-122" on="0"/>
        <pt x="-582" y="-91" on="0"/>
        <pt x="-543" y="-91" on="1"/>
        <pt x="-494" y="-91" on="0"/>
        <pt x="-414" y="-137" on="0"/>
        <pt x="-389" y="-179" on="1"/>
        <pt x="-366" y="-141" on="0"/>
        <pt x="-290" y="-91" on="0"/>
        <pt x="-239" y="-91" on="1"/>
        <pt x="-202" y="-91" on="0"/>
        <pt x="-135" y="-120" on="0"/>
        <pt x="-85" y="-171" on="0"/>
        <pt x="-56" y="-239" on="0"/>
      </contour>
    </TTGlyph>
    <TTGlyph name="u1000_u1001_u103B" xMin="55" yMin="-464" xMax="1099" yMax="464">
      <contour>
        <pt x="827" y="-395" on="1"/>
        <pt x="804" y="-420" on="0"/>
        <pt x="738" y="-448" on="0"/>
        <pt x="699" y="-448" on="1"/>
        <pt x="666" y="-448" on="0"/>
        <pt x="601" y="-425" on="0"/>
        <pt x="548" y="-385" on="0"/>
        <pt x="516" y="-332" on="0"/>
        <pt x="516" y="-303" on="1"/>
        <pt x="557" y="-270" on="0"/>
        <pt x="629" y="-248" on="0"/>
        <pt x="655" y="-248" on="1"/>
        <pt x="671" y="-248" on="0"/>
        <pt x="709" y="-257" on="0"/>
        <pt x="747" y="-274" on="0"/>
        <pt x="783" y="-299" on="0"/>
        <pt x="796" y="-315" on="1"/>
        <pt x="812" y="-293" on="0"/>
        <pt x="812" y="-262" on="1"/>
        <pt x="812" y="-247" on="0"/>
        <pt x="799" y="-208" on="0"/>
        <pt x="772" y="-173" on="0"/>
        <pt x="729" y="-148" on="0"/>
        <pt x="699" y="-148" on="1"/>
        <pt x="670" y="-148" on="0"/>
        <pt x="613" y="-174" on="0"/>
        <pt x="589" y="-211" on="1"/>
        <pt x="528" y="-177" on="1"/>
        <pt x="543" y="-147" on="0"/>
        <pt x="587" y="-107" on="0"/>
        <pt x="636" y="-84" on="0"/>
        <pt x="682" y="-75" on="0"/>
        <pt x="699" y="-75" on="1"/>
        <pt x="741" y="-75" on="0"/>
        <pt x="809" y="-108" on="0"/>
        <pt x="857" y="-161" on="0"/>
        <pt x="883" y="-228" on="0"/>
        <pt x="883" y="-262" on="1"/>
        <pt x="883" y="-287" on="0"/>
        <pt x="874" y="-311" on="1"/>
        <pt x="1006" y="-344" on="1"/>
        <pt x="1006" y="444" on="1"/>
        <pt x="1099" y="444" on="1"/>
        <pt x="1099" y="-464" on="1"/>
      </contour>
      <contour>
        <pt x="930" y="222" on="1"/>
        <pt x="930" y="172" on="0"/>
        <pt x="892" y="84" on="0"/>
        <pt x="826" y="18" on="0"/>
        <pt x="739" y="-20" on="0"/>
        <pt x="690" y="-20" on="1"/>
        <pt x="680" y="-20" on="0"/>
        <pt x="636" y="-15" on="0"/>
        <pt x="619" y="-7" on="1"/>
        <pt x="656" y="78" on="1"/>
        <pt x="664" y="76" on="0"/>
        <pt x="680" y="72" on="0"/>
        <pt x="690" y="72" on="1"/>
        <pt x="721" y="72" on="0"/>
        <pt x="775" y="96" on="0"/>
        <pt x="815" y="137" on="0"/>
        <pt x="838" y="191" on="0"/>
        <pt x="838" y="222" on="1"/>
        <pt x="838" y="252" on="0"/>
        <pt x="815" y="307" on="0"/>
        <pt x="775" y="347" on="0"/>
        <pt x="721" y="371" on="0"/>
        <pt x="690" y="371" on="1"/>
        <pt x="660" y="371" on="0"/>
        <pt x="605" y="339" on="0"/>
        <pt x="563" y="289" on="0"/>
        <pt x="539" y="229" on="0"/>
        <pt x="539" y="202" on="1"/>
        <pt x="538" y="128" on="0"/>
        <pt x="497" y="22" on="0"/>
        <pt x="447" y="-20" on="1"/>
        <pt x="393" y="56" on="1"/>
        <pt x="406" y="72" on="0"/>
        <pt x="426" y="101" on="0"/>
        <pt x="440" y="136" on="0"/>
        <pt x="446" y="177" on="0"/>
        <pt x="446" y="205" on="1"/>
        <pt x="446" y="238" on="0"/>
        <pt x="425" y="298" on="0"/>
        <pt x="386" y="343" on="0"/>
        <pt x="331" y="370" on="0"/>
        <pt x="297" y="370" on="1"/>
        <pt x="263" y="370" on="0"/>
        <pt x="209" y="343" on="0"/>
        <pt x="170" y="298" on="0"/>
        <pt x="149" y="238" on="0"/>
        <pt x="149" y="205" on="1"/>
        <pt x="149" y="177" on="0"/>
        <pt x="155" y="136" on="0"/>
        <pt x="168" y="101" on="0"/>
        <pt x="188" y="72" on="0"/>
        <pt x="201" y="56" on="1"/>
        <pt x="148" y="-20" on="1"/>
        <pt x="97" y="22" on="0"/>
        <pt x="55" y="130" on="0"/>
        <pt x="55" y="205" on="1"/>
        <pt x="55" y="259" on="0"/>
        <pt x="92" y="353" on="0"/>
        <pt x="158" y="423" on="0"/>
        <pt x="246" y="463" on="0"/>
        <pt x="297" y="463" on="1"/>
        <pt x="360" y="463" on="0"/>
        <pt x="464" y="402" on="0"/>
        <pt x="496" y="349" on="1"/>
        <pt x="511" y="373" on="0"/>
        <pt x="551" y="414" on="0"/>
        <pt x="601" y="446" on="0"/>
        <pt x="658" y="464" on="0"/>
        <pt x="690" y="464" on="1"/>
        <pt x="739" y="464" on="0"/>
        <pt x="826" y="425" on="0"/>
        <pt x="892" y="359" on="0"/>
        <pt x="930" y="271" on="0"/>
      </contour>
      <contour>
        <pt x="698" y="-333" on="1"/>
        <pt x="684" y="-322" on="0"/>
        <pt x="644" y="-309" on="0"/>
        <pt x="619" y="-312" on="1"/>
        <pt x="628" y="-332" on="0"/>
        <pt x="649" y="-347" on="0"/>
        <pt x="654" y="-351" on="1"/>
        <pt x="670" y="-363" on="0"/>
        <pt x="712" y="-372" on="0"/>
        <pt x="732" y="-367" on="1"/>
        <pt x="728" y="-355" on="0"/>
        <pt x="710" y="-336" on="0"/>
      </contour>
    </TTGlyph>
    <TTGlyph name="u1000_u103B_u1015_u103A" xMin="54" yMin="-464" xMax="1700" yMax="918">
      <contour>
        <pt x="754" y="-371" on="1"/>
        <pt x="754" y="-12" on="1"/>
        <pt x="738" y="-16" on="0"/>
        <pt x="707" y="-20" on="0"/>
        <pt x="690" y="-20" on="1"/>
        <pt x="675" y="-20" on="0"/>
        <pt x="633" y="-15" on="0"/>
        <pt x="619" y="-7" on="1"/>
        <pt x="656" y="78" on="1"/>
        <pt x="671" y="72" on="0"/>
        <pt x="690" y="72" on="1"/>
        <pt x="721" y="72" on="0"/>
        <pt x="775" y="96" on="0"/>
        <pt x="815" y="137" on="0"/>
        <pt x="838" y="191" on="0"/>
        <pt x="838" y="222" on="1"/>
        <pt x="838" y="252" on="0"/>
        <pt x="815" y="307" on="0"/>
        <pt x="775" y="347" on="0"/>
        <pt x="721" y="371" on="0"/>
        <pt x="690" y="371" on="1"/>
        <pt x="660" y="371" on="0"/>
        <pt x="605" y="339" on="0"/>
        <pt x="563" y="289" on="0"/>
        <pt x="539" y="229" on="0"/>
        <pt x="539" y="202" on="1"/>
        <pt x="539" y="127" on="0"/>
        <pt x="497" y="22" on="0"/>
        <pt x="447" y="-20" on="1"/>
        <pt x="393" y="56" on="1"/>
        <pt x="407" y="72" on="0"/>
        <pt x="427" y="101" on="0"/>
        <pt x="440" y="136" on="0"/>
        <pt x="446" y="177" on="0"/>
        <pt x="446" y="205" on="1"/>
        <pt x="446" y="238" on="0"/>
        <pt x="425" y="297" on="0"/>
        <pt x="386" y="343" on="0"/>
        <pt x="331" y="370" on="0"/>
        <pt x="297" y="370" on="1"/>
        <pt x="263" y="370" on="0"/>
        <pt x="209" y="343" on="0"/>
        <pt x="170" y="297" on="0"/>
        <pt x="149" y="238" on="0"/>
        <pt x="149" y="205" on="1"/>
        <pt x="149" y="177" on="0"/>
        <pt x="155" y="136" on="0"/>
        <pt x="168" y="101" on="0"/>
        <pt x="187" y="72" on="0"/>
        <pt x="201" y="56" on="1"/>
        <pt x="148" y="-20" on="1"/>
        <pt x="97" y="22" on="0"/>
        <pt x="54" y="130" on="0"/>
        <pt x="54" y="205" on="1"/>
        <pt x="54" y="259" on="0"/>
        <pt x="92" y="353" on="0"/>
        <pt x="157" y="423" on="0"/>
        <pt x="246" y="463" on="0"/>
        <pt x="297" y="463" on="1"/>
        <pt x="361" y="463" on="0"/>
        <pt x="464" y="401" on="0"/>
        <pt x="496" y="349" on="1"/>
        <pt x="526" y="397" on="0"/>
        <pt x="626" y="464" on="0"/>
        <pt x="690" y="464" on="1"/>
        <pt x="739" y="464" on="0"/>
        <pt x="826" y="425" on="0"/>
        <pt x="892" y="359" on="0"/>
        <pt x="930" y="271" on="0"/>
        <pt x="930" y="222" on="1"/>
        <pt x="930" y="166" on="0"/>
        <pt x="884" y="72" on="0"/>
        <pt x="845" y="40" on="1"/>
        <pt x="845" y="-298" on="1"/>
        <pt x="1027" y="-344" on="1"/>
        <pt x="1027" y="444" on="1"/>
        <pt x="1118" y="444" on="1"/>
        <pt x="1118" y="-464" on="1"/>
      </contour>
      <contour>
        <pt x="1700" y="238" on="1"/>
        <pt x="1700" y="184" on="0"/>
        <pt x="1663" y="90" on="0"/>
        <pt x="1597" y="20" on="0"/>
        <pt x="1509" y="-20" on="0"/>
        <pt x="1458" y="-20" on="1"/>
        <pt x="1407" y="-20" on="0"/>
        <pt x="1318" y="20" on="0"/>
        <pt x="1253" y="90" on="0"/>
        <pt x="1216" y="184" on="0"/>
        <pt x="1216" y="238" on="1"/>
        <pt x="1216" y="313" on="0"/>
        <pt x="1257" y="420" on="0"/>
        <pt x="1308" y="463" on="1"/>
        <pt x="1362" y="387" on="1"/>
        <pt x="1348" y="371" on="0"/>
        <pt x="1328" y="342" on="0"/>
        <pt x="1315" y="307" on="0"/>
        <pt x="1308" y="266" on="0"/>
        <pt x="1308" y="238" on="1"/>
        <pt x="1308" y="205" on="0"/>
        <pt x="1330" y="145" on="0"/>
        <pt x="1369" y="99" on="0"/>
        <pt x="1424" y="72" on="0"/>
        <pt x="1458" y="72" on="1"/>
        <pt x="1492" y="72" on="0"/>
        <pt x="1547" y="99" on="0"/>
        <pt x="1586" y="145" on="0"/>
        <pt x="1607" y="205" on="0"/>
        <pt x="1607" y="238" on="1"/>
        <pt x="1607" y="266" on="0"/>
        <pt x="1601" y="307" on="0"/>
        <pt x="1587" y="342" on="0"/>
        <pt x="1567" y="371" on="0"/>
        <pt x="1553" y="387" on="1"/>
        <pt x="1607" y="463" on="1"/>
        <pt x="1657" y="420" on="0"/>
        <pt x="1700" y="313" on="0"/>
      </contour>
      <contour>
        <pt x="1633" y="796" on="1"/>
        <pt x="1619" y="816" on="0"/>
        <pt x="1576" y="847" on="0"/>
        <pt x="1549" y="847" on="1"/>
        <pt x="1529" y="847" on="0"/>
        <pt x="1487" y="832" on="0"/>
        <pt x="1453" y="803" on="0"/>
        <pt x="1430" y="759" on="0"/>
        <pt x="1430" y="731" on="1"/>
        <pt x="1430" y="699" on="0"/>
        <pt x="1458" y="653" on="0"/>
        <pt x="1496" y="623" on="0"/>
        <pt x="1536" y="608" on="0"/>
        <pt x="1548" y="608" on="1"/>
        <pt x="1548" y="538" on="1"/>
        <pt x="1516" y="538" on="0"/>
        <pt x="1449" y="566" on="0"/>
        <pt x="1395" y="617" on="0"/>
        <pt x="1360" y="688" on="0"/>
        <pt x="1360" y="731" on="1"/>
        <pt x="1360" y="774" on="0"/>
        <pt x="1392" y="843" on="0"/>
        <pt x="1445" y="892" on="0"/>
        <pt x="1513" y="918" on="0"/>
        <pt x="1549" y="918" on="1"/>
        <pt x="1582" y="918" on="0"/>
        <pt x="1659" y="881" on="0"/>
        <pt x="1683" y="838" on="1"/>
      </contour>
    </TTGlyph>
    <TTGlyph name="u1001" xMin="56" yMin="-20" xMax="537" yMax="464">
      <contour>
        <pt x="537" y="222" on="1"/>
        <pt x="537" y="174" on="0"/>
        <pt x="501" y="86" on="0"/>
        <pt x="437" y="19" on="0"/>
        <pt x="348" y="-20" on="0"/>
        <pt x="295" y="-20" on="1"/>
        <pt x="257" y="-20" on="0"/>
        <pt x="174" y="7" on="0"/>
        <pt x="105" y="57" on="0"/>
        <pt x="58" y="129" on="0"/>
        <pt x="56" y="175" on="1"/>
        <pt x="112" y="212" on="0"/>
        <pt x="204" y="238" on="0"/>
        <pt x="236" y="238" on="1"/>
        <pt x="258" y="238" on="0"/>
        <pt x="310" y="226" on="0"/>
        <pt x="360" y="204" on="0"/>
        <pt x="406" y="172" on="0"/>
        <pt x="423" y="152" on="1"/>
        <pt x="433" y="166" on="0"/>
        <pt x="445" y="201" on="0"/>
        <pt x="445" y="222" on="1"/>
        <pt x="445" y="241" on="0"/>
        <pt x="428" y="292" on="0"/>
        <pt x="392" y="338" on="0"/>
        <pt x="335" y="371" on="0"/>
        <pt x="295" y="371" on="1"/>
        <pt x="254" y="371" on="0"/>
        <pt x="181" y="330" on="0"/>
        <pt x="154" y="288" on="1"/>
        <pt x="74" y="331" on="1"/>
        <pt x="90" y="364" on="0"/>
        <pt x="138" y="413" on="0"/>
        <pt x="196" y="447" on="0"/>
        <pt x="261" y="464" on="0"/>
        <pt x="295" y="464" on="1"/>
        <pt x="351" y="464" on="0"/>
        <pt x="440" y="420" on="0"/>
        <pt x="503" y="351" on="0"/>
        <pt x="537" y="265" on="0"/>
      </contour>
      <contour>
        <pt x="369" y="91" on="1"/>
        <pt x="349" y="121" on="0"/>
        <pt x="278" y="160" on="0"/>
        <pt x="237" y="160" on="1"/>
        <pt x="202" y="160" on="0"/>
        <pt x="160" y="144" on="1"/>
        <pt x="189" y="103" on="0"/>
        <pt x="263" y="72" on="0"/>
        <pt x="295" y="72" on="1"/>
        <pt x="316" y="72" on="0"/>
        <pt x="352" y="82" on="0"/>
      </contour>
    </TTGlyph>
    <TTGlyph name="u1001.med" xMin="-426" yMin="-464" xMax="-56" yMax="-90">
      <contour>
        <pt x="-56" y="-277" on="1"/>
        <pt x="-56" y="-316" on="0"/>
        <pt x="-85" y="-385" on="0"/>
        <pt x="-135" y="-435" on="0"/>
        <pt x="-202" y="-464" on="0"/>
        <pt x="-241" y="-464" on="1"/>
        <pt x="-274" y="-464" on="0"/>
        <pt x="-340" y="-440" on="0"/>
        <pt x="-393" y="-398" on="0"/>
        <pt x="-426" y="-342" on="0"/>
        <pt x="-426" y="-310" on="1"/>
        <pt x="-385" y="-283" on="0"/>
        <pt x="-313" y="-264" on="0"/>
        <pt x="-287" y="-264" on="1"/>
        <pt x="-254" y="-264" on="0"/>
        <pt x="-173" y="-297" on="0"/>
        <pt x="-145" y="-330" on="1"/>
        <pt x="-127" y="-308" on="0"/>
        <pt x="-127" y="-278" on="1"/>
        <pt x="-127" y="-256" on="0"/>
        <pt x="-144" y="-214" on="0"/>
        <pt x="-174" y="-181" on="0"/>
        <pt x="-216" y="-161" on="0"/>
        <pt x="-241" y="-161" on="1"/>
        <pt x="-273" y="-161" on="0"/>
        <pt x="-331" y="-194" on="0"/>
        <pt x="-351" y="-226" on="1"/>
        <pt x="-412" y="-192" on="1"/>
        <pt x="-387" y="-141" on="0"/>
        <pt x="-292" y="-90" on="0"/>
        <pt x="-241" y="-90" on="1"/>
        <pt x="-199" y="-90" on="0"/>
        <pt x="-130" y="-123" on="0"/>
        <pt x="-82" y="-176" on="0"/>
        <pt x="-56" y="-243" on="0"/>
      </contour>
      <contour>
        <pt x="-243" y="-348" on="1"/>
        <pt x="-257" y="-351" on="0"/>
        <pt x="-285" y="-356" on="0"/>
        <pt x="-302" y="-361" on="1"/>
        <pt x="-300" y="-380" on="0"/>
        <pt x="-291" y="-380" on="0"/>
        <pt x="-286" y="-368" on="1"/>
        <pt x="-270" y="-364" on="0"/>
        <pt x="-242" y="-356" on="0"/>
        <pt x="-228" y="-351" on="1"/>
        <pt x="-223" y="-339" on="0"/>
        <pt x="-232" y="-337" on="0"/>
      </contour>
    </TTGlyph>
    <TTGlyph name="u1002" xMin="55" yMin="-20" xMax="540" yMax="463">
      <contour>
        <pt x="540" y="205" on="1"/>
        <pt x="540" y="130" on="0"/>
        <pt x="498" y="22" on="0"/>
        <pt x="447" y="-20" on="1"/>
        <pt x="393" y="56" on="1"/>
        <pt x="407" y="72" on="0"/>
        <pt x="427" y="101" on="0"/>
        <pt x="440" y="136" on="0"/>
        <pt x="446" y="177" on="0"/>
        <pt x="446" y="205" on="1"/>
        <pt x="446" y="238" on="0"/>
        <pt x="425" y="297" on="0"/>
        <pt x="386" y="343" on="0"/>
        <pt x="331" y="370" on="0"/>
        <pt x="297" y="370" on="1"/>
        <pt x="263" y="370" on="0"/>
        <pt x="208" y="343" on="0"/>
        <pt x="169" y="297" on="0"/>
        <pt x="148" y="238" on="0"/>
        <pt x="148" y="205" on="1"/>
        <pt x="148" y="177" on="0"/>
        <pt x="154" y="136" on="0"/>
        <pt x="168" y="101" on="0"/>
        <pt x="187" y="72" on="0"/>
        <pt x="201" y="56" on="1"/>
        <pt x="148" y="-20" on="1"/>
        <pt x="97" y="22" on="0"/>
        <pt x="55" y="130" on="0"/>
        <pt x="55" y="205" on="1"/>
        <pt x="55" y="259" on="0"/>
        <pt x="92" y="353" on="0"/>
        <pt x="158" y="423" on="0"/>
        <pt x="246" y="463" on="0"/>
        <pt x="297" y="463" on="1"/>
        <pt x="343" y="463" on="0"/>
        <pt x="431" y="426" on="0"/>
        <pt x="499" y="359" on="0"/>
        <pt x="540" y="263" on="0"/>
      </contour>
    </TTGlyph>
    <TTGlyph name="u1002.kham" xMin="55" yMin="-20" xMax="540" yMax="463">
      <contour>
        <pt x="540" y="205" on="1"/>
        <pt x="540" y="130" on="0"/>
        <pt x="498" y="23" on="0"/>
        <pt x="447" y="-20" on="1"/>
        <pt x="393" y="56" on="1"/>
        <pt x="407" y="72" on="0"/>
        <pt x="427" y="102" on="0"/>
        <pt x="440" y="135" on="0"/>
        <pt x="446" y="177" on="0"/>
        <pt x="446" y="205" on="1"/>
        <pt x="446" y="238" on="0"/>
        <pt x="425" y="297" on="0"/>
        <pt x="386" y="343" on="0"/>
        <pt x="331" y="370" on="0"/>
        <pt x="297" y="370" on="1"/>
        <pt x="267" y="370" on="0"/>
        <pt x="213" y="346" on="0"/>
        <pt x="172" y="302" on="0"/>
        <pt x="148" y="241" on="0"/>
        <pt x="148" y="205" on="1"/>
        <pt x="148" y="166" on="0"/>
        <pt x="155" y="139" on="1"/>
        <pt x="160" y="143" on="0"/>
        <pt x="174" y="148" on="0"/>
        <pt x="181" y="148" on="1"/>
        <pt x="215" y="148" on="0"/>
        <pt x="265" y="98" on="0"/>
        <pt x="265" y="63" on="1"/>
        <pt x="265" y="46" on="0"/>
        <pt x="252" y="16" on="0"/>
        <pt x="229" y="-7" on="0"/>
        <pt x="199" y="-20" on="0"/>
        <pt x="181" y="-20" on="1"/>
        <pt x="152" y="-20" on="0"/>
        <pt x="105" y="17" on="0"/>
        <pt x="72" y="78" on="0"/>
        <pt x="55" y="160" on="0"/>
        <pt x="55" y="205" on="1"/>
        <pt x="55" y="258" on="0"/>
        <pt x="92" y="352" on="0"/>
        <pt x="157" y="422" on="0"/>
        <pt x="246" y="463" on="0"/>
        <pt x="297" y="463" on="1"/>
        <pt x="348" y="463" on="0"/>
        <pt x="437" y="423" on="0"/>
        <pt x="503" y="353" on="0"/>
        <pt x="540" y="259" on="0"/>
      </contour>
    </TTGlyph>
    <TTGlyph name="u1002.med" xMin="-430" yMin="-464" xMax="-56" yMax="-91">
      <contour>
        <pt x="-56" y="-290" on="1"/>
        <pt x="-56" y="-348" on="0"/>
        <pt x="-89" y="-431" on="0"/>
        <pt x="-128" y="-464" on="1"/>
        <pt x="-170" y="-404" on="1"/>
        <pt x="-147" y="-379" on="0"/>
        <pt x="-127" y="-326" on="0"/>
        <pt x="-127" y="-290" on="1"/>
        <pt x="-127" y="-266" on="0"/>
        <pt x="-143" y="-220" on="0"/>
        <pt x="-173" y="-183" on="0"/>
        <pt x="-216" y="-161" on="0"/>
        <pt x="-243" y="-161" on="1"/>
        <pt x="-269" y="-161" on="0"/>
        <pt x="-312" y="-182" on="0"/>
        <pt x="-342" y="-218" on="0"/>
        <pt x="-359" y="-265" on="0"/>
        <pt x="-359" y="-290" on="1"/>
        <pt x="-359" y="-326" on="0"/>
        <pt x="-339" y="-379" on="0"/>
        <pt x="-316" y="-404" on="1"/>
        <pt x="-358" y="-464" on="1"/>
        <pt x="-397" y="-431" on="0"/>
        <pt x="-430" y="-348" on="0"/>
        <pt x="-430" y="-290" on="1"/>
        <pt x="-430" y="-249" on="0"/>
        <pt x="-401" y="-176" on="0"/>
        <pt x="-351" y="-122" on="0"/>
        <pt x="-282" y="-91" on="0"/>
        <pt x="-243" y="-91" on="1"/>
        <pt x="-204" y="-91" on="0"/>
        <pt x="-135" y="-122" on="0"/>
        <pt x="-85" y="-176" on="0"/>
        <pt x="-56" y="-249" on="0"/>
      </contour>
    </TTGlyph>
    <TTGlyph name="u1003" xMin="55" yMin="-20" xMax="925" yMax="464">
      <contour>
        <pt x="925" y="222" on="1"/>
        <pt x="925" y="172" on="0"/>
        <pt x="887" y="84" on="0"/>
        <pt x="821" y="18" on="0"/>
        <pt x="733" y="-20" on="0"/>
        <pt x="684" y="-20" on="1"/>
        <pt x="620" y="-20" on="0"/>
        <pt x="520" y="46" on="0"/>
        <pt x="490" y="94" on="1"/>
        <pt x="457" y="40" on="0"/>
        <pt x="352" y="-20" on="0"/>
        <pt x="290" y="-20" on="1"/>
        <pt x="236" y="-20" on="0"/>
        <pt x="149" y="15" on="0"/>
        <pt x="88" y="69" on="0"/>
        <pt x="55" y="135" on="0"/>
        <pt x="55" y="167" on="1"/>
        <pt x="55" y="203" on="0"/>
        <pt x="76" y="249" on="0"/>
        <pt x="106" y="279" on="0"/>
        <pt x="143" y="296" on="0"/>
        <pt x="173" y="311" on="0"/>
        <pt x="194" y="327" on="0"/>
        <pt x="194" y="341" on="1"/>
        <pt x="194" y="362" on="0"/>
        <pt x="173" y="380" on="0"/>
        <pt x="159" y="380" on="1"/>
        <pt x="145" y="380" on="0"/>
        <pt x="127" y="362" on="0"/>
        <pt x="125" y="353" on="1"/>
        <pt x="55" y="395" on="1"/>
        <pt x="58" y="409" on="0"/>
        <pt x="79" y="434" on="0"/>
        <pt x="108" y="452" on="0"/>
        <pt x="142" y="463" on="0"/>
        <pt x="159" y="463" on="1"/>
        <pt x="181" y="463" on="0"/>
        <pt x="223" y="448" on="0"/>
        <pt x="256" y="418" on="0"/>
        <pt x="276" y="372" on="0"/>
        <pt x="276" y="341" on="1"/>
        <pt x="276" y="301" on="0"/>
        <pt x="236" y="258" on="0"/>
        <pt x="188" y="227" on="0"/>
        <pt x="148" y="195" on="0"/>
        <pt x="148" y="167" on="1"/>
        <pt x="148" y="156" on="0"/>
        <pt x="166" y="123" on="0"/>
        <pt x="202" y="93" on="0"/>
        <pt x="255" y="72" on="0"/>
        <pt x="290" y="72" on="1"/>
        <pt x="322" y="72" on="0"/>
        <pt x="377" y="97" on="0"/>
        <pt x="416" y="143" on="0"/>
        <pt x="438" y="206" on="0"/>
        <pt x="438" y="244" on="1"/>
        <pt x="438" y="286" on="0"/>
        <pt x="411" y="362" on="0"/>
        <pt x="385" y="387" on="1"/>
        <pt x="439" y="463" on="1"/>
        <pt x="487" y="427" on="0"/>
        <pt x="532" y="313" on="0"/>
        <pt x="532" y="236" on="1"/>
        <pt x="532" y="210" on="0"/>
        <pt x="557" y="152" on="0"/>
        <pt x="599" y="104" on="0"/>
        <pt x="654" y="72" on="0"/>
        <pt x="684" y="72" on="1"/>
        <pt x="714" y="72" on="0"/>
        <pt x="768" y="96" on="0"/>
        <pt x="809" y="137" on="0"/>
        <pt x="832" y="191" on="0"/>
        <pt x="832" y="222" on="1"/>
        <pt x="832" y="252" on="0"/>
        <pt x="809" y="306" on="0"/>
        <pt x="768" y="347" on="0"/>
        <pt x="714" y="371" on="0"/>
        <pt x="684" y="371" on="1"/>
        <pt x="676" y="371" on="0"/>
        <pt x="658" y="368" on="0"/>
        <pt x="650" y="365" on="1"/>
        <pt x="614" y="450" on="1"/>
        <pt x="628" y="458" on="0"/>
        <pt x="665" y="464" on="0"/>
        <pt x="684" y="464" on="1"/>
        <pt x="733" y="464" on="0"/>
        <pt x="821" y="426" on="0"/>
        <pt x="887" y="360" on="0"/>
        <pt x="925" y="272" on="0"/>
      </contour>
    </TTGlyph>
    <TTGlyph name="u1003.med" xMin="-724" yMin="-464" xMax="-56" yMax="-91">
      <contour>
        <pt x="-56" y="-277" on="1"/>
        <pt x="-56" y="-315" on="0"/>
        <pt x="-85" y="-383" on="0"/>
        <pt x="-135" y="-434" on="0"/>
        <pt x="-202" y="-464" on="0"/>
        <pt x="-239" y="-464" on="1"/>
        <pt x="-290" y="-464" on="0"/>
        <pt x="-366" y="-414" on="0"/>
        <pt x="-389" y="-376" on="1"/>
        <pt x="-415" y="-418" on="0"/>
        <pt x="-495" y="-464" on="0"/>
        <pt x="-543" y="-464" on="1"/>
        <pt x="-585" y="-464" on="0"/>
        <pt x="-652" y="-437" on="0"/>
        <pt x="-699" y="-395" on="0"/>
        <pt x="-724" y="-344" on="0"/>
        <pt x="-724" y="-320" on="1"/>
        <pt x="-724" y="-281" on="0"/>
        <pt x="-691" y="-240" on="0"/>
        <pt x="-651" y="-216" on="0"/>
        <pt x="-618" y="-198" on="0"/>
        <pt x="-618" y="-183" on="1"/>
        <pt x="-618" y="-168" on="0"/>
        <pt x="-633" y="-156" on="0"/>
        <pt x="-644" y="-156" on="1"/>
        <pt x="-654" y="-156" on="0"/>
        <pt x="-668" y="-168" on="0"/>
        <pt x="-670" y="-175" on="1"/>
        <pt x="-724" y="-143" on="1"/>
        <pt x="-721" y="-121" on="0"/>
        <pt x="-671" y="-91" on="0"/>
        <pt x="-644" y="-91" on="1"/>
        <pt x="-627" y="-91" on="0"/>
        <pt x="-594" y="-103" on="0"/>
        <pt x="-569" y="-127" on="0"/>
        <pt x="-553" y="-162" on="0"/>
        <pt x="-553" y="-185" on="1"/>
        <pt x="-553" y="-215" on="0"/>
        <pt x="-584" y="-248" on="0"/>
        <pt x="-622" y="-272" on="0"/>
        <pt x="-653" y="-298" on="0"/>
        <pt x="-653" y="-320" on="1"/>
        <pt x="-653" y="-329" on="0"/>
        <pt x="-639" y="-354" on="0"/>
        <pt x="-611" y="-377" on="0"/>
        <pt x="-570" y="-393" on="0"/>
        <pt x="-543" y="-393" on="1"/>
        <pt x="-519" y="-393" on="0"/>
        <pt x="-477" y="-373" on="0"/>
        <pt x="-447" y="-338" on="0"/>
        <pt x="-429" y="-290" on="0"/>
        <pt x="-429" y="-261" on="1"/>
        <pt x="-429" y="-230" on="0"/>
        <pt x="-451" y="-170" on="0"/>
        <pt x="-471" y="-151" on="1"/>
        <pt x="-428" y="-91" on="1"/>
        <pt x="-395" y="-117" on="0"/>
        <pt x="-356" y="-199" on="0"/>
        <pt x="-356" y="-264" on="1"/>
        <pt x="-356" y="-286" on="0"/>
        <pt x="-336" y="-332" on="0"/>
        <pt x="-304" y="-369" on="0"/>
        <pt x="-262" y="-393" on="0"/>
        <pt x="-239" y="-393" on="1"/>
        <pt x="-215" y="-393" on="0"/>
        <pt x="-174" y="-374" on="0"/>
        <pt x="-144" y="-342" on="0"/>
        <pt x="-127" y="-300" on="0"/>
        <pt x="-127" y="-277" on="1"/>
        <pt x="-127" y="-254" on="0"/>
        <pt x="-144" y="-212" on="0"/>
        <pt x="-174" y="-180" on="0"/>
        <pt x="-215" y="-161" on="0"/>
        <pt x="-239" y="-161" on="1"/>
        <pt x="-244" y="-161" on="0"/>
        <pt x="-259" y="-164" on="0"/>
        <pt x="-266" y="-167" on="1"/>
        <pt x="-294" y="-102" on="1"/>
        <pt x="-283" y="-95" on="0"/>
        <pt x="-255" y="-91" on="0"/>
        <pt x="-239" y="-91" on="1"/>
        <pt x="-202" y="-91" on="0"/>
        <pt x="-135" y="-120" on="0"/>
        <pt x="-85" y="-171" on="0"/>
        <pt x="-56" y="-238" on="0"/>
      </contour>
    </TTGlyph>
    <TTGlyph name="u1004" xMin="55" yMin="-20" xMax="519" yMax="464">
      <contour>
        <pt x="519" y="112" on="1"/>
        <pt x="503" y="80" on="0"/>
        <pt x="455" y="31" on="0"/>
        <pt x="396" y="-2" on="0"/>
        <pt x="330" y="-20" on="0"/>
        <pt x="296" y="-20" on="1"/>
        <pt x="247" y="-20" on="0"/>
        <pt x="159" y="18" on="0"/>
        <pt x="93" y="84" on="0"/>
        <pt x="55" y="172" on="0"/>
        <pt x="55" y="222" on="1"/>
        <pt x="55" y="271" on="0"/>
        <pt x="93" y="359" on="0"/>
        <pt x="159" y="425" on="0"/>
        <pt x="247" y="464" on="0"/>
        <pt x="296" y="464" on="1"/>
        <pt x="328" y="464" on="0"/>
        <pt x="394" y="447" on="0"/>
        <pt x="454" y="414" on="0"/>
        <pt x="504" y="364" on="0"/>
        <pt x="519" y="331" on="1"/>
        <pt x="437" y="288" on="1"/>
        <pt x="411" y="331" on="0"/>
        <pt x="339" y="371" on="0"/>
        <pt x="296" y="371" on="1"/>
        <pt x="266" y="371" on="0"/>
        <pt x="212" y="347" on="0"/>
        <pt x="172" y="306" on="0"/>
        <pt x="148" y="252" on="0"/>
        <pt x="148" y="222" on="1"/>
        <pt x="148" y="191" on="0"/>
        <pt x="172" y="137" on="0"/>
        <pt x="212" y="96" on="0"/>
        <pt x="266" y="72" on="0"/>
        <pt x="296" y="72" on="1"/>
        <pt x="341" y="72" on="0"/>
        <pt x="414" y="115" on="0"/>
        <pt x="437" y="156" on="1"/>
        <pt x="519" y="112" on="1"/>
      </contour>
    </TTGlyph>
    <TTGlyph name="u1004.kham" xMin="55" yMin="-20" xMax="519" yMax="464">
      <contour>
        <pt x="519" y="112" on="1"/>
        <pt x="502" y="77" on="0"/>
        <pt x="450" y="27" on="0"/>
        <pt x="390" y="-5" on="0"/>
        <pt x="326" y="-20" on="0"/>
        <pt x="296" y="-20" on="1"/>
        <pt x="246" y="-20" on="0"/>
        <pt x="159" y="18" on="0"/>
        <pt x="93" y="84" on="0"/>
        <pt x="55" y="172" on="0"/>
        <pt x="55" y="222" on="1"/>
        <pt x="55" y="271" on="0"/>
        <pt x="93" y="359" on="0"/>
        <pt x="159" y="425" on="0"/>
        <pt x="246" y="464" on="0"/>
        <pt x="296" y="464" on="1"/>
        <pt x="345" y="464" on="0"/>
        <pt x="425" y="437" on="0"/>
        <pt x="480" y="395" on="0"/>
        <pt x="510" y="345" on="0"/>
        <pt x="510" y="323" on="1"/>
        <pt x="510" y="305" on="0"/>
        <pt x="497" y="273" on="0"/>
        <pt x="474" y="250" on="0"/>
        <pt x="443" y="236" on="0"/>
        <pt x="426" y="236" on="1"/>
        <pt x="409" y="236" on="0"/>
        <pt x="379" y="250" on="0"/>
        <pt x="357" y="273" on="0"/>
        <pt x="343" y="304" on="0"/>
        <pt x="343" y="321" on="1"/>
        <pt x="343" y="341" on="0"/>
        <pt x="357" y="357" on="1"/>
        <pt x="340" y="365" on="0"/>
        <pt x="309" y="371" on="0"/>
        <pt x="296" y="371" on="1"/>
        <pt x="266" y="371" on="0"/>
        <pt x="212" y="347" on="0"/>
        <pt x="171" y="307" on="0"/>
        <pt x="148" y="252" on="0"/>
        <pt x="148" y="222" on="1"/>
        <pt x="148" y="191" on="0"/>
        <pt x="171" y="137" on="0"/>
        <pt x="212" y="96" on="0"/>
        <pt x="266" y="72" on="0"/>
        <pt x="296" y="72" on="1"/>
        <pt x="341" y="72" on="0"/>
        <pt x="414" y="114" on="0"/>
        <pt x="437" y="156" on="1"/>
        <pt x="519" y="112" on="1"/>
      </contour>
    </TTGlyph>
    <TTGlyph name="u1004.kinzi" xMin="-206" yMin="540" xMax="0" yMax="915">
      <contour>
        <pt x="0" y="597" on="1"/>
        <pt x="-16" y="567" on="0"/>
        <pt x="-71" y="540" on="0"/>
        <pt x="-99" y="540" on="1"/>
        <pt x="-121" y="540" on="0"/>
        <pt x="-160" y="557" on="0"/>
        <pt x="-189" y="587" on="0"/>
        <pt x="-206" y="626" on="0"/>
        <pt x="-206" y="648" on="1"/>
        <pt x="-206" y="674" on="0"/>
        <pt x="-186" y="714" on="0"/>
        <pt x="-168" y="729" on="1"/>
        <pt x="-185" y="744" on="0"/>
        <pt x="-206" y="783" on="0"/>
        <pt x="-206" y="809" on="1"/>
        <pt x="-206" y="833" on="0"/>
        <pt x="-188" y="872" on="0"/>
        <pt x="-158" y="900" on="0"/>
        <pt x="-119" y="915" on="0"/>
        <pt x="-97" y="915" on="1"/>
        <pt x="-66" y="915" on="0"/>
        <pt x="-27" y="889" on="0"/>
        <pt x="-16" y="870" on="1"/>
        <pt x="-63" y="831" on="1"/>
        <pt x="-69" y="841" on="0"/>
        <pt x="-87" y="854" on="0"/>
        <pt x="-99" y="854" on="1"/>
        <pt x="-117" y="854" on="0"/>
        <pt x="-144" y="829" on="0"/>
        <pt x="-144" y="809" on="1"/>
        <pt x="-144" y="789" on="0"/>
        <pt x="-118" y="759" on="0"/>
        <pt x="-99" y="759" on="1"/>
        <pt x="-73" y="759" on="0"/>
        <pt x="-17" y="728" on="0"/>
        <pt x="0" y="699" on="1"/>
        <pt x="-51" y="672" on="1"/>
        <pt x="-69" y="697" on="0"/>
        <pt x="-96" y="697" on="1"/>
        <pt x="-113" y="697" on="0"/>
        <pt x="-143" y="672" on="0"/>
        <pt x="-143" y="649" on="1"/>
        <pt x="-143" y="629" on="0"/>
        <pt x="-115" y="601" on="0"/>
        <pt x="-96" y="601" on="1"/>
        <pt x="-82" y="601" on="0"/>
        <pt x="-62" y="613" on="0"/>
        <pt x="-51" y="627" on="1"/>
        <pt x="0" y="597" on="1"/>
      </contour>
    </TTGlyph>
    <TTGlyph name="u1004.kinzi_u102D" xMin="-609" yMin="540" xMax="0" yMax="916">
      <contour>
        <pt x="0" y="729" on="1"/>
        <pt x="0" y="690" on="0"/>
        <pt x="-28" y="622" on="0"/>
        <pt x="-78" y="571" on="0"/>
        <pt x="-144" y="542" on="0"/>
        <pt x="-181" y="542" on="1"/>
        <pt x="-219" y="542" on="0"/>
        <pt x="-286" y="571" on="0"/>
        <pt x="-335" y="622" on="0"/>
        <pt x="-364" y="690" on="0"/>
        <pt x="-364" y="729" on="1"/>
        <pt x="-364" y="767" on="0"/>
        <pt x="-335" y="835" on="0"/>
        <pt x="-286" y="886" on="0"/>
        <pt x="-220" y="916" on="0"/>
        <pt x="-183" y="916" on="1"/>
        <pt x="-145" y="916" on="0"/>
        <pt x="-78" y="886" on="0"/>
        <pt x="-29" y="835" on="0"/>
        <pt x="0" y="767" on="0"/>
      </contour>
      <contour>
        <pt x="-71" y="729" on="1"/>
        <pt x="-71" y="752" on="0"/>
        <pt x="-88" y="794" on="0"/>
        <pt x="-118" y="825" on="0"/>
        <pt x="-158" y="844" on="0"/>
        <pt x="-181" y="844" on="1"/>
        <pt x="-205" y="844" on="0"/>
        <pt x="-246" y="825" on="0"/>
        <pt x="-276" y="794" on="0"/>
        <pt x="-294" y="752" on="0"/>
        <pt x="-294" y="729" on="1"/>
        <pt x="-294" y="706" on="0"/>
        <pt x="-276" y="664" on="0"/>
        <pt x="-246" y="632" on="0"/>
        <pt x="-206" y="613" on="0"/>
        <pt x="-183" y="613" on="1"/>
        <pt x="-159" y="613" on="0"/>
        <pt x="-118" y="632" on="0"/>
        <pt x="-88" y="664" on="0"/>
        <pt x="-71" y="706" on="0"/>
      </contour>
      <contour>
        <pt x="-403" y="597" on="1"/>
        <pt x="-419" y="567" on="0"/>
        <pt x="-473" y="540" on="0"/>
        <pt x="-502" y="540" on="1"/>
        <pt x="-524" y="540" on="0"/>
        <pt x="-563" y="557" on="0"/>
        <pt x="-592" y="587" on="0"/>
        <pt x="-609" y="626" on="0"/>
        <pt x="-609" y="648" on="1"/>
        <pt x="-609" y="697" on="0"/>
        <pt x="-571" y="729" on="1"/>
        <pt x="-588" y="744" on="0"/>
        <pt x="-609" y="783" on="0"/>
        <pt x="-609" y="809" on="1"/>
        <pt x="-609" y="833" on="0"/>
        <pt x="-591" y="872" on="0"/>
        <pt x="-561" y="901" on="0"/>
        <pt x="-522" y="916" on="0"/>
        <pt x="-500" y="916" on="1"/>
        <pt x="-469" y="916" on="0"/>
        <pt x="-430" y="889" on="0"/>
        <pt x="-419" y="870" on="1"/>
        <pt x="-466" y="831" on="1"/>
        <pt x="-471" y="841" on="0"/>
        <pt x="-489" y="853" on="0"/>
        <pt x="-502" y="853" on="1"/>
        <pt x="-520" y="853" on="0"/>
        <pt x="-547" y="828" on="0"/>
        <pt x="-547" y="808" on="1"/>
        <pt x="-547" y="789" on="0"/>
        <pt x="-521" y="759" on="0"/>
        <pt x="-502" y="759" on="1"/>
        <pt x="-476" y="759" on="0"/>
        <pt x="-420" y="728" on="0"/>
        <pt x="-403" y="699" on="1"/>
        <pt x="-454" y="672" on="1"/>
        <pt x="-472" y="697" on="0"/>
        <pt x="-499" y="697" on="1"/>
        <pt x="-516" y="697" on="0"/>
        <pt x="-546" y="672" on="0"/>
        <pt x="-546" y="649" on="1"/>
        <pt x="-546" y="629" on="0"/>
        <pt x="-518" y="601" on="0"/>
        <pt x="-499" y="601" on="1"/>
        <pt x="-485" y="601" on="0"/>
        <pt x="-464" y="613" on="0"/>
        <pt x="-454" y="627" on="1"/>
      </contour>
    </TTGlyph>
    <TTGlyph name="u1004.kinzi_u102D_u1036" xMin="-821" yMin="541" xMax="0" yMax="916">
      <contour>
        <pt x="-212" y="729" on="1"/>
        <pt x="-212" y="690" on="0"/>
        <pt x="-240" y="622" on="0"/>
        <pt x="-290" y="571" on="0"/>
        <pt x="-356" y="542" on="0"/>
        <pt x="-393" y="542" on="1"/>
        <pt x="-431" y="542" on="0"/>
        <pt x="-498" y="571" on="0"/>
        <pt x="-547" y="622" on="0"/>
        <pt x="-576" y="690" on="0"/>
        <pt x="-576" y="729" on="1"/>
        <pt x="-576" y="767" on="0"/>
        <pt x="-547" y="835" on="0"/>
        <pt x="-498" y="886" on="0"/>
        <pt x="-432" y="916" on="0"/>
        <pt x="-395" y="916" on="1"/>
        <pt x="-357" y="916" on="0"/>
        <pt x="-290" y="886" on="0"/>
        <pt x="-241" y="835" on="0"/>
        <pt x="-212" y="767" on="0"/>
      </contour>
      <contour>
        <pt x="-283" y="729" on="1"/>
        <pt x="-283" y="752" on="0"/>
        <pt x="-300" y="794" on="0"/>
        <pt x="-330" y="825" on="0"/>
        <pt x="-370" y="844" on="0"/>
        <pt x="-393" y="844" on="1"/>
        <pt x="-417" y="844" on="0"/>
        <pt x="-458" y="825" on="0"/>
        <pt x="-488" y="794" on="0"/>
        <pt x="-505" y="752" on="0"/>
        <pt x="-505" y="729" on="1"/>
        <pt x="-505" y="706" on="0"/>
        <pt x="-488" y="664" on="0"/>
        <pt x="-458" y="632" on="0"/>
        <pt x="-418" y="613" on="0"/>
        <pt x="-395" y="613" on="1"/>
        <pt x="-371" y="613" on="0"/>
        <pt x="-330" y="632" on="0"/>
        <pt x="-300" y="664" on="0"/>
        <pt x="-283" y="706" on="0"/>
      </contour>
      <contour>
        <pt x="0" y="646" on="1"/>
        <pt x="0" y="625" on="0"/>
        <pt x="-16" y="589" on="0"/>
        <pt x="-43" y="562" on="0"/>
        <pt x="-79" y="547" on="0"/>
        <pt x="-99" y="547" on="1"/>
        <pt x="-119" y="547" on="0"/>
        <pt x="-155" y="562" on="0"/>
        <pt x="-182" y="589" on="0"/>
        <pt x="-198" y="625" on="0"/>
        <pt x="-198" y="646" on="1"/>
        <pt x="-198" y="666" on="0"/>
        <pt x="-182" y="701" on="0"/>
        <pt x="-155" y="728" on="0"/>
        <pt x="-119" y="743" on="0"/>
        <pt x="-99" y="743" on="1"/>
        <pt x="-79" y="743" on="0"/>
        <pt x="-43" y="728" on="0"/>
        <pt x="-16" y="701" on="0"/>
        <pt x="0" y="666" on="0"/>
      </contour>
      <contour>
        <pt x="-53" y="646" on="1"/>
        <pt x="-53" y="663" on="0"/>
        <pt x="-80" y="689" on="0"/>
        <pt x="-99" y="689" on="1"/>
        <pt x="-119" y="689" on="0"/>
        <pt x="-144" y="663" on="0"/>
        <pt x="-144" y="646" on="1"/>
        <pt x="-144" y="628" on="0"/>
        <pt x="-119" y="599" on="0"/>
        <pt x="-99" y="599" on="1"/>
        <pt x="-80" y="599" on="0"/>
        <pt x="-53" y="626" on="0"/>
      </contour>
      <contour>
        <pt x="-615" y="598" on="1"/>
        <pt x="-631" y="568" on="0"/>
        <pt x="-685" y="541" on="0"/>
        <pt x="-713" y="541" on="1"/>
        <pt x="-735" y="541" on="0"/>
        <pt x="-774" y="558" on="0"/>
        <pt x="-804" y="588" on="0"/>
        <pt x="-821" y="627" on="0"/>
        <pt x="-821" y="649" on="1"/>
        <pt x="-821" y="698" on="0"/>
        <pt x="-783" y="730" on="1"/>
        <pt x="-800" y="744" on="0"/>
        <pt x="-821" y="783" on="0"/>
        <pt x="-821" y="809" on="1"/>
        <pt x="-821" y="833" on="0"/>
        <pt x="-803" y="872" on="0"/>
        <pt x="-773" y="901" on="0"/>
        <pt x="-734" y="916" on="0"/>
        <pt x="-712" y="916" on="1"/>
        <pt x="-681" y="916" on="0"/>
        <pt x="-641" y="889" on="0"/>
        <pt x="-630" y="871" on="1"/>
        <pt x="-678" y="832" on="1"/>
        <pt x="-683" y="841" on="0"/>
        <pt x="-701" y="854" on="0"/>
        <pt x="-714" y="854" on="1"/>
        <pt x="-732" y="854" on="0"/>
        <pt x="-759" y="829" on="0"/>
        <pt x="-759" y="809" on="1"/>
        <pt x="-759" y="790" on="0"/>
        <pt x="-732" y="759" on="0"/>
        <pt x="-713" y="759" on="1"/>
        <pt x="-688" y="759" on="0"/>
        <pt x="-632" y="729" on="0"/>
        <pt x="-615" y="700" on="1"/>
        <pt x="-666" y="673" on="1"/>
        <pt x="-684" y="698" on="0"/>
        <pt x="-711" y="698" on="1"/>
        <pt x="-728" y="698" on="0"/>
        <pt x="-758" y="672" on="0"/>
        <pt x="-758" y="649" on="1"/>
        <pt x="-758" y="630" on="0"/>
        <pt x="-729" y="602" on="0"/>
        <pt x="-711" y="602" on="1"/>
        <pt x="-697" y="602" on="0"/>
        <pt x="-676" y="614" on="0"/>
        <pt x="-666" y="628" on="1"/>
      </contour>
    </TTGlyph>
    <TTGlyph name="u1004.kinzi_u102E" xMin="-609" yMin="541" xMax="0" yMax="917">
      <contour>
        <pt x="0" y="729" on="1"/>
        <pt x="0" y="690" on="0"/>
        <pt x="-28" y="623" on="0"/>
        <pt x="-78" y="572" on="0"/>
        <pt x="-144" y="543" on="0"/>
        <pt x="-181" y="543" on="1"/>
        <pt x="-219" y="543" on="0"/>
        <pt x="-286" y="572" on="0"/>
        <pt x="-335" y="623" on="0"/>
        <pt x="-364" y="691" on="0"/>
        <pt x="-364" y="730" on="1"/>
        <pt x="-364" y="768" on="0"/>
        <pt x="-335" y="836" on="0"/>
        <pt x="-286" y="887" on="0"/>
        <pt x="-220" y="917" on="0"/>
        <pt x="-183" y="917" on="1"/>
        <pt x="-145" y="917" on="0"/>
        <pt x="-78" y="887" on="0"/>
        <pt x="-29" y="835" on="0"/>
        <pt x="0" y="767" on="0"/>
      </contour>
      <contour>
        <pt x="-73" y="717" on="1"/>
        <pt x="-71" y="722" on="0"/>
        <pt x="-71" y="733" on="0"/>
        <pt x="-71" y="738" on="1"/>
        <pt x="-73" y="759" on="0"/>
        <pt x="-91" y="798" on="0"/>
        <pt x="-120" y="828" on="0"/>
        <pt x="-159" y="846" on="0"/>
        <pt x="-181" y="846" on="1"/>
        <pt x="-203" y="846" on="0"/>
        <pt x="-243" y="828" on="0"/>
        <pt x="-274" y="798" on="0"/>
        <pt x="-293" y="759" on="0"/>
        <pt x="-294" y="737" on="1"/>
        <pt x="-294" y="727" on="0"/>
        <pt x="-290" y="716" on="1"/>
        <pt x="-262" y="738" on="0"/>
        <pt x="-207" y="752" on="0"/>
        <pt x="-181" y="752" on="1"/>
        <pt x="-157" y="752" on="0"/>
        <pt x="-99" y="737" on="0"/>
      </contour>
      <contour>
        <pt x="-93" y="660" on="1"/>
        <pt x="-113" y="678" on="0"/>
        <pt x="-161" y="694" on="0"/>
        <pt x="-181" y="694" on="1"/>
        <pt x="-201" y="694" on="0"/>
        <pt x="-248" y="677" on="0"/>
        <pt x="-270" y="659" on="1"/>
        <pt x="-255" y="639" on="0"/>
        <pt x="-209" y="614" on="0"/>
        <pt x="-183" y="614" on="1"/>
        <pt x="-155" y="614" on="0"/>
        <pt x="-109" y="638" on="0"/>
      </contour>
      <contour>
        <pt x="-403" y="598" on="1"/>
        <pt x="-419" y="568" on="0"/>
        <pt x="-473" y="541" on="0"/>
        <pt x="-502" y="541" on="1"/>
        <pt x="-524" y="541" on="0"/>
        <pt x="-563" y="558" on="0"/>
        <pt x="-592" y="588" on="0"/>
        <pt x="-609" y="627" on="0"/>
        <pt x="-609" y="649" on="1"/>
        <pt x="-609" y="698" on="0"/>
        <pt x="-571" y="730" on="1"/>
        <pt x="-588" y="744" on="0"/>
        <pt x="-609" y="783" on="0"/>
        <pt x="-609" y="809" on="1"/>
        <pt x="-609" y="833" on="0"/>
        <pt x="-591" y="872" on="0"/>
        <pt x="-561" y="901" on="0"/>
        <pt x="-522" y="916" on="0"/>
        <pt x="-500" y="916" on="1"/>
        <pt x="-469" y="916" on="0"/>
        <pt x="-430" y="889" on="0"/>
        <pt x="-419" y="871" on="1"/>
        <pt x="-466" y="832" on="1"/>
        <pt x="-471" y="841" on="0"/>
        <pt x="-489" y="854" on="0"/>
        <pt x="-502" y="854" on="1"/>
        <pt x="-520" y="854" on="0"/>
        <pt x="-547" y="829" on="0"/>
        <pt x="-547" y="809" on="1"/>
        <pt x="-547" y="790" on="0"/>
        <pt x="-520" y="759" on="0"/>
        <pt x="-502" y="759" on="1"/>
        <pt x="-476" y="759" on="0"/>
        <pt x="-420" y="729" on="0"/>
        <pt x="-403" y="700" on="1"/>
        <pt x="-454" y="673" on="1"/>
        <pt x="-472" y="698" on="0"/>
        <pt x="-499" y="698" on="1"/>
        <pt x="-516" y="698" on="0"/>
        <pt x="-546" y="672" on="0"/>
        <pt x="-546" y="649" on="1"/>
        <pt x="-546" y="630" on="0"/>
        <pt x="-518" y="602" on="0"/>
        <pt x="-499" y="602" on="1"/>
        <pt x="-485" y="602" on="0"/>
        <pt x="-464" y="614" on="0"/>
        <pt x="-454" y="628" on="1"/>
      </contour>
    </TTGlyph>
    <TTGlyph name="u1004.kinzi_u1032" xMin="-609" yMin="541" xMax="0" yMax="916">
      <contour>
        <pt x="-43" y="569" on="1"/>
        <pt x="-347" y="810" on="1"/>
        <pt x="-306" y="867" on="1"/>
        <pt x="0" y="626" on="1"/>
      </contour>
      <contour>
        <pt x="-403" y="598" on="1"/>
        <pt x="-419" y="568" on="0"/>
        <pt x="-473" y="541" on="0"/>
        <pt x="-502" y="541" on="1"/>
        <pt x="-524" y="541" on="0"/>
        <pt x="-563" y="558" on="0"/>
        <pt x="-592" y="588" on="0"/>
        <pt x="-609" y="627" on="0"/>
        <pt x="-609" y="649" on="1"/>
        <pt x="-609" y="698" on="0"/>
        <pt x="-571" y="730" on="1"/>
        <pt x="-588" y="744" on="0"/>
        <pt x="-609" y="783" on="0"/>
        <pt x="-609" y="809" on="1"/>
        <pt x="-609" y="833" on="0"/>
        <pt x="-591" y="872" on="0"/>
        <pt x="-561" y="901" on="0"/>
        <pt x="-522" y="916" on="0"/>
        <pt x="-500" y="916" on="1"/>
        <pt x="-469" y="916" on="0"/>
        <pt x="-430" y="889" on="0"/>
        <pt x="-419" y="871" on="1"/>
        <pt x="-466" y="832" on="1"/>
        <pt x="-471" y="841" on="0"/>
        <pt x="-489" y="854" on="0"/>
        <pt x="-502" y="854" on="1"/>
        <pt x="-520" y="854" on="0"/>
        <pt x="-547" y="829" on="0"/>
        <pt x="-547" y="809" on="1"/>
        <pt x="-547" y="790" on="0"/>
        <pt x="-520" y="759" on="0"/>
        <pt x="-502" y="759" on="1"/>
        <pt x="-476" y="759" on="0"/>
        <pt x="-420" y="729" on="0"/>
        <pt x="-403" y="700" on="1"/>
        <pt x="-454" y="673" on="1"/>
        <pt x="-472" y="698" on="0"/>
        <pt x="-499" y="698" on="1"/>
        <pt x="-516" y="698" on="0"/>
        <pt x="-546" y="672" on="0"/>
        <pt x="-546" y="649" on="1"/>
        <pt x="-546" y="630" on="0"/>
        <pt x="-518" y="602" on="0"/>
        <pt x="-499" y="602" on="1"/>
        <pt x="-485" y="602" on="0"/>
        <pt x="-464" y="614" on="0"/>
        <pt x="-454" y="628" on="1"/>
      </contour>
    </TTGlyph>
    <TTGlyph name="u1004.kinzi_u1033" xMin="-609" yMin="541" xMax="0" yMax="917">
      <contour>
        <pt x="0" y="730" on="1"/>
        <pt x="0" y="691" on="0"/>
        <pt x="-28" y="623" on="0"/>
        <pt x="-77" y="572" on="0"/>
        <pt x="-143" y="543" on="0"/>
        <pt x="-180" y="543" on="1"/>
        <pt x="-219" y="543" on="0"/>
        <pt x="-286" y="572" on="0"/>
        <pt x="-336" y="623" on="0"/>
        <pt x="-365" y="691" on="0"/>
        <pt x="-365" y="730" on="1"/>
        <pt x="-365" y="768" on="0"/>
        <pt x="-336" y="836" on="0"/>
        <pt x="-287" y="887" on="0"/>
        <pt x="-221" y="917" on="0"/>
        <pt x="-183" y="917" on="1"/>
        <pt x="-144" y="917" on="0"/>
        <pt x="-78" y="887" on="0"/>
        <pt x="-28" y="836" on="0"/>
        <pt x="0" y="768" on="0"/>
      </contour>
      <contour>
        <pt x="-71" y="730" on="1"/>
        <pt x="-71" y="753" on="0"/>
        <pt x="-88" y="795" on="0"/>
        <pt x="-117" y="827" on="0"/>
        <pt x="-157" y="846" on="0"/>
        <pt x="-180" y="846" on="1"/>
        <pt x="-204" y="846" on="0"/>
        <pt x="-246" y="827" on="0"/>
        <pt x="-276" y="795" on="0"/>
        <pt x="-294" y="753" on="0"/>
        <pt x="-294" y="730" on="1"/>
        <pt x="-294" y="707" on="0"/>
        <pt x="-276" y="665" on="0"/>
        <pt x="-246" y="633" on="0"/>
        <pt x="-206" y="614" on="0"/>
        <pt x="-183" y="614" on="1"/>
        <pt x="-159" y="614" on="0"/>
        <pt x="-118" y="633" on="0"/>
        <pt x="-88" y="665" on="0"/>
        <pt x="-71" y="707" on="0"/>
      </contour>
      <contour>
        <pt x="-116" y="730" on="1"/>
        <pt x="-116" y="704" on="0"/>
        <pt x="-151" y="662" on="0"/>
        <pt x="-180" y="662" on="1"/>
        <pt x="-205" y="662" on="0"/>
        <pt x="-246" y="700" on="0"/>
        <pt x="-246" y="730" on="1"/>
        <pt x="-246" y="759" on="0"/>
        <pt x="-205" y="798" on="0"/>
        <pt x="-180" y="798" on="1"/>
        <pt x="-155" y="798" on="0"/>
        <pt x="-116" y="759" on="0"/>
      </contour>
      <contour>
        <pt x="-161" y="730" on="1"/>
        <pt x="-161" y="738" on="0"/>
        <pt x="-172" y="750" on="0"/>
        <pt x="-180" y="750" on="1"/>
        <pt x="-188" y="750" on="0"/>
        <pt x="-200" y="738" on="0"/>
        <pt x="-200" y="730" on="1"/>
        <pt x="-200" y="721" on="0"/>
        <pt x="-188" y="709" on="0"/>
        <pt x="-180" y="709" on="1"/>
        <pt x="-172" y="709" on="0"/>
        <pt x="-161" y="721" on="0"/>
      </contour>
      <contour>
        <pt x="-403" y="598" on="1"/>
        <pt x="-419" y="568" on="0"/>
        <pt x="-473" y="541" on="0"/>
        <pt x="-502" y="541" on="1"/>
        <pt x="-524" y="541" on="0"/>
        <pt x="-563" y="558" on="0"/>
        <pt x="-592" y="588" on="0"/>
        <pt x="-609" y="627" on="0"/>
        <pt x="-609" y="649" on="1"/>
        <pt x="-609" y="698" on="0"/>
        <pt x="-571" y="730" on="1"/>
        <pt x="-588" y="744" on="0"/>
        <pt x="-609" y="783" on="0"/>
        <pt x="-609" y="809" on="1"/>
        <pt x="-609" y="833" on="0"/>
        <pt x="-591" y="872" on="0"/>
        <pt x="-561" y="901" on="0"/>
        <pt x="-522" y="916" on="0"/>
        <pt x="-500" y="916" on="1"/>
        <pt x="-469" y="916" on="0"/>
        <pt x="-430" y="889" on="0"/>
        <pt x="-419" y="871" on="1"/>
        <pt x="-466" y="832" on="1"/>
        <pt x="-471" y="841" on="0"/>
        <pt x="-489" y="854" on="0"/>
        <pt x="-502" y="854" on="1"/>
        <pt x="-520" y="854" on="0"/>
        <pt x="-547" y="829" on="0"/>
        <pt x="-547" y="809" on="1"/>
        <pt x="-547" y="790" on="0"/>
        <pt x="-520" y="759" on="0"/>
        <pt x="-502" y="759" on="1"/>
        <pt x="-476" y="759" on="0"/>
        <pt x="-420" y="729" on="0"/>
        <pt x="-403" y="700" on="1"/>
        <pt x="-454" y="673" on="1"/>
        <pt x="-472" y="698" on="0"/>
        <pt x="-499" y="698" on="1"/>
        <pt x="-516" y="698" on="0"/>
        <pt x="-546" y="672" on="0"/>
        <pt x="-546" y="649" on="1"/>
        <pt x="-546" y="630" on="0"/>
        <pt x="-518" y="602" on="0"/>
        <pt x="-499" y="602" on="1"/>
        <pt x="-485" y="602" on="0"/>
        <pt x="-464" y="614" on="0"/>
        <pt x="-454" y="628" on="1"/>
      </contour>
    </TTGlyph>
    <TTGlyph name="u1004.kinzi_u1036" xMin="-418" yMin="541" xMax="0" yMax="917">
      <contour>
        <pt x="0" y="680" on="1"/>
        <pt x="0" y="659" on="0"/>
        <pt x="-16" y="624" on="0"/>
        <pt x="-43" y="597" on="0"/>
        <pt x="-79" y="582" on="0"/>
        <pt x="-99" y="582" on="1"/>
        <pt x="-119" y="582" on="0"/>
        <pt x="-155" y="597" on="0"/>
        <pt x="-182" y="624" on="0"/>
        <pt x="-198" y="659" on="0"/>
        <pt x="-198" y="680" on="1"/>
        <pt x="-198" y="700" on="0"/>
        <pt x="-182" y="735" on="0"/>
        <pt x="-155" y="762" on="0"/>
        <pt x="-119" y="778" on="0"/>
        <pt x="-99" y="778" on="1"/>
        <pt x="-79" y="778" on="0"/>
        <pt x="-43" y="762" on="0"/>
        <pt x="-16" y="735" on="0"/>
        <pt x="0" y="700" on="0"/>
      </contour>
      <contour>
        <pt x="-53" y="680" on="1"/>
        <pt x="-53" y="697" on="0"/>
        <pt x="-80" y="723" on="0"/>
        <pt x="-99" y="723" on="1"/>
        <pt x="-119" y="723" on="0"/>
        <pt x="-144" y="697" on="0"/>
        <pt x="-144" y="680" on="1"/>
        <pt x="-144" y="663" on="0"/>
        <pt x="-119" y="633" on="0"/>
        <pt x="-99" y="633" on="1"/>
        <pt x="-80" y="633" on="0"/>
        <pt x="-53" y="661" on="0"/>
      </contour>
      <contour>
        <pt x="-213" y="599" on="1"/>
        <pt x="-229" y="569" on="0"/>
        <pt x="-283" y="541" on="0"/>
        <pt x="-311" y="541" on="1"/>
        <pt x="-333" y="541" on="0"/>
        <pt x="-372" y="558" on="0"/>
        <pt x="-401" y="588" on="0"/>
        <pt x="-418" y="627" on="0"/>
        <pt x="-418" y="649" on="1"/>
        <pt x="-418" y="699" on="0"/>
        <pt x="-381" y="731" on="1"/>
        <pt x="-398" y="745" on="0"/>
        <pt x="-418" y="784" on="0"/>
        <pt x="-418" y="810" on="1"/>
        <pt x="-418" y="834" on="0"/>
        <pt x="-400" y="873" on="0"/>
        <pt x="-370" y="902" on="0"/>
        <pt x="-331" y="917" on="0"/>
        <pt x="-309" y="917" on="1"/>
        <pt x="-279" y="917" on="0"/>
        <pt x="-239" y="890" on="0"/>
        <pt x="-228" y="871" on="1"/>
        <pt x="-276" y="832" on="1"/>
        <pt x="-281" y="842" on="0"/>
        <pt x="-299" y="855" on="0"/>
        <pt x="-311" y="855" on="1"/>
        <pt x="-330" y="855" on="0"/>
        <pt x="-357" y="830" on="0"/>
        <pt x="-357" y="810" on="1"/>
        <pt x="-357" y="791" on="0"/>
        <pt x="-330" y="760" on="0"/>
        <pt x="-311" y="760" on="1"/>
        <pt x="-286" y="760" on="0"/>
        <pt x="-229" y="729" on="0"/>
        <pt x="-213" y="700" on="1"/>
        <pt x="-263" y="673" on="1"/>
        <pt x="-281" y="698" on="0"/>
        <pt x="-308" y="698" on="1"/>
        <pt x="-325" y="698" on="0"/>
        <pt x="-356" y="673" on="0"/>
        <pt x="-356" y="650" on="1"/>
        <pt x="-356" y="630" on="0"/>
        <pt x="-327" y="603" on="0"/>
        <pt x="-308" y="603" on="1"/>
        <pt x="-294" y="603" on="0"/>
        <pt x="-274" y="614" on="0"/>
        <pt x="-263" y="628" on="1"/>
      </contour>
    </TTGlyph>
    <TTGlyph name="u1004.kinzi_u103A" xMin="-609" yMin="537" xMax="0" yMax="918">
      <contour>
        <pt x="-51" y="796" on="1"/>
        <pt x="-63" y="816" on="0"/>
        <pt x="-108" y="847" on="0"/>
        <pt x="-135" y="847" on="1"/>
        <pt x="-154" y="847" on="0"/>
        <pt x="-195" y="832" on="0"/>
        <pt x="-230" y="803" on="0"/>
        <pt x="-252" y="760" on="0"/>
        <pt x="-252" y="731" on="1"/>
        <pt x="-252" y="699" on="0"/>
        <pt x="-225" y="653" on="0"/>
        <pt x="-187" y="623" on="0"/>
        <pt x="-147" y="608" on="0"/>
        <pt x="-135" y="608" on="1"/>
        <pt x="-135" y="537" on="1"/>
        <pt x="-168" y="537" on="0"/>
        <pt x="-234" y="566" on="0"/>
        <pt x="-288" y="617" on="0"/>
        <pt x="-322" y="689" on="0"/>
        <pt x="-322" y="731" on="1"/>
        <pt x="-322" y="774" on="0"/>
        <pt x="-290" y="843" on="0"/>
        <pt x="-238" y="892" on="0"/>
        <pt x="-170" y="918" on="0"/>
        <pt x="-135" y="918" on="1"/>
        <pt x="-100" y="918" on="0"/>
        <pt x="-24" y="880" on="0"/>
        <pt x="0" y="838" on="1"/>
      </contour>
      <contour>
        <pt x="-403" y="598" on="1"/>
        <pt x="-419" y="568" on="0"/>
        <pt x="-473" y="541" on="0"/>
        <pt x="-502" y="541" on="1"/>
        <pt x="-524" y="541" on="0"/>
        <pt x="-563" y="558" on="0"/>
        <pt x="-592" y="588" on="0"/>
        <pt x="-609" y="627" on="0"/>
        <pt x="-609" y="649" on="1"/>
        <pt x="-609" y="698" on="0"/>
        <pt x="-571" y="730" on="1"/>
        <pt x="-588" y="744" on="0"/>
        <pt x="-609" y="783" on="0"/>
        <pt x="-609" y="809" on="1"/>
        <pt x="-609" y="833" on="0"/>
        <pt x="-591" y="872" on="0"/>
        <pt x="-561" y="901" on="0"/>
        <pt x="-522" y="916" on="0"/>
        <pt x="-500" y="916" on="1"/>
        <pt x="-469" y="916" on="0"/>
        <pt x="-430" y="889" on="0"/>
        <pt x="-419" y="871" on="1"/>
        <pt x="-466" y="832" on="1"/>
        <pt x="-471" y="841" on="0"/>
        <pt x="-489" y="854" on="0"/>
        <pt x="-502" y="854" on="1"/>
        <pt x="-520" y="854" on="0"/>
        <pt x="-547" y="829" on="0"/>
        <pt x="-547" y="809" on="1"/>
        <pt x="-547" y="790" on="0"/>
        <pt x="-521" y="759" on="0"/>
        <pt x="-502" y="759" on="1"/>
        <pt x="-476" y="759" on="0"/>
        <pt x="-420" y="729" on="0"/>
        <pt x="-403" y="700" on="1"/>
        <pt x="-454" y="673" on="1"/>
        <pt x="-472" y="698" on="0"/>
        <pt x="-499" y="698" on="1"/>
        <pt x="-516" y="698" on="0"/>
        <pt x="-546" y="672" on="0"/>
        <pt x="-546" y="649" on="1"/>
        <pt x="-546" y="630" on="0"/>
        <pt x="-518" y="602" on="0"/>
        <pt x="-499" y="602" on="1"/>
        <pt x="-485" y="602" on="0"/>
        <pt x="-464" y="614" on="0"/>
        <pt x="-454" y="628" on="1"/>
      </contour>
    </TTGlyph>
    <TTGlyph name="u1004.med" xMin="-413" yMin="-464" xMax="-52" yMax="-90">
      <contour>
        <pt x="-52" y="-367" on="1"/>
        <pt x="-82" y="-420" on="0"/>
        <pt x="-170" y="-464" on="0"/>
        <pt x="-226" y="-464" on="1"/>
        <pt x="-264" y="-464" on="0"/>
        <pt x="-332" y="-435" on="0"/>
        <pt x="-383" y="-384" on="0"/>
        <pt x="-413" y="-316" on="0"/>
        <pt x="-413" y="-277" on="1"/>
        <pt x="-413" y="-239" on="0"/>
        <pt x="-383" y="-171" on="0"/>
        <pt x="-332" y="-120" on="0"/>
        <pt x="-264" y="-90" on="0"/>
        <pt x="-226" y="-90" on="1"/>
        <pt x="-170" y="-90" on="0"/>
        <pt x="-82" y="-134" on="0"/>
        <pt x="-52" y="-187" on="1"/>
        <pt x="-111" y="-225" on="1"/>
        <pt x="-150" y="-161" on="0"/>
        <pt x="-223" y="-161" on="1"/>
        <pt x="-248" y="-161" on="0"/>
        <pt x="-291" y="-180" on="0"/>
        <pt x="-323" y="-212" on="0"/>
        <pt x="-342" y="-254" on="0"/>
        <pt x="-342" y="-277" on="1"/>
        <pt x="-342" y="-300" on="0"/>
        <pt x="-324" y="-342" on="0"/>
        <pt x="-292" y="-374" on="0"/>
        <pt x="-249" y="-393" on="0"/>
        <pt x="-224" y="-393" on="1"/>
        <pt x="-190" y="-393" on="0"/>
        <pt x="-132" y="-363" on="0"/>
        <pt x="-111" y="-330" on="1"/>
        <pt x="-52" y="-367" on="1"/>
      </contour>
    </TTGlyph>
    <TTGlyph name="u1005" xMin="55" yMin="-20" xMax="530" yMax="464">
      <contour>
        <pt x="530" y="222" on="1"/>
        <pt x="530" y="172" on="0"/>
        <pt x="493" y="84" on="0"/>
        <pt x="429" y="18" on="0"/>
        <pt x="342" y="-20" on="0"/>
        <pt x="292" y="-20" on="1"/>
        <pt x="243" y="-20" on="0"/>
        <pt x="157" y="18" on="0"/>
        <pt x="92" y="84" on="0"/>
        <pt x="55" y="172" on="0"/>
        <pt x="55" y="222" on="1"/>
        <pt x="55" y="271" on="0"/>
        <pt x="92" y="359" on="0"/>
        <pt x="156" y="425" on="0"/>
        <pt x="242" y="464" on="0"/>
        <pt x="291" y="464" on="1"/>
        <pt x="341" y="464" on="0"/>
        <pt x="428" y="425" on="0"/>
        <pt x="493" y="359" on="0"/>
        <pt x="530" y="271" on="0"/>
      </contour>
      <contour>
        <pt x="437" y="222" on="1"/>
        <pt x="437" y="251" on="0"/>
        <pt x="416" y="304" on="0"/>
        <pt x="379" y="345" on="0"/>
        <pt x="329" y="370" on="0"/>
        <pt x="300" y="371" on="1"/>
        <pt x="293" y="371" on="0"/>
        <pt x="282" y="368" on="0"/>
        <pt x="275" y="366" on="1"/>
        <pt x="305" y="331" on="0"/>
        <pt x="326" y="254" on="0"/>
        <pt x="326" y="222" on="1"/>
        <pt x="326" y="188" on="0"/>
        <pt x="304" y="112" on="0"/>
        <pt x="275" y="77" on="1"/>
        <pt x="282" y="75" on="0"/>
        <pt x="293" y="72" on="0"/>
        <pt x="299" y="72" on="1"/>
        <pt x="327" y="74" on="0"/>
        <pt x="378" y="99" on="0"/>
        <pt x="415" y="140" on="0"/>
        <pt x="437" y="192" on="0"/>
      </contour>
      <contour>
        <pt x="247" y="222" on="1"/>
        <pt x="247" y="248" on="0"/>
        <pt x="227" y="308" on="0"/>
        <pt x="202" y="337" on="1"/>
        <pt x="178" y="317" on="0"/>
        <pt x="148" y="257" on="0"/>
        <pt x="148" y="222" on="1"/>
        <pt x="148" y="186" on="0"/>
        <pt x="177" y="126" on="0"/>
        <pt x="202" y="106" on="1"/>
        <pt x="225" y="134" on="0"/>
        <pt x="247" y="193" on="0"/>
      </contour>
    </TTGlyph>
    <TTGlyph name="u1005.med" xMin="-420" yMin="-464" xMax="-55" yMax="-90">
      <contour>
        <pt x="-55" y="-277" on="1"/>
        <pt x="-55" y="-316" on="0"/>
        <pt x="-84" y="-384" on="0"/>
        <pt x="-133" y="-435" on="0"/>
        <pt x="-199" y="-464" on="0"/>
        <pt x="-236" y="-464" on="1"/>
        <pt x="-274" y="-464" on="0"/>
        <pt x="-341" y="-435" on="0"/>
        <pt x="-391" y="-384" on="0"/>
        <pt x="-420" y="-316" on="0"/>
        <pt x="-420" y="-277" on="1"/>
        <pt x="-420" y="-239" on="0"/>
        <pt x="-391" y="-171" on="0"/>
        <pt x="-342" y="-120" on="0"/>
        <pt x="-276" y="-90" on="0"/>
        <pt x="-238" y="-90" on="1"/>
        <pt x="-200" y="-90" on="0"/>
        <pt x="-133" y="-120" on="0"/>
        <pt x="-84" y="-171" on="0"/>
        <pt x="-55" y="-239" on="0"/>
      </contour>
      <contour>
        <pt x="-126" y="-277" on="1"/>
        <pt x="-126" y="-255" on="0"/>
        <pt x="-142" y="-213" on="0"/>
        <pt x="-171" y="-182" on="0"/>
        <pt x="-209" y="-162" on="0"/>
        <pt x="-231" y="-161" on="1"/>
        <pt x="-241" y="-161" on="0"/>
        <pt x="-250" y="-164" on="1"/>
        <pt x="-227" y="-193" on="0"/>
        <pt x="-212" y="-251" on="0"/>
        <pt x="-212" y="-277" on="1"/>
        <pt x="-212" y="-302" on="0"/>
        <pt x="-230" y="-363" on="0"/>
        <pt x="-251" y="-390" on="1"/>
        <pt x="-242" y="-393" on="0"/>
        <pt x="-232" y="-393" on="1"/>
        <pt x="-210" y="-392" on="0"/>
        <pt x="-171" y="-372" on="0"/>
        <pt x="-142" y="-340" on="0"/>
        <pt x="-126" y="-299" on="0"/>
      </contour>
      <contour>
        <pt x="-270" y="-277" on="1"/>
        <pt x="-270" y="-257" on="0"/>
        <pt x="-287" y="-209" on="0"/>
        <pt x="-305" y="-186" on="1"/>
        <pt x="-349" y="-219" on="0"/>
        <pt x="-349" y="-277" on="1"/>
        <pt x="-349" y="-304" on="0"/>
        <pt x="-326" y="-351" on="0"/>
        <pt x="-305" y="-367" on="1"/>
        <pt x="-288" y="-345" on="0"/>
        <pt x="-270" y="-298" on="0"/>
      </contour>
    </TTGlyph>
    <TTGlyph name="u1006" xMin="56" yMin="-20" xMax="919" yMax="464">
      <contour>
        <pt x="919" y="222" on="1"/>
        <pt x="919" y="172" on="0"/>
        <pt x="881" y="84" on="0"/>
        <pt x="817" y="18" on="0"/>
        <pt x="731" y="-20" on="0"/>
        <pt x="682" y="-20" on="1"/>
        <pt x="621" y="-20" on="0"/>
        <pt x="521" y="35" on="0"/>
        <pt x="490" y="81" on="1"/>
        <pt x="459" y="36" on="0"/>
        <pt x="358" y="-20" on="0"/>
        <pt x="294" y="-20" on="1"/>
        <pt x="258" y="-20" on="0"/>
        <pt x="176" y="6" on="0"/>
        <pt x="105" y="57" on="0"/>
        <pt x="58" y="131" on="0"/>
        <pt x="56" y="179" on="1"/>
        <pt x="110" y="212" on="0"/>
        <pt x="202" y="238" on="0"/>
        <pt x="236" y="238" on="1"/>
        <pt x="281" y="238" on="0"/>
        <pt x="384" y="196" on="0"/>
        <pt x="422" y="152" on="1"/>
        <pt x="432" y="167" on="0"/>
        <pt x="443" y="201" on="0"/>
        <pt x="443" y="222" on="1"/>
        <pt x="443" y="241" on="0"/>
        <pt x="427" y="292" on="0"/>
        <pt x="391" y="338" on="0"/>
        <pt x="334" y="371" on="0"/>
        <pt x="294" y="371" on="1"/>
        <pt x="257" y="371" on="0"/>
        <pt x="185" y="336" on="0"/>
        <pt x="153" y="288" on="1"/>
        <pt x="73" y="331" on="1"/>
        <pt x="88" y="363" on="0"/>
        <pt x="136" y="413" on="0"/>
        <pt x="195" y="447" on="0"/>
        <pt x="261" y="464" on="0"/>
        <pt x="294" y="464" on="1"/>
        <pt x="360" y="464" on="0"/>
        <pt x="459" y="406" on="0"/>
        <pt x="489" y="360" on="1"/>
        <pt x="521" y="408" on="0"/>
        <pt x="621" y="464" on="0"/>
        <pt x="682" y="464" on="1"/>
        <pt x="731" y="464" on="0"/>
        <pt x="817" y="425" on="0"/>
        <pt x="882" y="359" on="0"/>
        <pt x="919" y="271" on="0"/>
      </contour>
      <contour>
        <pt x="827" y="222" on="1"/>
        <pt x="827" y="252" on="0"/>
        <pt x="804" y="307" on="0"/>
        <pt x="765" y="347" on="0"/>
        <pt x="712" y="371" on="0"/>
        <pt x="682" y="371" on="1"/>
        <pt x="652" y="371" on="0"/>
        <pt x="598" y="347" on="0"/>
        <pt x="559" y="307" on="0"/>
        <pt x="536" y="252" on="0"/>
        <pt x="536" y="222" on="1"/>
        <pt x="536" y="191" on="0"/>
        <pt x="559" y="137" on="0"/>
        <pt x="599" y="96" on="0"/>
        <pt x="652" y="72" on="0"/>
        <pt x="682" y="72" on="1"/>
        <pt x="712" y="72" on="0"/>
        <pt x="765" y="96" on="0"/>
        <pt x="804" y="137" on="0"/>
        <pt x="827" y="191" on="0"/>
      </contour>
      <contour>
        <pt x="369" y="91" on="1"/>
        <pt x="347" y="121" on="0"/>
        <pt x="279" y="160" on="0"/>
        <pt x="238" y="160" on="1"/>
        <pt x="203" y="160" on="0"/>
        <pt x="159" y="144" on="1"/>
        <pt x="189" y="103" on="0"/>
        <pt x="263" y="72" on="0"/>
        <pt x="294" y="72" on="1"/>
        <pt x="316" y="72" on="0"/>
        <pt x="352" y="82" on="0"/>
      </contour>
    </TTGlyph>
    <TTGlyph name="u1006.med" xMin="-720" yMin="-464" xMax="-56" yMax="-90">
      <contour>
        <pt x="-56" y="-277" on="1"/>
        <pt x="-56" y="-316" on="0"/>
        <pt x="-84" y="-384" on="0"/>
        <pt x="-134" y="-435" on="0"/>
        <pt x="-200" y="-464" on="0"/>
        <pt x="-237" y="-464" on="1"/>
        <pt x="-285" y="-464" on="0"/>
        <pt x="-361" y="-421" on="0"/>
        <pt x="-386" y="-386" on="1"/>
        <pt x="-410" y="-421" on="0"/>
        <pt x="-487" y="-464" on="0"/>
        <pt x="-536" y="-464" on="1"/>
        <pt x="-570" y="-464" on="0"/>
        <pt x="-635" y="-440" on="0"/>
        <pt x="-686" y="-398" on="0"/>
        <pt x="-719" y="-342" on="0"/>
        <pt x="-720" y="-310" on="1"/>
        <pt x="-676" y="-283" on="0"/>
        <pt x="-607" y="-263" on="0"/>
        <pt x="-581" y="-263" on="1"/>
        <pt x="-564" y="-263" on="0"/>
        <pt x="-525" y="-272" on="0"/>
        <pt x="-487" y="-289" on="0"/>
        <pt x="-452" y="-314" on="0"/>
        <pt x="-438" y="-330" on="1"/>
        <pt x="-421" y="-305" on="0"/>
        <pt x="-421" y="-277" on="1"/>
        <pt x="-421" y="-262" on="0"/>
        <pt x="-434" y="-222" on="0"/>
        <pt x="-461" y="-186" on="0"/>
        <pt x="-505" y="-161" on="0"/>
        <pt x="-536" y="-161" on="1"/>
        <pt x="-561" y="-161" on="0"/>
        <pt x="-618" y="-188" on="0"/>
        <pt x="-644" y="-226" on="1"/>
        <pt x="-707" y="-192" on="1"/>
        <pt x="-692" y="-162" on="0"/>
        <pt x="-647" y="-122" on="0"/>
        <pt x="-599" y="-99" on="0"/>
        <pt x="-553" y="-90" on="0"/>
        <pt x="-536" y="-90" on="1"/>
        <pt x="-486" y="-90" on="0"/>
        <pt x="-409" y="-135" on="0"/>
        <pt x="-386" y="-170" on="1"/>
        <pt x="-362" y="-133" on="0"/>
        <pt x="-285" y="-90" on="0"/>
        <pt x="-237" y="-90" on="1"/>
        <pt x="-199" y="-90" on="0"/>
        <pt x="-133" y="-120" on="0"/>
        <pt x="-84" y="-171" on="0"/>
        <pt x="-56" y="-239" on="0"/>
      </contour>
      <contour>
        <pt x="-126" y="-277" on="1"/>
        <pt x="-126" y="-254" on="0"/>
        <pt x="-144" y="-212" on="0"/>
        <pt x="-174" y="-180" on="0"/>
        <pt x="-214" y="-161" on="0"/>
        <pt x="-237" y="-161" on="1"/>
        <pt x="-261" y="-161" on="0"/>
        <pt x="-302" y="-180" on="0"/>
        <pt x="-332" y="-212" on="0"/>
        <pt x="-349" y="-254" on="0"/>
        <pt x="-349" y="-277" on="1"/>
        <pt x="-349" y="-300" on="0"/>
        <pt x="-331" y="-342" on="0"/>
        <pt x="-301" y="-374" on="0"/>
        <pt x="-260" y="-393" on="0"/>
        <pt x="-237" y="-393" on="1"/>
        <pt x="-214" y="-393" on="0"/>
        <pt x="-174" y="-374" on="0"/>
        <pt x="-144" y="-342" on="0"/>
        <pt x="-126" y="-300" on="0"/>
      </contour>
      <contour>
        <pt x="-477" y="-377" on="1"/>
        <pt x="-492" y="-353" on="0"/>
        <pt x="-549" y="-322" on="0"/>
        <pt x="-581" y="-322" on="1"/>
        <pt x="-595" y="-322" on="0"/>
        <pt x="-624" y="-329" on="0"/>
        <pt x="-641" y="-335" on="1"/>
        <pt x="-620" y="-367" on="0"/>
        <pt x="-560" y="-393" on="0"/>
        <pt x="-536" y="-393" on="1"/>
        <pt x="-519" y="-393" on="0"/>
        <pt x="-491" y="-384" on="0"/>
      </contour>
    </TTGlyph>
    <TTGlyph name="u1007" xMin="55" yMin="-20" xMax="594" yMax="464">
      <contour>
        <pt x="527" y="103" on="1"/>
        <pt x="516" y="121" on="0"/>
        <pt x="489" y="170" on="0"/>
        <pt x="480" y="186" on="1"/>
        <pt x="460" y="163" on="0"/>
        <pt x="406" y="143" on="0"/>
        <pt x="377" y="143" on="1"/>
        <pt x="355" y="143" on="0"/>
        <pt x="314" y="157" on="0"/>
        <pt x="283" y="182" on="0"/>
        <pt x="264" y="219" on="0"/>
        <pt x="264" y="243" on="1"/>
        <pt x="264" y="260" on="0"/>
        <pt x="275" y="294" on="0"/>
        <pt x="297" y="322" on="0"/>
        <pt x="332" y="342" on="0"/>
        <pt x="356" y="345" on="1"/>
        <pt x="368" y="345" on="0"/>
        <pt x="378" y="340" on="1"/>
        <pt x="365" y="354" on="0"/>
        <pt x="325" y="374" on="0"/>
        <pt x="294" y="374" on="1"/>
        <pt x="266" y="374" on="0"/>
        <pt x="213" y="349" on="0"/>
        <pt x="173" y="307" on="0"/>
        <pt x="148" y="252" on="0"/>
        <pt x="148" y="222" on="1"/>
        <pt x="148" y="191" on="0"/>
        <pt x="171" y="136" on="0"/>
        <pt x="210" y="96" on="0"/>
        <pt x="263" y="72" on="0"/>
        <pt x="293" y="72" on="1"/>
        <pt x="333" y="72" on="0"/>
        <pt x="388" y="92" on="0"/>
        <pt x="410" y="109" on="1"/>
        <pt x="475" y="43" on="1"/>
        <pt x="443" y="11" on="0"/>
        <pt x="362" y="-20" on="0"/>
        <pt x="293" y="-20" on="1"/>
        <pt x="244" y="-20" on="0"/>
        <pt x="158" y="18" on="0"/>
        <pt x="93" y="84" on="0"/>
        <pt x="55" y="172" on="0"/>
        <pt x="55" y="222" on="1"/>
        <pt x="55" y="271" on="0"/>
        <pt x="94" y="359" on="0"/>
        <pt x="160" y="425" on="0"/>
        <pt x="246" y="464" on="0"/>
        <pt x="293" y="464" on="1"/>
        <pt x="332" y="464" on="0"/>
        <pt x="405" y="442" on="0"/>
        <pt x="465" y="399" on="0"/>
        <pt x="504" y="335" on="0"/>
        <pt x="509" y="292" on="1"/>
        <pt x="532" y="266" on="0"/>
        <pt x="575" y="190" on="0"/>
        <pt x="594" y="152" on="1"/>
      </contour>
      <contour>
        <pt x="432" y="252" on="1"/>
        <pt x="418" y="267" on="0"/>
        <pt x="394" y="276" on="0"/>
        <pt x="373" y="276" on="1"/>
        <pt x="357" y="276" on="0"/>
        <pt x="337" y="260" on="0"/>
        <pt x="337" y="243" on="1"/>
        <pt x="337" y="228" on="0"/>
        <pt x="365" y="216" on="0"/>
        <pt x="377" y="216" on="1"/>
        <pt x="398" y="216" on="0"/>
        <pt x="429" y="232" on="0"/>
      </contour>
    </TTGlyph>
    <TTGlyph name="u1007.med" xMin="-472" yMin="-464" xMax="-56" yMax="-89">
      <contour>
        <pt x="-108" y="-369" on="1"/>
        <pt x="-111" y="-363" on="0"/>
        <pt x="-122" y="-345" on="0"/>
        <pt x="-132" y="-326" on="0"/>
        <pt x="-141" y="-309" on="0"/>
        <pt x="-144" y="-305" on="1"/>
        <pt x="-159" y="-321" on="0"/>
        <pt x="-202" y="-338" on="0"/>
        <pt x="-224" y="-338" on="1"/>
        <pt x="-258" y="-338" on="0"/>
        <pt x="-311" y="-297" on="0"/>
        <pt x="-311" y="-260" on="1"/>
        <pt x="-311" y="-234" on="0"/>
        <pt x="-277" y="-187" on="0"/>
        <pt x="-241" y="-182" on="1"/>
        <pt x="-231" y="-182" on="0"/>
        <pt x="-223" y="-186" on="1"/>
        <pt x="-232" y="-176" on="0"/>
        <pt x="-264" y="-161" on="0"/>
        <pt x="-287" y="-161" on="1"/>
        <pt x="-310" y="-161" on="0"/>
        <pt x="-351" y="-180" on="0"/>
        <pt x="-383" y="-212" on="0"/>
        <pt x="-401" y="-254" on="0"/>
        <pt x="-401" y="-277" on="1"/>
        <pt x="-401" y="-301" on="0"/>
        <pt x="-383" y="-343" on="0"/>
        <pt x="-352" y="-374" on="0"/>
        <pt x="-310" y="-393" on="0"/>
        <pt x="-286" y="-393" on="1"/>
        <pt x="-257" y="-393" on="0"/>
        <pt x="-218" y="-380" on="0"/>
        <pt x="-198" y="-364" on="1"/>
        <pt x="-148" y="-415" on="1"/>
        <pt x="-173" y="-440" on="0"/>
        <pt x="-237" y="-464" on="0"/>
        <pt x="-288" y="-464" on="1"/>
        <pt x="-326" y="-464" on="0"/>
        <pt x="-393" y="-435" on="0"/>
        <pt x="-443" y="-384" on="0"/>
        <pt x="-472" y="-316" on="0"/>
        <pt x="-472" y="-277" on="1"/>
        <pt x="-472" y="-240" on="0"/>
        <pt x="-442" y="-171" on="0"/>
        <pt x="-391" y="-120" on="0"/>
        <pt x="-325" y="-89" on="0"/>
        <pt x="-288" y="-89" on="1"/>
        <pt x="-259" y="-89" on="0"/>
        <pt x="-202" y="-106" on="0"/>
        <pt x="-156" y="-140" on="0"/>
        <pt x="-125" y="-189" on="0"/>
        <pt x="-122" y="-222" on="1"/>
        <pt x="-105" y="-242" on="0"/>
        <pt x="-73" y="-296" on="0"/>
        <pt x="-56" y="-331" on="1"/>
      </contour>
      <contour>
        <pt x="-181" y="-253" on="1"/>
        <pt x="-193" y="-242" on="0"/>
        <pt x="-210" y="-235" on="0"/>
        <pt x="-227" y="-235" on="1"/>
        <pt x="-255" y="-235" on="0"/>
        <pt x="-255" y="-260" on="1"/>
        <pt x="-255" y="-270" on="0"/>
        <pt x="-237" y="-282" on="0"/>
        <pt x="-224" y="-282" on="1"/>
        <pt x="-188" y="-282" on="0"/>
      </contour>
    </TTGlyph>
    <TTGlyph name="u1008" xMin="55" yMin="-464" xMax="717" yMax="465">
      <contour>
        <pt x="339" y="-372" on="1"/>
        <pt x="339" y="-14" on="1"/>
        <pt x="326" y="-17" on="0"/>
        <pt x="305" y="-19" on="0"/>
        <pt x="294" y="-19" on="1"/>
        <pt x="244" y="-19" on="0"/>
        <pt x="156" y="19" on="0"/>
        <pt x="92" y="84" on="0"/>
        <pt x="55" y="172" on="0"/>
        <pt x="55" y="223" on="1"/>
        <pt x="55" y="272" on="0"/>
        <pt x="92" y="360" on="0"/>
        <pt x="156" y="426" on="0"/>
        <pt x="242" y="465" on="0"/>
        <pt x="291" y="465" on="1"/>
        <pt x="342" y="465" on="0"/>
        <pt x="429" y="426" on="0"/>
        <pt x="493" y="360" on="0"/>
        <pt x="530" y="272" on="0"/>
        <pt x="530" y="223" on="1"/>
        <pt x="530" y="160" on="0"/>
        <pt x="477" y="58" on="0"/>
        <pt x="432" y="26" on="1"/>
        <pt x="432" y="-299" on="1"/>
        <pt x="625" y="-344" on="1"/>
        <pt x="625" y="459" on="1"/>
        <pt x="717" y="459" on="1"/>
        <pt x="717" y="-464" on="1"/>
      </contour>
      <contour>
        <pt x="437" y="223" on="1"/>
        <pt x="437" y="253" on="0"/>
        <pt x="415" y="306" on="0"/>
        <pt x="378" y="346" on="0"/>
        <pt x="328" y="371" on="0"/>
        <pt x="300" y="372" on="1"/>
        <pt x="293" y="372" on="0"/>
        <pt x="282" y="370" on="0"/>
        <pt x="276" y="368" on="1"/>
        <pt x="305" y="332" on="0"/>
        <pt x="326" y="255" on="0"/>
        <pt x="326" y="223" on="1"/>
        <pt x="326" y="190" on="0"/>
        <pt x="304" y="112" on="0"/>
        <pt x="275" y="77" on="1"/>
        <pt x="287" y="72" on="0"/>
        <pt x="299" y="72" on="1"/>
        <pt x="327" y="74" on="0"/>
        <pt x="378" y="100" on="0"/>
        <pt x="415" y="140" on="0"/>
        <pt x="437" y="193" on="0"/>
      </contour>
      <contour>
        <pt x="247" y="223" on="1"/>
        <pt x="247" y="250" on="0"/>
        <pt x="228" y="310" on="0"/>
        <pt x="202" y="339" on="1"/>
        <pt x="177" y="318" on="0"/>
        <pt x="148" y="258" on="0"/>
        <pt x="148" y="223" on="1"/>
        <pt x="148" y="186" on="0"/>
        <pt x="176" y="127" on="0"/>
        <pt x="201" y="106" on="1"/>
        <pt x="225" y="135" on="0"/>
        <pt x="247" y="195" on="0"/>
      </contour>
    </TTGlyph>
    <TTGlyph name="u1008.med" xMin="-405" yMin="-464" xMax="148" yMax="444">
      <contour>
        <pt x="-102" y="-400" on="1"/>
        <pt x="-125" y="-423" on="0"/>
        <pt x="-186" y="-448" on="0"/>
        <pt x="-222" y="-448" on="1"/>
        <pt x="-260" y="-448" on="0"/>
        <pt x="-327" y="-419" on="0"/>
        <pt x="-377" y="-368" on="0"/>
        <pt x="-405" y="-301" on="0"/>
        <pt x="-405" y="-262" on="1"/>
        <pt x="-405" y="-224" on="0"/>
        <pt x="-378" y="-157" on="0"/>
        <pt x="-332" y="-106" on="0"/>
        <pt x="-268" y="-76" on="0"/>
        <pt x="-231" y="-76" on="1"/>
        <pt x="-193" y="-76" on="0"/>
        <pt x="-124" y="-106" on="0"/>
        <pt x="-71" y="-157" on="0"/>
        <pt x="-40" y="-224" on="0"/>
        <pt x="-40" y="-262" on="1"/>
        <pt x="-40" y="-291" on="0"/>
        <pt x="-53" y="-317" on="1"/>
        <pt x="55" y="-344" on="1"/>
        <pt x="55" y="444" on="1"/>
        <pt x="148" y="444" on="1"/>
        <pt x="148" y="-464" on="1"/>
      </contour>
      <contour>
        <pt x="-111" y="-262" on="1"/>
        <pt x="-111" y="-239" on="0"/>
        <pt x="-128" y="-198" on="0"/>
        <pt x="-156" y="-167" on="0"/>
        <pt x="-195" y="-149" on="0"/>
        <pt x="-217" y="-148" on="1"/>
        <pt x="-228" y="-148" on="0"/>
        <pt x="-235" y="-151" on="1"/>
        <pt x="-211" y="-177" on="0"/>
        <pt x="-197" y="-236" on="0"/>
        <pt x="-197" y="-262" on="1"/>
        <pt x="-197" y="-287" on="0"/>
        <pt x="-215" y="-348" on="0"/>
        <pt x="-236" y="-374" on="1"/>
        <pt x="-229" y="-377" on="0"/>
        <pt x="-217" y="-377" on="1"/>
        <pt x="-195" y="-376" on="0"/>
        <pt x="-157" y="-357" on="0"/>
        <pt x="-128" y="-325" on="0"/>
        <pt x="-111" y="-285" on="0"/>
      </contour>
      <contour>
        <pt x="-255" y="-262" on="1"/>
        <pt x="-255" y="-242" on="0"/>
        <pt x="-272" y="-193" on="0"/>
        <pt x="-289" y="-171" on="1"/>
        <pt x="-311" y="-187" on="0"/>
        <pt x="-335" y="-233" on="0"/>
        <pt x="-335" y="-262" on="1"/>
        <pt x="-335" y="-289" on="0"/>
        <pt x="-311" y="-336" on="0"/>
        <pt x="-291" y="-352" on="1"/>
        <pt x="-272" y="-330" on="0"/>
        <pt x="-255" y="-282" on="0"/>
      </contour>
    </TTGlyph>
    <TTGlyph name="u1009" xMin="55" yMin="-464" xMax="901" yMax="464">
      <contour>
        <pt x="901" y="-345" on="1"/>
        <pt x="901" y="-380" on="0"/>
        <pt x="891" y="-419" on="0"/>
        <pt x="880" y="-432" on="1"/>
        <pt x="867" y="-448" on="0"/>
        <pt x="827" y="-464" on="0"/>
        <pt x="789" y="-464" on="1"/>
        <pt x="270" y="-464" on="1"/>
        <pt x="218" y="-464" on="0"/>
        <pt x="142" y="-431" on="0"/>
        <pt x="113" y="-402" on="1"/>
        <pt x="83" y="-371" on="0"/>
        <pt x="55" y="-296" on="0"/>
        <pt x="55" y="-249" on="1"/>
        <pt x="55" y="112" on="1"/>
        <pt x="138" y="156" on="1"/>
        <pt x="153" y="129" on="0"/>
        <pt x="191" y="96" on="0"/>
        <pt x="229" y="78" on="0"/>
        <pt x="265" y="72" on="0"/>
        <pt x="279" y="72" on="1"/>
        <pt x="310" y="72" on="0"/>
        <pt x="364" y="96" on="0"/>
        <pt x="404" y="137" on="0"/>
        <pt x="427" y="191" on="0"/>
        <pt x="427" y="222" on="1"/>
        <pt x="427" y="252" on="0"/>
        <pt x="404" y="306" on="0"/>
        <pt x="364" y="347" on="0"/>
        <pt x="310" y="371" on="0"/>
        <pt x="279" y="371" on="1"/>
        <pt x="265" y="371" on="0"/>
        <pt x="229" y="364" on="0"/>
        <pt x="191" y="346" on="0"/>
        <pt x="153" y="313" on="0"/>
        <pt x="138" y="288" on="1"/>
        <pt x="55" y="331" on="1"/>
        <pt x="73" y="366" on="0"/>
        <pt x="125" y="417" on="0"/>
        <pt x="185" y="449" on="0"/>
        <pt x="249" y="464" on="0"/>
        <pt x="279" y="464" on="1"/>
        <pt x="328" y="464" on="0"/>
        <pt x="416" y="425" on="0"/>
        <pt x="482" y="359" on="0"/>
        <pt x="520" y="271" on="0"/>
        <pt x="520" y="222" on="1"/>
        <pt x="520" y="172" on="0"/>
        <pt x="482" y="84" on="0"/>
        <pt x="416" y="18" on="0"/>
        <pt x="328" y="-20" on="0"/>
        <pt x="279" y="-20" on="1"/>
        <pt x="246" y="-20" on="0"/>
        <pt x="179" y="-2" on="0"/>
        <pt x="148" y="17" on="1"/>
        <pt x="148" y="-237" on="1"/>
        <pt x="148" y="-267" on="0"/>
        <pt x="162" y="-320" on="0"/>
        <pt x="179" y="-337" on="1"/>
        <pt x="199" y="-356" on="0"/>
        <pt x="249" y="-371" on="0"/>
        <pt x="284" y="-371" on="1"/>
        <pt x="769" y="-371" on="1"/>
        <pt x="795" y="-371" on="0"/>
        <pt x="809" y="-353" on="0"/>
        <pt x="809" y="-326" on="1"/>
        <pt x="809" y="-282" on="1"/>
        <pt x="901" y="-282" on="1"/>
      </contour>
    </TTGlyph>
    <TTGlyph name="u1009_u102C" xMin="55" yMin="-464" xMax="912" yMax="464">
      <contour>
        <pt x="912" y="222" on="1"/>
        <pt x="912" y="172" on="0"/>
        <pt x="874" y="84" on="0"/>
        <pt x="808" y="18" on="0"/>
        <pt x="720" y="-20" on="0"/>
        <pt x="671" y="-20" on="1"/>
        <pt x="652" y="-20" on="0"/>
        <pt x="615" y="-14" on="0"/>
        <pt x="601" y="-7" on="1"/>
        <pt x="637" y="78" on="1"/>
        <pt x="645" y="75" on="0"/>
        <pt x="663" y="72" on="0"/>
        <pt x="671" y="72" on="1"/>
        <pt x="701" y="72" on="0"/>
        <pt x="755" y="96" on="0"/>
        <pt x="796" y="137" on="0"/>
        <pt x="819" y="191" on="0"/>
        <pt x="819" y="222" on="1"/>
        <pt x="819" y="252" on="0"/>
        <pt x="796" y="306" on="0"/>
        <pt x="755" y="347" on="0"/>
        <pt x="701" y="371" on="0"/>
        <pt x="671" y="371" on="1"/>
        <pt x="643" y="371" on="0"/>
        <pt x="592" y="343" on="0"/>
        <pt x="550" y="300" on="0"/>
        <pt x="523" y="246" on="0"/>
        <pt x="519" y="221" on="1"/>
        <pt x="518" y="212" on="1"/>
        <pt x="517" y="166" on="0"/>
        <pt x="479" y="82" on="0"/>
        <pt x="415" y="18" on="0"/>
        <pt x="328" y="-20" on="0"/>
        <pt x="279" y="-20" on="1"/>
        <pt x="246" y="-20" on="0"/>
        <pt x="177" y="-1" on="0"/>
        <pt x="148" y="19" on="1"/>
        <pt x="148" y="-237" on="1"/>
        <pt x="148" y="-267" on="0"/>
        <pt x="162" y="-320" on="0"/>
        <pt x="179" y="-337" on="1"/>
        <pt x="199" y="-356" on="0"/>
        <pt x="249" y="-371" on="0"/>
        <pt x="284" y="-371" on="1"/>
        <pt x="762" y="-371" on="1"/>
        <pt x="788" y="-371" on="0"/>
        <pt x="802" y="-353" on="0"/>
        <pt x="802" y="-326" on="1"/>
        <pt x="802" y="-282" on="1"/>
        <pt x="895" y="-282" on="1"/>
        <pt x="895" y="-345" on="1"/>
        <pt x="895" y="-380" on="0"/>
        <pt x="884" y="-419" on="0"/>
        <pt x="873" y="-432" on="1"/>
        <pt x="860" y="-448" on="0"/>
        <pt x="820" y="-464" on="0"/>
        <pt x="782" y="-464" on="1"/>
        <pt x="270" y="-464" on="1"/>
        <pt x="218" y="-464" on="0"/>
        <pt x="142" y="-431" on="0"/>
        <pt x="113" y="-402" on="1"/>
        <pt x="83" y="-371" on="0"/>
        <pt x="56" y="-298" on="0"/>
        <pt x="56" y="-251" on="1"/>
        <pt x="55" y="112" on="1"/>
        <pt x="138" y="156" on="1"/>
        <pt x="161" y="115" on="0"/>
        <pt x="233" y="72" on="0"/>
        <pt x="279" y="72" on="1"/>
        <pt x="309" y="72" on="0"/>
        <pt x="363" y="96" on="0"/>
        <pt x="403" y="136" on="0"/>
        <pt x="427" y="191" on="0"/>
        <pt x="427" y="222" on="1"/>
        <pt x="427" y="252" on="0"/>
        <pt x="404" y="306" on="0"/>
        <pt x="364" y="347" on="0"/>
        <pt x="310" y="371" on="0"/>
        <pt x="279" y="371" on="1"/>
        <pt x="265" y="371" on="0"/>
        <pt x="229" y="364" on="0"/>
        <pt x="191" y="346" on="0"/>
        <pt x="153" y="313" on="0"/>
        <pt x="138" y="288" on="1"/>
        <pt x="55" y="331" on="1"/>
        <pt x="73" y="366" on="0"/>
        <pt x="125" y="417" on="0"/>
        <pt x="185" y="449" on="0"/>
        <pt x="249" y="464" on="0"/>
        <pt x="279" y="464" on="1"/>
        <pt x="341" y="464" on="0"/>
        <pt x="446" y="403" on="0"/>
        <pt x="477" y="353" on="1"/>
        <pt x="509" y="399" on="0"/>
        <pt x="607" y="464" on="0"/>
        <pt x="671" y="464" on="1"/>
        <pt x="720" y="464" on="0"/>
        <pt x="808" y="425" on="0"/>
        <pt x="874" y="359" on="0"/>
        <pt x="912" y="271" on="0"/>
      </contour>
    </TTGlyph>
</ttFont>
